<svg width="345" height="429" viewBox="0 0 345 429" fill="none" xmlns="http://www.w3.org/2000/svg">
<rect width="345" height="429" rx="10" fill="#C7C2DE"/>
<path d="M94.1143 43.9932C94.1143 45.4111 93.7812 46.7396 93.1152 47.9785C92.4492 49.2174 91.5003 50.2773 90.2686 51.1582C89.0439 52.0319 87.6081 52.6335 85.9609 52.9629L84.79 50.6855C86.1937 50.4206 87.4183 49.9443 88.4639 49.2568C89.5166 48.5693 90.3187 47.7637 90.8701 46.8398C91.4287 45.916 91.708 44.9671 91.708 43.9932V42.5967H94.1143V43.9932ZM94.6191 43.9932C94.6191 44.9743 94.8949 45.9303 95.4463 46.8613C96.0049 47.7923 96.8105 48.6016 97.8633 49.2891C98.9232 49.9694 100.162 50.4349 101.58 50.6855L100.377 52.9629C98.7441 52.6335 97.3118 52.0355 96.0801 51.1689C94.8555 50.3024 93.9137 49.2497 93.2549 48.0107C92.596 46.7718 92.2666 45.4326 92.2666 43.9932V42.5967H94.6191V43.9932ZM102.225 58.5811H84.3496V56.3359H102.225V58.5811ZM104.811 50.0088C106.351 50.0088 107.626 49.9801 108.636 49.9229C109.652 49.8584 110.673 49.7402 111.697 49.5684L111.966 51.7383C110.899 51.9245 109.857 52.0498 108.84 52.1143C107.83 52.1715 106.487 52.1966 104.811 52.1895H103.49V50.0088H104.811ZM111.214 44.7559H106.111V51.4268H103.49V42.5967H111.214V44.7559ZM111.031 48.4082H105.327V46.2812H111.031V48.4082ZM119.603 52.9521H116.993V41.4473H119.603V52.9521ZM117.777 48.3438H114.576V46.0986H117.777V48.3438ZM115.296 52.7803H112.761V41.7803H115.296V52.7803ZM119.603 60.7617H106.251V53.7041H119.603V60.7617ZM108.979 58.5596H116.886V55.8633H108.979V58.5596ZM139.152 58.6992H121.277V56.4434H139.152V58.6992ZM137.659 45.3359H122.663V43.1338H137.659V45.3359ZM137.573 53.4248H122.759V51.2549H137.573V53.4248ZM128.109 51.4697H125.37V45.1211H128.109V51.4697ZM134.909 51.4697H132.213V45.1211H134.909V51.4697ZM157.594 52.2217H139.719V50.1807H157.594V52.2217ZM155.467 57.8076H144.499V59.5264H141.76V56.0781H152.749V55.1006H141.749V53.1885H155.467V57.8076ZM156.026 60.7939H141.76V58.9248H156.026V60.7939ZM155.435 46.3672H144.671V48H141.943V44.627H152.685V43.6387H141.911V41.7695H155.435V46.3672ZM155.768 49.2676H141.943V47.4199H155.768V49.2676ZM175.003 44.8633H163.412V42.876H175.003V44.8633ZM169.213 45.3145C170.173 45.3145 171.021 45.4362 171.759 45.6797C172.496 45.916 173.069 46.2598 173.478 46.7109C173.886 47.1549 174.09 47.6777 174.09 48.2793C174.09 48.8665 173.886 49.3786 173.478 49.8154C173.069 50.2523 172.496 50.5889 171.759 50.8252C171.021 51.0615 170.173 51.1797 169.213 51.1797C168.232 51.1797 167.369 51.0615 166.624 50.8252C165.879 50.5889 165.306 50.2523 164.905 49.8154C164.504 49.3786 164.304 48.8665 164.304 48.2793C164.304 47.6777 164.504 47.1549 164.905 46.7109C165.306 46.2598 165.879 45.916 166.624 45.6797C167.369 45.4362 168.232 45.3145 169.213 45.3145ZM169.213 47.1406C168.74 47.1335 168.336 47.1729 167.999 47.2588C167.662 47.3447 167.401 47.4736 167.215 47.6455C167.029 47.8102 166.936 48.0215 166.936 48.2793C166.936 48.5085 167.029 48.7054 167.215 48.8701C167.401 49.0277 167.662 49.1458 167.999 49.2246C168.343 49.3034 168.747 49.3428 169.213 49.3428C169.671 49.3428 170.065 49.3034 170.395 49.2246C170.731 49.1458 170.993 49.0277 171.179 48.8701C171.365 48.7054 171.458 48.5085 171.458 48.2793C171.458 48.0215 171.365 47.8102 171.179 47.6455C170.993 47.4736 170.731 47.3447 170.395 47.2588C170.065 47.1729 169.671 47.1335 169.213 47.1406ZM170.556 43.9072H167.816V41.2969H170.556V43.9072ZM170.556 52.9092H167.816V50.1807H170.556V52.9092ZM179.16 54.6709H176.389V41.458H179.16V54.6709ZM179.16 60.9766H176.389V57.5391H165.571V55.4336H179.16V60.9766ZM162.832 52.1895C165.109 52.1966 167.279 52.1644 169.342 52.0928C171.411 52.014 173.356 51.86 175.175 51.6309L175.368 53.4785C173.521 53.8008 171.59 54.0156 169.578 54.123C167.566 54.2233 165.435 54.2734 163.187 54.2734L162.832 52.1895ZM199.074 52.8662H181.21V50.6641H199.074V52.8662ZM196.915 61.0088H194.219V56.7227H183.176V54.5312H196.915V61.0088ZM197.119 49.0957H183.369V46.915H197.119V49.0957ZM196.926 44.2402H186.097V48.0537H183.369V42.0918H196.926V44.2402ZM216.463 53.4893H213.853V41.4473H216.463V53.4893ZM214.551 48.6768H211.35V46.4639H214.551V48.6768ZM212.328 53.2744H209.782V41.7051H212.328V53.2744ZM209.159 45.4756H199.566V43.2949H209.159V45.4756ZM204.389 46.0879C205.213 46.0879 205.947 46.2311 206.591 46.5176C207.243 46.7969 207.752 47.1943 208.117 47.71C208.482 48.2256 208.665 48.82 208.665 49.4932C208.665 50.1592 208.482 50.75 208.117 51.2656C207.752 51.7812 207.243 52.1859 206.591 52.4795C205.947 52.766 205.213 52.9092 204.389 52.9092C203.587 52.9092 202.864 52.766 202.219 52.4795C201.575 52.1859 201.07 51.7812 200.705 51.2656C200.339 50.75 200.157 50.1592 200.157 49.4932C200.157 48.8271 200.339 48.2363 200.705 47.7207C201.07 47.1979 201.571 46.7969 202.209 46.5176C202.853 46.2311 203.58 46.0879 204.389 46.0879ZM204.389 48.043C204.031 48.043 203.716 48.1003 203.444 48.2148C203.179 48.3294 202.971 48.4941 202.821 48.709C202.678 48.9238 202.606 49.1852 202.606 49.4932C202.606 49.7939 202.681 50.0553 202.832 50.2773C202.982 50.4922 203.19 50.6569 203.455 50.7715C203.72 50.8861 204.031 50.9434 204.389 50.9434C204.747 50.9434 205.062 50.8861 205.335 50.7715C205.607 50.6569 205.818 50.4922 205.968 50.2773C206.119 50.0553 206.194 49.7939 206.194 49.4932C206.194 49.1852 206.119 48.9238 205.968 48.709C205.818 48.4941 205.607 48.3294 205.335 48.2148C205.062 48.1003 204.747 48.043 204.389 48.043ZM205.743 44.8418H203.004V41.5332H205.743V44.8418ZM206.516 54.4775C206.516 55.4229 206.351 56.3073 206.022 57.1309C205.7 57.9544 205.206 58.6813 204.54 59.3115C203.874 59.9489 203.043 60.4251 202.047 60.7402L200.748 58.6992C201.564 58.4629 202.248 58.1263 202.799 57.6895C203.358 57.2454 203.77 56.7477 204.035 56.1963C204.307 55.6449 204.443 55.0719 204.443 54.4775V54.0908H206.516V54.4775ZM207.161 54.4775C207.161 55.0863 207.272 55.6735 207.494 56.2393C207.723 56.805 208.085 57.3206 208.579 57.7861C209.073 58.2516 209.699 58.6276 210.459 58.9141L209.352 60.9336C208.385 60.5898 207.587 60.085 206.957 59.4189C206.326 58.7601 205.868 58.0081 205.582 57.1631C205.295 56.318 205.152 55.4229 205.152 54.4775V54.0908H207.161V54.4775ZM213.563 54.4775C213.563 55.3584 213.413 56.2249 213.112 57.0771C212.818 57.9294 212.356 58.6956 211.726 59.376C211.103 60.0635 210.312 60.5827 209.352 60.9336L208.246 58.9141C208.99 58.6061 209.61 58.2087 210.104 57.7217C210.605 57.2347 210.974 56.7119 211.211 56.1533C211.454 55.5876 211.576 55.029 211.576 54.4775V54.0908H213.563V54.4775ZM214.304 54.4775C214.304 55.1006 214.433 55.695 214.691 56.2607C214.956 56.8193 215.361 57.3135 215.905 57.7432C216.456 58.1729 217.147 58.4915 217.978 58.6992L216.721 60.7402C215.719 60.4395 214.884 59.9775 214.218 59.3545C213.552 58.7386 213.058 58.0189 212.736 57.1953C212.414 56.3646 212.253 55.4587 212.253 54.4775V54.0908H214.304V54.4775ZM223.519 42.79C224.493 42.79 225.363 43.0765 226.129 43.6494C226.896 44.2223 227.494 45.0352 227.923 46.0879C228.36 47.1406 228.579 48.3652 228.579 49.7617C228.579 51.1654 228.36 52.3936 227.923 53.4463C227.494 54.499 226.896 55.3118 226.129 55.8848C225.363 56.4505 224.493 56.7334 223.519 56.7334C222.538 56.7334 221.661 56.4505 220.887 55.8848C220.121 55.319 219.519 54.5098 219.082 53.457C218.646 52.3971 218.427 51.1654 218.427 49.7617C218.427 48.3652 218.646 47.1406 219.082 46.0879C219.519 45.0352 220.121 44.2223 220.887 43.6494C221.661 43.0765 222.538 42.79 223.519 42.79ZM223.519 45.2715C223.032 45.2643 222.599 45.4362 222.219 45.7871C221.847 46.138 221.56 46.6501 221.36 47.3232C221.166 47.9964 221.07 48.8092 221.07 49.7617C221.07 50.7142 221.166 51.527 221.36 52.2002C221.56 52.8734 221.847 53.3854 222.219 53.7363C222.599 54.0801 223.032 54.252 223.519 54.252C224.013 54.252 224.446 54.0801 224.819 53.7363C225.191 53.3854 225.478 52.8734 225.678 52.2002C225.879 51.527 225.979 50.7142 225.979 49.7617C225.979 48.8021 225.875 47.9857 225.667 47.3125C225.467 46.6393 225.184 46.1309 224.819 45.7871C224.454 45.4362 224.02 45.2643 223.519 45.2715ZM234.626 61.0303H231.909V41.4043H234.626V61.0303ZM233.079 50.6855H227.762V48.4834H233.079V50.6855ZM243.304 56.8623H240.586V51.373H243.304V56.8623ZM250.501 56.8623H247.74V51.373H250.501V56.8623ZM254.476 58.6885H236.601V56.4434H254.476V58.6885ZM245.506 42.3711C246.917 42.3711 248.177 42.5895 249.287 43.0264C250.404 43.4632 251.278 44.0791 251.908 44.874C252.546 45.6689 252.864 46.582 252.864 47.6133C252.864 48.6517 252.549 49.5684 251.919 50.3633C251.289 51.151 250.415 51.7633 249.298 52.2002C248.188 52.6299 246.924 52.8483 245.506 52.8555C244.095 52.8483 242.831 52.6299 241.714 52.2002C240.604 51.7633 239.734 51.151 239.104 50.3633C238.474 49.5684 238.158 48.6517 238.158 47.6133C238.158 46.582 238.474 45.6689 239.104 44.874C239.734 44.0791 240.608 43.4632 241.725 43.0264C242.842 42.5895 244.102 42.3711 245.506 42.3711ZM245.506 44.541C244.575 44.5339 243.762 44.652 243.068 44.8955C242.373 45.139 241.832 45.4935 241.446 45.959C241.059 46.4173 240.865 46.9688 240.865 47.6133C240.865 48.2507 241.059 48.8057 241.446 49.2783C241.832 49.7438 242.373 50.1055 243.068 50.3633C243.769 50.6139 244.582 50.7393 245.506 50.7393C246.423 50.7393 247.232 50.6139 247.934 50.3633C248.636 50.1055 249.18 49.7438 249.567 49.2783C249.96 48.8057 250.157 48.2507 250.157 47.6133C250.157 46.9688 249.964 46.4173 249.577 45.959C249.191 45.5007 248.646 45.1497 247.945 44.9062C247.25 44.6556 246.437 44.5339 245.506 44.541ZM259.211 54.3486H256.472L256.182 43.4453H259.512L259.211 54.3486ZM257.847 59.1934C257.524 59.1934 257.224 59.111 256.944 58.9463C256.665 58.7744 256.443 58.5524 256.278 58.2803C256.121 58.001 256.042 57.7002 256.042 57.3779C256.042 57.0628 256.121 56.7692 256.278 56.4971C256.443 56.2178 256.665 55.9993 256.944 55.8418C257.224 55.6842 257.524 55.6055 257.847 55.6055C258.162 55.6055 258.455 55.6842 258.728 55.8418C259.007 55.9993 259.229 56.2178 259.394 56.4971C259.565 56.7692 259.651 57.0628 259.651 57.3779C259.651 57.7002 259.565 58.001 259.394 58.2803C259.229 58.5524 259.007 58.7744 258.728 58.9463C258.455 59.111 258.162 59.1934 257.847 59.1934Z" fill="#5C4795"/>
<path opacity="0.6" d="M172.911 264.986C215.665 264.986 250.323 230.328 250.323 187.575C250.323 144.822 215.665 110.164 172.911 110.164C130.158 110.164 95.5 144.822 95.5 187.575C95.5 230.328 130.158 264.986 172.911 264.986Z" fill="#DFD7EB"/>
<path d="M128.161 129.238C139.522 120.524 153.543 115.026 168.923 114.191C171.667 114.042 174.386 114.046 177.071 114.191" stroke="#7F72B3" stroke-width="3.64364" stroke-miterlimit="10"/>
<path d="M99.9175 197.202C99.6831 195.387 99.5126 193.546 99.4146 191.688C98.3961 172.903 104.511 155.379 115.4 141.755" stroke="#7F72B3" stroke-width="3.64364" stroke-miterlimit="10"/>
<path d="M110.945 227.45C108 222.869 105.546 217.934 103.662 212.714" stroke="#7F72B3" stroke-width="3.64364" stroke-miterlimit="10"/>
<path d="M242.358 212.174C232.752 239.392 207.524 259.533 176.908 261.199C161.639 262.03 147.205 258.143 135.021 250.813" stroke="#7F72B3" stroke-width="3.64364" stroke-miterlimit="10"/>
<path d="M244.41 208.811C244.291 209.207 243.106 212.761 242.982 213.157" stroke="#7F72B3" stroke-width="1.79412" stroke-miterlimit="10"/>
<path d="M197.055 118.133C224.444 127.649 244.75 152.958 246.421 183.701C246.889 192.369 245.841 200.769 243.506 208.64" stroke="#7F72B3" stroke-width="3.64364" stroke-miterlimit="10"/>
<path d="M115.44 141.793C98.2443 163.322 93.9018 193.673 106.797 220.078C108.05 222.643 109.435 225.107 110.935 227.459" stroke="#7F72B3" stroke-width="3.64364" stroke-miterlimit="10"/>
<path d="M183.842 114.881C186.352 115.256 188.824 115.759 191.253 116.381" stroke="#7F72B3" stroke-width="3.64364" stroke-miterlimit="10"/>
<path d="M106.408 193.618C106.34 192.86 106.289 192.101 106.247 191.338C105.121 170.631 113.559 151.62 127.708 138.593" stroke="#7F72B3" stroke-width="2.04129" stroke-miterlimit="10"/>
<path d="M156.135 252.347C153.365 251.631 150.663 250.736 148.038 249.683" stroke="#7F72B3" stroke-width="2.04129" stroke-miterlimit="10"/>
<path d="M223.488 231.248C212.046 244.544 195.409 253.34 176.509 254.367C175.639 254.413 174.774 254.443 173.909 254.456" stroke="#7F72B3" stroke-width="2.04129" stroke-miterlimit="10"/>
<path d="M236.577 207.771C234.523 214.291 231.488 220.393 227.645 225.903" stroke="#7F72B3" stroke-width="2.04129" stroke-miterlimit="10"/>
<path d="M106.159 188.499C106.185 191.627 106.428 194.742 106.884 197.823" stroke="#7F72B3" stroke-width="2.04129" stroke-miterlimit="10"/>
<path d="M184.227 121.926C214.249 127.069 237.82 152.4 239.542 184.098C239.699 186.962 239.67 189.795 239.469 192.583" stroke="#7F72B3" stroke-width="2.04129" stroke-miterlimit="10"/>
<path d="M133.398 133.895C143.503 126.468 155.814 121.797 169.272 121.068C171.872 120.928 174.446 120.936 176.981 121.089" stroke="#7F72B3" stroke-width="2.04129" stroke-miterlimit="10"/>
<path d="M152.835 221.701C145.066 218.194 136.85 209.33 138.218 187.285C138.218 187.285 124.159 150.746 161.993 135.511C199.827 120.271 215.872 155.958 215.872 155.958C215.872 155.958 243.346 180.219 222.865 202.835L219.336 205.017" stroke="#5C4996" stroke-width="3.57119" stroke-linecap="round" stroke-linejoin="round"/>
<path d="M166.285 223.73C166.285 223.73 165.744 223.846 163.945 224.097" stroke="#5C4996" stroke-width="3.57119" stroke-miterlimit="10" stroke-linecap="round"/>
<path d="M164.074 223.488C164.074 223.488 162.97 223.505 162.066 223.437" stroke="#5C4996" stroke-width="2.31829" stroke-miterlimit="10" stroke-linecap="round"/>
<path d="M156.246 222C156.246 222 154.081 221.416 153.207 221.165" stroke="#5C4996" stroke-width="2.31829" stroke-miterlimit="10" stroke-linecap="round"/>
<path d="M193.968 217.479C188.535 219.52 182.91 221.063 177.165 222.086" stroke="#5C4996" stroke-width="3.57119" stroke-miterlimit="10"/>
<path d="M140.719 152.107L133.001 144.031L126.233 151.007C125.999 151.246 125.726 151.446 125.42 151.578C124.371 152.03 121.951 152.759 121.188 150.308C120.924 149.456 121.175 148.518 121.767 147.849L129.012 139.71L123.664 134.621L117.838 140.357C117.523 140.728 117.148 141.044 116.722 141.282C115.23 142.126 112.622 142.258 112.396 139.586C112.337 138.904 112.605 138.231 113.035 137.698L119.79 130.36L113.453 124.125C112.554 123.239 112.042 121.965 112.29 120.724C112.554 119.395 113.547 118.087 116.59 118.572C117.399 118.7 118.145 119.114 118.725 119.693L145.922 147.21" stroke="#5C4996" stroke-width="3.57119" stroke-miterlimit="10"/>
<path d="M183.978 132.861L183.931 121.691L193.643 122.019C193.98 122.032 194.312 121.985 194.627 121.866C195.693 121.461 197.947 120.306 196.792 118.014C196.392 117.217 195.561 116.714 194.67 116.646L183.807 115.815L184.127 108.438L192.305 108.527C192.791 108.574 193.276 108.54 193.749 108.421C195.407 107.995 197.376 106.277 195.688 104.198C195.258 103.665 194.597 103.367 193.92 103.281L183.965 102.685L184.203 93.7951C184.238 92.5294 183.722 91.2637 182.682 90.5392C181.57 89.7636 179.95 89.5122 178.092 91.9711C177.598 92.6274 177.347 93.4414 177.334 94.2596L176.844 132.946" stroke="#5C4996" stroke-width="3.57119" stroke-miterlimit="10"/>
<path d="M165.641 152.763L163.05 146.72C163.05 146.72 163.041 146.707 163.037 146.703L148.897 136.675C148.859 136.65 148.812 136.692 148.837 136.731L158.23 152.371C158.23 152.371 158.251 152.392 158.264 152.392L165.602 152.822C165.632 152.822 165.658 152.792 165.645 152.763H165.641Z" fill="#5C4996" stroke="#5C4996" stroke-width="3.57119" stroke-linejoin="round"/>
<path d="M167.06 145.334L169.779 151.33C169.792 151.355 169.826 151.364 169.847 151.343L174.79 146.536C174.79 146.536 174.807 146.51 174.803 146.497L170.691 128.577C170.682 128.535 170.618 128.535 170.61 128.577L167.056 145.308C167.056 145.308 167.056 145.325 167.056 145.334H167.06Z" fill="#5C4996" stroke="#5C4996" stroke-width="3.57119" stroke-linejoin="round"/>
<path d="M150.66 171.002L145.618 161.784C145.618 161.784 145.61 161.776 145.601 161.776L119.495 158.315C119.495 158.315 119.465 158.341 119.478 158.35L140.513 174.382C140.513 174.382 140.526 174.386 140.53 174.382L150.643 171.028C150.643 171.028 150.66 171.011 150.655 170.998L150.66 171.002Z" fill="#5C4996" stroke="#5C4996" stroke-width="3.57119" stroke-linejoin="round"/>
<path d="M190.693 154.855L187.928 144.721C187.928 144.721 187.928 144.708 187.928 144.704L204.322 124.099C204.322 124.099 204.36 124.095 204.356 124.117L200.333 150.257C200.333 150.257 200.329 150.27 200.32 150.274L190.711 154.877C190.711 154.877 190.685 154.877 190.681 154.864L190.693 154.855Z" fill="#5C4996" stroke="#5C4996" stroke-width="3.57119" stroke-linejoin="round"/>
<path d="M152.719 193.562L147.413 187.23C147.413 187.23 147.401 187.221 147.396 187.221L128.718 189.19C128.718 189.19 128.692 189.22 128.714 189.228L145.986 196.827C145.986 196.827 145.998 196.827 146.003 196.827L152.719 193.592C152.719 193.592 152.736 193.571 152.727 193.562H152.719Z" fill="#5C4996" stroke="#5C4996" stroke-width="3.57119" stroke-linejoin="round"/>
<path d="M154.215 198.302L149.489 200.206C149.489 200.206 149.471 200.215 149.467 200.224L144.183 209.028C144.162 209.066 144.2 209.109 144.238 209.088L153.793 204.055C153.793 204.055 153.814 204.033 153.814 204.021L154.27 198.34C154.27 198.31 154.24 198.285 154.21 198.297L154.215 198.302Z" fill="#5C4996" stroke="#5C4996" stroke-width="3.57119" stroke-linejoin="round"/>
<path d="M207.42 171.437L206.849 163.195C206.849 163.195 206.849 163.182 206.857 163.178L221.675 151.633C221.675 151.633 221.713 151.638 221.704 151.659L214.541 169.114C214.541 169.114 214.532 169.123 214.528 169.127L207.45 171.458C207.45 171.458 207.424 171.454 207.424 171.441L207.42 171.437Z" fill="#5C4996" stroke="#5C4996" stroke-width="3.57119" stroke-linejoin="round"/>
<path d="M209.682 176.089L214.408 174.185C214.408 174.185 214.425 174.185 214.434 174.185L224.351 176.861C224.393 176.874 224.393 176.929 224.351 176.942L213.978 179.946C213.978 179.946 213.948 179.946 213.94 179.938L209.669 176.166C209.644 176.145 209.652 176.107 209.682 176.094V176.089Z" fill="#5C4996" stroke="#5C4996" stroke-width="3.57119" stroke-linejoin="round"/>
<path d="M153.745 177.94C153.745 177.94 165.179 176.249 169.692 179.594C169.692 179.594 163.248 181.158 157.892 188.215" stroke="#5C4996" stroke-width="3.57119" stroke-miterlimit="10" stroke-linecap="round"/>
<path d="M195.713 160.834C195.713 160.834 186.308 167.55 185.379 173.09C185.379 173.09 191.106 169.745 199.855 171.109" stroke="#5C4996" stroke-width="3.57119" stroke-miterlimit="10" stroke-linecap="round"/>
<path d="M175.947 196.022C175.947 196.022 183.593 192.451 182.178 185.577C182.178 185.577 187.786 191.735 194.562 188.513" stroke="#5C4996" stroke-width="3.57119" stroke-linecap="round" stroke-linejoin="round"/>
<path d="M113.913 220.598C113.606 219.341 112.349 216.971 107.691 213.664C100.51 208.567 102.211 201.945 102.211 201.945C102.211 201.945 104.026 195.915 109.004 196.597C112.588 197.087 115.737 200.543 117.22 202.444C117.761 203.138 118.192 203.91 118.503 204.736C119.231 206.671 120.928 210.805 122.824 212.987" stroke="#5C4996" stroke-width="3.05981" stroke-miterlimit="10"/>
<path d="M149.856 240.222C149.093 241.897 148.002 243.508 146.545 245.012C138.789 253.045 126.123 252.393 117.66 244.22C109.196 236.046 108.527 224.045 116.283 216.012C124.04 207.979 134.877 209.646 143.336 217.819C145.394 219.809 147.103 221.962 148.394 224.203" stroke="#5C4996" stroke-width="3.57119" stroke-miterlimit="10"/>
<path d="M129.97 232.062L145.017 216.46" stroke="#5C4996" stroke-width="3.57119" stroke-miterlimit="10" stroke-linecap="round"/>
<path d="M156.135 252.347L155.057 249.394L163.781 246.718L166.231 253.43L186.282 246.108L187.518 249.488L158.905 259.937L156.131 252.343M170.757 239.524C165.707 242.337 152.577 248.052 145.776 250.536L144.544 247.157C147.067 246.236 150.412 244.911 153.864 243.449L152.73 240.338C147.97 241.003 144.386 239.298 142.89 235.199C140.998 230.017 144.088 225.619 150.804 223.168C157.516 220.718 162.715 222.086 164.607 227.268C166.103 231.368 164.463 234.981 160.393 237.538L161.347 240.151C164.629 238.646 167.531 237.227 169.355 236.205L170.77 239.52L170.757 239.524ZM150.987 232.241C152.189 235.531 153.689 236.567 155.445 235.923C157.201 235.28 157.682 233.524 156.481 230.234C155.296 226.991 153.779 225.909 152.023 226.552C150.267 227.196 149.803 228.998 150.987 232.241ZM177.567 225.039L183.605 222.836L184.837 226.215L178.798 228.419L183.98 242.61L174.972 245.9L163.043 213.235L172.219 210.396L177.567 225.039Z" stroke="#5C4895" stroke-width="2.395" stroke-miterlimit="10"/>
<path d="M223.403 215.042L224.622 218.374L197.271 228.359L193.176 217.138L210.93 210.657L209.336 206.284L191.582 212.766L190.363 209.434L216.674 199.824L220.706 210.861L202.952 217.343L204.614 221.894L223.403 215.033V215.042ZM223.48 227.422L233.934 223.603L235.169 226.983L193.717 242.12L192.486 238.74L202.982 234.909L200.894 229.186L208.778 226.305L210.866 232.028L215.596 230.302L213.508 224.579L221.392 221.698L223.48 227.422Z" stroke="#5C4895" stroke-width="2.395" stroke-miterlimit="10"/>
<path d="M229.323 194.19L239.057 190.636L243.557 211.769L239.5 213.252L229.323 194.194V194.19ZM240.51 221.613C239.623 219.18 240.612 217.134 242.952 216.278C245.249 215.438 247.324 216.367 248.211 218.8C249.101 221.234 248.112 223.279 245.811 224.119C243.467 224.975 241.392 224.046 240.506 221.613H240.51Z" stroke="#5C4895" stroke-width="2.395" stroke-miterlimit="10"/>
<path d="M146.701 271.702L143.509 266.959C143.224 266.533 142.699 266.341 142.205 266.482L136.708 268.05C135.608 268.365 134.752 267.087 135.455 266.188L138.979 261.688C139.294 261.287 139.316 260.724 139.03 260.303L135.838 255.559C135.199 254.609 136.149 253.399 137.223 253.795L142.593 255.76C143.074 255.934 143.611 255.781 143.927 255.38L147.451 250.88C148.154 249.981 149.599 250.509 149.561 251.652L149.352 257.366C149.335 257.878 149.646 258.342 150.127 258.517L155.497 260.481C156.571 260.874 156.515 262.412 155.416 262.723L149.918 264.291C149.428 264.432 149.083 264.871 149.062 265.382L148.853 271.097C148.81 272.239 147.332 272.661 146.697 271.711L146.701 271.702Z" fill="#5C4996"/>
<path d="M175.52 275.299L171.071 271.711C170.674 271.391 170.112 271.361 169.686 271.643L164.895 274.766C163.937 275.389 162.743 274.425 163.148 273.356L165.185 268.016C165.369 267.539 165.224 266.998 164.823 266.678L160.374 263.09C159.483 262.374 160.033 260.938 161.175 260.993L166.886 261.283C167.397 261.308 167.866 261.001 168.049 260.524L170.086 255.184C170.495 254.115 172.029 254.196 172.328 255.3L173.819 260.818C173.951 261.313 174.39 261.662 174.897 261.688L180.608 261.977C181.75 262.037 182.151 263.52 181.192 264.142L176.402 267.266C175.976 267.547 175.775 268.067 175.907 268.562L177.399 274.08C177.697 275.184 176.41 276.024 175.52 275.308V275.299Z" fill="#5C4996"/>
<path d="M191.206 272.575L191.657 266.878C191.7 266.366 191.406 265.889 190.933 265.693L185.653 263.503C184.596 263.064 184.719 261.534 185.832 261.265L191.393 259.936C191.892 259.816 192.254 259.39 192.296 258.883L192.748 253.185C192.838 252.047 194.334 251.69 194.93 252.665L197.913 257.541C198.182 257.975 198.697 258.193 199.196 258.073L204.757 256.744C205.87 256.48 206.671 257.788 205.929 258.657L202.213 263C201.881 263.388 201.838 263.946 202.102 264.38L205.085 269.256C205.682 270.232 204.681 271.399 203.628 270.96L198.348 268.77C197.875 268.574 197.329 268.706 197.001 269.094L193.285 273.436C192.544 274.306 191.12 273.713 191.214 272.575H191.206Z" fill="#5C4996"/>
<path d="M217.773 263.724L216.205 258.226C216.064 257.736 215.625 257.391 215.114 257.37L209.399 257.161C208.257 257.118 207.835 255.64 208.785 255.005L213.529 251.813C213.955 251.527 214.147 251.003 214.006 250.509L212.438 245.011C212.122 243.912 213.401 243.055 214.3 243.758L218.8 247.283C219.201 247.598 219.763 247.619 220.185 247.334L224.928 244.142C225.879 243.503 227.089 244.453 226.693 245.527L224.728 250.897C224.553 251.378 224.707 251.915 225.107 252.23L229.607 255.755C230.507 256.458 229.978 257.903 228.836 257.864L223.121 257.655C222.61 257.638 222.145 257.949 221.971 258.431L220.006 263.801C219.614 264.875 218.076 264.819 217.765 263.72L217.773 263.724Z" fill="#5C4996"/>
<path d="M240.093 245.348L236.568 240.848C236.253 240.447 235.716 240.294 235.234 240.469L229.865 242.429C228.791 242.821 227.845 241.611 228.48 240.66L231.672 235.917C231.957 235.495 231.936 234.933 231.621 234.532L228.096 230.032C227.393 229.133 228.25 227.859 229.349 228.17L234.847 229.738C235.337 229.879 235.865 229.687 236.151 229.261L239.343 224.518C239.982 223.571 241.461 223.993 241.499 225.135L241.704 230.85C241.721 231.362 242.066 231.801 242.56 231.941L248.058 233.509C249.157 233.825 249.212 235.359 248.138 235.751L242.769 237.711C242.287 237.886 241.976 238.351 241.993 238.862L242.198 244.577C242.24 245.719 240.796 246.247 240.088 245.348H240.093Z" fill="#5C4996"/>
</svg>
