<svg width="345" height="429" fill="none" xmlns="http://www.w3.org/2000/svg"><rect width="345" height="429" rx="10" fill="#C7C2DE"/><path d="M94.114 43.993a8.29 8.29 0 0 1-.999 3.985c-.666 1.24-1.615 2.3-2.846 3.18-1.225.874-2.66 1.475-4.308 1.805l-1.171-2.278c1.404-.264 2.628-.74 3.674-1.428 1.053-.688 1.855-1.493 2.406-2.417.559-.924.838-1.873.838-2.847v-1.396h2.406v1.396Zm.505 0c0 .981.276 1.937.827 2.868.559.931 1.365 1.74 2.417 2.428 1.06.68 2.299 1.146 3.717 1.396l-1.203 2.278c-1.633-.33-3.065-.928-4.297-1.794-1.224-.867-2.166-1.92-2.825-3.158a8.425 8.425 0 0 1-.988-4.018v-1.396h2.352v1.396Zm7.606 14.588H84.35v-2.245h17.875v2.245Zm2.586-8.572c1.54 0 2.815-.029 3.825-.086a29.973 29.973 0 0 0 3.061-.355l.269 2.17a28.784 28.784 0 0 1-3.126.376c-1.01.058-2.353.083-4.029.076h-1.321v-2.181h1.321Zm6.403-5.253h-5.103v6.67h-2.621v-8.83h7.724v2.16Zm-.183 3.652h-5.704v-2.127h5.704v2.127Zm8.572 4.544h-2.61V41.447h2.61v11.505Zm-1.826-4.608h-3.201v-2.245h3.201v2.245Zm-2.481 4.436h-2.535v-11h2.535v11Zm4.307 7.982h-13.352v-7.058h13.352v7.058Zm-10.624-2.202h7.907v-2.697h-7.907v2.697Zm30.173.14h-17.875v-2.257h17.875V58.7Zm-1.493-13.364h-14.996v-2.202h14.996v2.202Zm-.086 8.089h-14.814v-2.17h14.814v2.17Zm-9.464-1.955h-2.739V45.12h2.739v6.349Zm6.8 0h-2.696V45.12h2.696v6.349Zm22.685.752h-17.875V50.18h17.875v2.04Zm-2.127 5.586h-10.968v1.718h-2.739v-3.448h10.989v-.977h-11v-1.913h13.718v4.62Zm.559 2.986H141.76v-1.87h14.266v1.87Zm-.591-14.427h-10.764V48h-2.728v-3.373h10.742v-.988h-10.774v-1.87h13.524v4.598Zm.333 2.9h-13.825V47.42h13.825v1.848Zm19.235-4.404h-11.591v-1.987h11.591v1.987Zm-5.79.452c.96 0 1.808.121 2.546.365.737.236 1.31.58 1.719 1.03.408.445.612.968.612 1.57 0 .587-.204 1.099-.612 1.535-.409.437-.982.774-1.719 1.01-.738.236-1.586.355-2.546.355-.981 0-1.844-.118-2.589-.355-.745-.236-1.318-.573-1.719-1.01a2.198 2.198 0 0 1-.601-1.536c0-.601.2-1.124.601-1.568.401-.451.974-.795 1.719-1.031.745-.244 1.608-.365 2.589-.365Zm0 1.826a4.682 4.682 0 0 0-1.214.118c-.337.086-.598.215-.784.386a.808.808 0 0 0-.279.634c0 .23.093.426.279.591.186.158.447.276.784.355.344.078.748.118 1.214.118.458 0 .852-.04 1.182-.118.336-.08.598-.197.784-.355a.763.763 0 0 0 .279-.59.808.808 0 0 0-.279-.635c-.186-.171-.448-.3-.784-.386a4.463 4.463 0 0 0-1.182-.118Zm1.343-3.234h-2.74v-2.61h2.74v2.61Zm0 9.002h-2.74v-2.728h2.74v2.728Zm8.604 1.762h-2.771V41.458h2.771v13.213Zm0 6.306h-2.771v-3.438h-10.818v-2.105h13.589v5.543Zm-16.328-8.787a172.5 172.5 0 0 0 6.51-.097 67.273 67.273 0 0 0 5.833-.462l.193 1.847a48.826 48.826 0 0 1-5.79.645c-2.012.1-4.143.15-6.391.15l-.355-2.084Zm36.242.676H181.21v-2.202h17.864v2.202Zm-2.159 8.143h-2.696v-4.286h-11.043V54.53h13.739v6.478Zm.204-11.913h-13.75v-2.181h13.75v2.18Zm-.193-4.856h-10.829v3.814h-2.728v-5.962h13.557v2.148Zm19.537 9.25h-2.61V41.446h2.61V53.49Zm-1.912-4.813h-3.201v-2.213h3.201v2.213Zm-2.223 4.597h-2.546V41.705h2.546v11.57Zm-3.169-7.798h-9.593v-2.181h9.593v2.18Zm-4.77.612c.824 0 1.558.143 2.202.43.652.279 1.161.676 1.526 1.192.365.516.548 1.11.548 1.783 0 .666-.183 1.257-.548 1.773-.365.515-.874.92-1.526 1.214-.644.286-1.378.43-2.202.43-.802 0-1.525-.144-2.17-.43-.644-.294-1.149-.699-1.514-1.214a2.984 2.984 0 0 1-.548-1.773c0-.666.182-1.257.548-1.772.365-.523.866-.924 1.504-1.203.644-.287 1.371-.43 2.18-.43Zm0 1.955a2.42 2.42 0 0 0-.945.172c-.265.114-.473.28-.623.494a1.383 1.383 0 0 0-.215.784c0 .3.075.562.226.784.15.215.358.38.623.495.265.114.576.171.934.171.358 0 .673-.057.946-.171.272-.115.483-.28.633-.495a1.36 1.36 0 0 0 .226-.784c0-.308-.075-.57-.226-.784a1.422 1.422 0 0 0-.633-.494 2.429 2.429 0 0 0-.946-.172Zm1.354-3.201h-2.739v-3.309h2.739v3.309Zm.773 9.636c0 .945-.165 1.83-.494 2.653a5.967 5.967 0 0 1-1.482 2.18c-.666.638-1.497 1.114-2.493 1.43l-1.299-2.042c.816-.236 1.5-.573 2.051-1.01.559-.444.971-.941 1.236-1.493a3.84 3.84 0 0 0 .408-1.718v-.387h2.073v.386Zm.645 0c0 .608.111 1.195.333 1.761a4.383 4.383 0 0 0 1.085 1.547c.494.466 1.12.842 1.88 1.128l-1.107 2.02c-.967-.344-1.765-.849-2.395-1.515a6.016 6.016 0 0 1-1.375-2.256 8.294 8.294 0 0 1-.43-2.685v-.387h2.009v.386Zm6.402 0c0 .88-.15 1.747-.451 2.6a6.45 6.45 0 0 1-1.386 2.298c-.623.688-1.414 1.207-2.374 1.558l-1.106-2.02c.744-.308 1.364-.705 1.858-1.192.501-.487.87-1.01 1.107-1.569a4.223 4.223 0 0 0 .365-1.675v-.387h1.987v.386Zm.741 0c0 .623.129 1.217.387 1.783.265.558.67 1.052 1.214 1.482.551.43 1.242.748 2.073.956l-1.257 2.041c-1.002-.3-1.837-.763-2.503-1.386a5.774 5.774 0 0 1-1.482-2.159c-.322-.83-.483-1.736-.483-2.718v-.386h2.051v.386Zm9.215-11.688c.974 0 1.844.287 2.61.86.767.572 1.365 1.385 1.794 2.438.437 1.053.656 2.277.656 3.674 0 1.403-.219 2.632-.656 3.684-.429 1.053-1.027 1.866-1.794 2.439a4.281 4.281 0 0 1-2.61.848 4.348 4.348 0 0 1-2.632-.848c-.766-.566-1.368-1.375-1.805-2.428-.436-1.06-.655-2.292-.655-3.695 0-1.397.219-2.621.655-3.674.437-1.053 1.039-1.866 1.805-2.439a4.311 4.311 0 0 1 2.632-.859Zm0 2.482c-.487-.008-.92.164-1.3.515-.372.351-.659.863-.859 1.536-.194.673-.29 1.486-.29 2.439 0 .952.096 1.765.29 2.438.2.673.487 1.185.859 1.536.38.344.813.516 1.3.516.494 0 .927-.172 1.3-.516.372-.35.659-.863.859-1.536.201-.673.301-1.486.301-2.438 0-.96-.104-1.776-.312-2.45-.2-.673-.483-1.181-.848-1.525a1.774 1.774 0 0 0-1.3-.515Zm11.107 15.758h-2.717V41.404h2.717V61.03Zm-1.547-10.345h-5.317v-2.202h5.317v2.203Zm10.225 6.177h-2.718v-5.489h2.718v5.49Zm7.197 0h-2.761v-5.489h2.761v5.49Zm3.975 1.826h-17.875v-2.245h17.875v2.245Zm-8.97-16.317c1.411 0 2.671.218 3.781.655 1.117.437 1.991 1.053 2.621 1.848.638.795.956 1.708.956 2.74 0 1.038-.315 1.954-.945 2.75-.63.787-1.504 1.4-2.621 1.836-1.11.43-2.374.648-3.792.655-1.411-.007-2.675-.225-3.792-.655-1.11-.437-1.98-1.049-2.61-1.837-.63-.795-.946-1.711-.946-2.75 0-1.031.316-1.944.946-2.739.63-.795 1.504-1.41 2.621-1.848 1.117-.437 2.377-.655 3.781-.655Zm0 2.17c-.931-.007-1.744.111-2.438.355-.695.243-1.236.597-1.622 1.063-.387.458-.581 1.01-.581 1.654 0 .638.194 1.193.581 1.665.386.466.927.828 1.622 1.085.701.25 1.514.376 2.438.376.917 0 1.726-.125 2.428-.376.702-.258 1.246-.62 1.633-1.085.393-.472.59-1.027.59-1.665 0-.644-.193-1.196-.58-1.654-.386-.458-.931-.81-1.632-1.053-.695-.25-1.508-.372-2.439-.365Zm13.705 9.808h-2.739l-.29-10.904h3.33l-.301 10.904Zm-1.364 4.844c-.323 0-.623-.082-.903-.247a1.98 1.98 0 0 1-.666-.666 1.812 1.812 0 0 1-.236-.902c0-.315.079-.609.236-.88a1.808 1.808 0 0 1 3.116 0c.171.271.257.565.257.88 0 .322-.086.623-.257.902a1.98 1.98 0 0 1-.666.666 1.674 1.674 0 0 1-.881.247Z" fill="#5C4795"/><path opacity=".6" d="M172.911 264.986c42.754 0 77.412-34.658 77.412-77.411s-34.658-77.411-77.412-77.411c-42.753 0-77.411 34.658-77.411 77.411s34.658 77.411 77.411 77.411Z" fill="#DFD7EB"/><path d="M128.161 129.238c11.361-8.714 25.382-14.212 40.762-15.047a75.325 75.325 0 0 1 8.148 0M99.918 197.202a73.153 73.153 0 0 1-.503-5.514c-1.019-18.785 5.096-36.309 15.985-49.933M110.945 227.45a73.198 73.198 0 0 1-7.283-14.736M242.358 212.174c-9.606 27.218-34.834 47.359-65.45 49.025-15.269.831-29.703-3.056-41.887-10.386" stroke="#7F72B3" stroke-width="3.644" stroke-miterlimit="10"/><path d="M244.41 208.811c-.119.396-1.304 3.95-1.428 4.346" stroke="#7F72B3" stroke-width="1.794" stroke-miterlimit="10"/><path d="M197.055 118.133c27.389 9.516 47.695 34.825 49.366 65.568a73.581 73.581 0 0 1-2.915 24.939M115.44 141.793c-17.196 21.529-21.538 51.88-8.643 78.285a74.733 74.733 0 0 0 4.138 7.381M183.842 114.881c2.51.375 4.982.878 7.411 1.5" stroke="#7F72B3" stroke-width="3.644" stroke-miterlimit="10"/><path d="M106.408 193.618a66.25 66.25 0 0 1-.161-2.28c-1.126-20.707 7.312-39.718 21.461-52.745M156.135 252.347a66.343 66.343 0 0 1-8.097-2.664M223.488 231.248c-11.442 13.296-28.079 22.092-46.979 23.119-.87.046-1.735.076-2.6.089M236.577 207.771a66.776 66.776 0 0 1-8.932 18.132" stroke="#7F72B3" stroke-width="2.041" stroke-miterlimit="10"/><path d="M106.159 188.499c.026 3.128.269 6.243.725 9.324M184.227 121.926c30.022 5.143 53.593 30.474 55.315 62.172a66.984 66.984 0 0 1-.073 8.485M133.398 133.895c10.105-7.427 22.416-12.098 35.874-12.827 2.6-.14 5.174-.132 7.709.021" stroke="#7F72B3" stroke-width="2.041" stroke-miterlimit="10"/><path d="M152.835 221.701c-7.769-3.507-15.985-12.371-14.617-34.416 0 0-14.059-36.539 23.775-51.774 37.834-15.24 53.879 20.447 53.879 20.447s27.474 24.261 6.993 46.877l-3.529 2.182" stroke="#5C4996" stroke-width="3.571" stroke-linecap="round" stroke-linejoin="round"/><path d="M166.285 223.73s-.541.116-2.34.367" stroke="#5C4996" stroke-width="3.571" stroke-miterlimit="10" stroke-linecap="round"/><path d="M164.074 223.488s-1.104.017-2.008-.051M156.246 222s-2.165-.584-3.039-.835" stroke="#5C4996" stroke-width="2.318" stroke-miterlimit="10" stroke-linecap="round"/><path d="M193.968 217.479a95.278 95.278 0 0 1-16.803 4.607M140.719 152.107l-7.718-8.076-6.768 6.976a2.576 2.576 0 0 1-.813.571c-1.049.452-3.469 1.181-4.232-1.27-.264-.852-.013-1.79.579-2.459l7.245-8.139-5.348-5.089-5.826 5.736c-.315.371-.69.687-1.116.925-1.492.844-4.1.976-4.326-1.696-.059-.682.209-1.355.639-1.888l6.755-7.338-6.337-6.235c-.899-.886-1.411-2.16-1.163-3.401.264-1.329 1.257-2.637 4.3-2.152.809.128 1.555.542 2.135 1.121l27.197 27.517M183.978 132.861l-.047-11.17 9.712.328c.337.013.669-.034.984-.153 1.066-.405 3.32-1.56 2.165-3.852-.4-.797-1.231-1.3-2.122-1.368l-10.863-.831.32-7.377 8.178.089c.486.047.971.013 1.444-.106 1.658-.426 3.627-2.144 1.939-4.223-.43-.533-1.091-.831-1.768-.917l-9.955-.596.238-8.89c.035-1.266-.481-2.531-1.521-3.256-1.112-.775-2.732-1.027-4.59 1.432-.494.656-.745 1.47-.758 2.289l-.49 38.686" stroke="#5C4996" stroke-width="3.571" stroke-miterlimit="10"/><path d="m165.641 152.763-2.591-6.043-.013-.017-14.14-10.028c-.038-.025-.085.017-.06.056l9.393 15.64s.021.021.034.021l7.338.43c.03 0 .056-.03.043-.059h-.004ZM167.06 145.334l2.719 5.996c.013.025.047.034.068.013l4.943-4.807s.017-.026.013-.039l-4.112-17.92c-.009-.042-.073-.042-.081 0l-3.554 16.731v.026h.004ZM150.66 171.002l-5.042-9.218s-.008-.008-.017-.008l-26.106-3.461s-.03.026-.017.035l21.035 16.032s.013.004.017 0l10.113-3.354s.017-.017.012-.03l.005.004ZM190.693 154.855l-2.765-10.134v-.017l16.394-20.605s.038-.004.034.018l-4.023 26.14s-.004.013-.013.017l-9.609 4.603s-.026 0-.03-.013l.012-.009ZM152.719 193.562l-5.306-6.332s-.012-.009-.017-.009l-18.678 1.969s-.026.03-.004.038l17.272 7.599h.017l6.716-3.235s.017-.021.008-.03h-.008ZM154.215 198.302l-4.726 1.904s-.018.009-.022.018l-5.284 8.804c-.021.038.017.081.055.06l9.555-5.033s.021-.022.021-.034l.456-5.681c0-.03-.03-.055-.06-.043l.005.005ZM207.42 171.437l-.571-8.242s0-.013.008-.017l14.818-11.545s.038.005.029.026l-7.163 17.455-.013.013-7.078 2.331s-.026-.004-.026-.017l-.004-.004ZM209.682 176.089l4.726-1.904h.026l9.917 2.676a.042.042 0 0 1 0 .081l-10.373 3.004s-.03 0-.038-.008l-4.271-3.772c-.025-.021-.017-.059.013-.072v-.005Z" fill="#5C4996" stroke="#5C4996" stroke-width="3.571" stroke-linejoin="round"/><path d="M153.745 177.94s11.434-1.691 15.947 1.654c0 0-6.444 1.564-11.8 8.621M195.713 160.834s-9.405 6.716-10.334 12.256c0 0 5.727-3.345 14.476-1.981" stroke="#5C4996" stroke-width="3.571" stroke-miterlimit="10" stroke-linecap="round"/><path d="M175.947 196.022s7.646-3.571 6.231-10.445c0 0 5.608 6.158 12.384 2.936" stroke="#5C4996" stroke-width="3.571" stroke-linecap="round" stroke-linejoin="round"/><path d="M113.913 220.598c-.307-1.257-1.564-3.627-6.222-6.934-7.181-5.097-5.48-11.719-5.48-11.719s1.815-6.03 6.793-5.348c3.584.49 6.733 3.946 8.216 5.847a8.723 8.723 0 0 1 1.283 2.292c.728 1.935 2.425 6.069 4.321 8.251" stroke="#5C4996" stroke-width="3.06" stroke-miterlimit="10"/><path d="M149.856 240.222c-.763 1.675-1.854 3.286-3.311 4.79-7.756 8.033-20.422 7.381-28.885-.792-8.464-8.174-9.133-20.175-1.377-28.208 7.757-8.033 18.594-6.366 27.053 1.807 2.058 1.99 3.767 4.143 5.058 6.384" stroke="#5C4996" stroke-width="3.571" stroke-miterlimit="10"/><path d="m129.97 232.062 15.047-15.602" stroke="#5C4996" stroke-width="3.571" stroke-miterlimit="10" stroke-linecap="round"/><path d="m156.135 252.347-1.078-2.953 8.724-2.676 2.45 6.712 20.051-7.322 1.236 3.38-28.613 10.449-2.774-7.594m14.626-12.819c-5.05 2.813-18.18 8.528-24.981 11.012l-1.232-3.379c2.523-.921 5.868-2.246 9.32-3.708l-1.134-3.111c-4.76.665-8.344-1.04-9.84-5.139-1.892-5.182 1.198-9.58 7.914-12.031 6.712-2.45 11.911-1.082 13.803 4.1 1.496 4.1-.144 7.713-4.214 10.27l.954 2.613c3.282-1.505 6.184-2.924 8.008-3.946l1.415 3.315-.013.004Zm-19.77-7.283c1.202 3.29 2.702 4.326 4.458 3.682 1.756-.643 2.237-2.399 1.036-5.689-1.185-3.243-2.702-4.325-4.458-3.682-1.756.644-2.22 2.446-1.036 5.689Zm26.58-7.202 6.038-2.203 1.232 3.379-6.039 2.204 5.182 14.191-9.008 3.29-11.929-32.665 9.176-2.839 5.348 14.643ZM223.403 215.042l1.219 3.332-27.351 9.985-4.095-11.221 17.754-6.481-1.594-4.373-17.754 6.482-1.219-3.332 26.311-9.61 4.032 11.037-17.754 6.482 1.662 4.551 18.789-6.861v.009Zm.077 12.38 10.454-3.819 1.235 3.38-41.452 15.137-1.231-3.38 10.496-3.831-2.088-5.723 7.884-2.881 2.088 5.723 4.73-1.726-2.088-5.723 7.884-2.881 2.088 5.724ZM229.323 194.19l9.734-3.554 4.5 21.133-4.057 1.483-10.177-19.058v-.004Zm11.187 27.423c-.887-2.433.102-4.479 2.442-5.335 2.297-.84 4.372.089 5.259 2.522.89 2.434-.099 4.479-2.4 5.319-2.344.856-4.419-.073-5.305-2.506h.004Z" stroke="#5C4895" stroke-width="2.395" stroke-miterlimit="10"/><path d="m146.701 271.702-3.192-4.743a1.177 1.177 0 0 0-1.304-.477l-5.497 1.568c-1.1.315-1.956-.963-1.253-1.862l3.524-4.5c.315-.401.337-.964.051-1.385l-3.192-4.744c-.639-.95.311-2.16 1.385-1.764l5.37 1.965a1.184 1.184 0 0 0 1.334-.38l3.524-4.5c.703-.899 2.148-.371 2.11.772l-.209 5.714a1.18 1.18 0 0 0 .775 1.151l5.37 1.964c1.074.393 1.018 1.931-.081 2.242l-5.498 1.568c-.49.141-.835.58-.856 1.091l-.209 5.715c-.043 1.142-1.521 1.564-2.156.614l.004-.009ZM175.52 275.299l-4.449-3.588a1.176 1.176 0 0 0-1.385-.068l-4.791 3.123c-.958.623-2.152-.341-1.747-1.41l2.037-5.34a1.17 1.17 0 0 0-.362-1.338l-4.449-3.588c-.891-.716-.341-2.152.801-2.097l5.711.29c.511.025.98-.282 1.163-.759l2.037-5.34c.409-1.069 1.943-.988 2.242.116l1.491 5.518c.132.495.571.844 1.078.87l5.711.289c1.142.06 1.543 1.543.584 2.165l-4.79 3.124a1.186 1.186 0 0 0-.495 1.296l1.492 5.518c.298 1.104-.989 1.944-1.879 1.228v-.009ZM191.206 272.575l.451-5.697a1.176 1.176 0 0 0-.724-1.185l-5.28-2.19c-1.057-.439-.934-1.969.179-2.238l5.561-1.329c.499-.12.861-.546.903-1.053l.452-5.698c.09-1.138 1.586-1.495 2.182-.52l2.983 4.876c.269.434.784.652 1.283.532l5.561-1.329c1.113-.264 1.914 1.044 1.172 1.913L202.213 263a1.18 1.18 0 0 0-.111 1.38l2.983 4.876c.597.976-.404 2.143-1.457 1.704l-5.28-2.19a1.176 1.176 0 0 0-1.347.324l-3.716 4.342c-.741.87-2.165.277-2.071-.861h-.008ZM217.773 263.724l-1.568-5.498a1.185 1.185 0 0 0-1.091-.856l-5.715-.209c-1.142-.043-1.564-1.521-.614-2.156l4.744-3.192c.426-.286.618-.81.477-1.304l-1.568-5.498c-.316-1.099.963-1.956 1.862-1.253l4.5 3.525c.401.315.963.336 1.385.051l4.743-3.192c.951-.639 2.161.311 1.765 1.385l-1.965 5.37a1.182 1.182 0 0 0 .379 1.333l4.5 3.525c.9.703.371 2.148-.771 2.109l-5.715-.209a1.178 1.178 0 0 0-1.15.776l-1.965 5.37c-.392 1.074-1.93 1.018-2.241-.081l.008.004ZM240.093 245.348l-3.525-4.5a1.181 1.181 0 0 0-1.334-.379l-5.369 1.96c-1.074.392-2.02-.818-1.385-1.769l3.192-4.743a1.179 1.179 0 0 0-.051-1.385l-3.525-4.5c-.703-.899.154-2.173 1.253-1.862l5.498 1.568a1.18 1.18 0 0 0 1.304-.477l3.192-4.743c.639-.947 2.118-.525 2.156.617l.205 5.715c.017.512.362.951.856 1.091l5.498 1.568c1.099.316 1.154 1.85.08 2.242l-5.369 1.96a1.18 1.18 0 0 0-.776 1.151l.205 5.715c.042 1.142-1.402 1.67-2.11.771h.005Z" fill="#5C4996"/></svg>