<svg width="305" height="48" fill="none" xmlns="http://www.w3.org/2000/svg"><rect width="305" height="48" rx="10" fill="#5C4795"/><path d="M72.058 21.266a9.58 9.58 0 0 1-.5 3.078 8.583 8.583 0 0 1-1.406 2.633c-.61.765-1.32 1.34-2.133 1.726l-1.008-1.367a5.656 5.656 0 0 0 1.914-1.477 7.141 7.141 0 0 0 1.273-2.164 6.953 6.953 0 0 0 .446-2.43v-1.859h1.414v1.86Zm.351 0c0 .786.146 1.557.438 2.312a6.629 6.629 0 0 0 1.266 2.04 5.562 5.562 0 0 0 1.93 1.366l-.946 1.368a6.074 6.074 0 0 1-2.172-1.633 7.58 7.58 0 0 1-1.406-2.485 9.095 9.095 0 0 1-.485-2.968v-1.86h1.375v1.86Zm3.094-1.18h-7.96v-1.422h7.96v1.422Zm3.328 11.289h-1.758v-14.11h1.758v14.11Zm13.147-6.305h-9.906v-1.383h9.906v1.383Zm1.445 4.649H80.517v-1.43h12.906v1.43Zm-5.632-.938H86.08v-4.468h1.71v4.468Zm4.07-9.07h-8.047v4.61h-1.742v-6h9.789v1.39Zm10.28 4.273h-2.485v-1.398h2.485v1.398Zm3.984 7.391h-1.672v-14.11h1.672v14.11Zm-2.906-.664h-1.649V17.508h1.649V30.71Zm-6.086-12.375c.625 0 1.17.203 1.633.61.463.406.822.989 1.078 1.75.255.76.383 1.653.383 2.679 0 1.02-.128 1.914-.383 2.68-.255.76-.615 1.346-1.078 1.758a2.38 2.38 0 0 1-1.633.617 2.36 2.36 0 0 1-1.617-.617c-.459-.412-.816-.998-1.07-1.758-.25-.766-.376-1.66-.376-2.68 0-1.031.125-1.924.375-2.68.256-.76.615-1.343 1.078-1.75.464-.406 1-.61 1.61-.61Zm0 1.64c-.302 0-.563.13-.781.391-.22.26-.386.646-.5 1.156-.11.506-.165 1.123-.165 1.852 0 .724.055 1.341.165 1.852.114.505.28.888.5 1.148.224.26.484.39.78.39.308 0 .571-.13.79-.39.224-.26.396-.643.516-1.148.12-.51.18-1.128.18-1.852 0-.73-.06-1.346-.18-1.852-.12-.51-.292-.895-.516-1.156-.219-.26-.482-.39-.79-.39Zm21.217 3.258h-3.828v-1.398h3.828v1.398Zm-6.117-2.578c0 1.146-.151 2.237-.453 3.274a8.686 8.686 0 0 1-1.336 2.742c-.589.797-1.295 1.406-2.117 1.828l-1.102-1.414a5.389 5.389 0 0 0 1.938-1.531 7.241 7.241 0 0 0 1.234-2.274 8.3 8.3 0 0 0 .422-2.625v-2.258h1.414v2.258Zm.351 0c0 .896.136 1.753.407 2.57a6.787 6.787 0 0 0 1.203 2.18 5.247 5.247 0 0 0 1.89 1.446l-1.046 1.39a5.894 5.894 0 0 1-2.102-1.75 8.349 8.349 0 0 1-1.305-2.64 11.118 11.118 0 0 1-.445-3.196v-2.258h1.398v2.258Zm6.618 10.758h-1.719V17.266h1.719v14.148Zm9.621-13.523c.709-.006 1.344.117 1.907.367.562.245 1 .594 1.312 1.047.313.448.469.963.469 1.547a2.63 2.63 0 0 1-.469 1.53c-.312.449-.75.8-1.312 1.055-.563.25-1.198.375-1.907.375-.708 0-1.341-.125-1.898-.375-.552-.255-.987-.606-1.305-1.054a2.608 2.608 0 0 1-.476-1.531c0-.584.159-1.1.476-1.547a3.077 3.077 0 0 1 1.305-1.047c.557-.25 1.19-.373 1.898-.367Zm0 1.398a2.519 2.519 0 0 0-1.039.188 1.618 1.618 0 0 0-.703.546c-.166.235-.25.51-.25.829 0 .307.084.578.25.812.172.234.409.414.711.54.302.124.646.187 1.031.187.401 0 .756-.063 1.063-.188.307-.125.547-.305.719-.539.172-.234.258-.505.258-.812 0-.318-.086-.594-.258-.829a1.604 1.604 0 0 0-.719-.546 2.583 2.583 0 0 0-1.063-.188Zm.954 11.672h-1.735v-5.68h1.735v5.68Zm6.234.422h-1.719V17.28h1.719v14.102Zm-11.797-6.602c1.693 0 3.305-.034 4.836-.101a41.616 41.616 0 0 0 4.336-.407l.117 1.282a31.759 31.759 0 0 1-3.914.5 91.364 91.364 0 0 1-4.492.156c-.188.005-.406.008-.656.008l-.227-1.438Zm25.163 6.594h-1.75v-14.11h1.75v14.11Zm-6.664-9.625a8.746 8.746 0 0 1-.485 2.898 7.57 7.57 0 0 1-1.383 2.461 5.864 5.864 0 0 1-2.132 1.61l-.93-1.344a5.49 5.49 0 0 0 1.89-1.375 6.404 6.404 0 0 0 1.649-4.25v-.953h1.391v.953Zm.335 0c0 .73.144 1.45.43 2.164a5.968 5.968 0 0 0 3.172 3.234l-.945 1.336a5.957 5.957 0 0 1-2.141-1.554 7.433 7.433 0 0 1-1.398-2.375 8.137 8.137 0 0 1-.493-2.805v-.953h1.375v.953Zm3.055-.734h-7.883v-1.391h7.883v1.39Zm-3.062-.649h-1.735V17.57h1.735v2.797Zm16.598 5.367h-1.734V23.79h1.734v1.945Zm6.031 1.102h-1.742V17.28h1.742v9.555Zm1.907-4.008h-2.547v-1.43h2.547v1.43Zm-13.227 2.313c1.083 0 2.094-.008 3.031-.024.943-.02 1.925-.062 2.946-.125a48.027 48.027 0 0 0 2.875-.258l.132 1.203a34.39 34.39 0 0 1-4.086.454c-1.401.067-2.971.104-4.71.109l-.188-1.36Zm11.32 6.234h-1.742v-2.578h-7.805v-1.36h9.547v3.938Zm-2.851-11.695h-8.11v-1.274h8.11v1.274Zm-4.063.39c.688 0 1.287.086 1.797.258.516.167.914.409 1.195.727a1.6 1.6 0 0 1 .422 1.11c0 .426-.14.799-.422 1.116-.281.318-.679.565-1.195.742-.51.172-1.109.258-1.797.258-.677 0-1.273-.086-1.789-.258-.51-.177-.909-.424-1.195-.742a1.633 1.633 0 0 1-.422-1.117c0-.427.141-.797.422-1.11.286-.317.685-.56 1.195-.726.516-.172 1.112-.258 1.789-.258Zm0 1.18c-.364-.01-.677.02-.937.094-.255.067-.453.172-.594.312a.675.675 0 0 0-.211.508c0 .198.07.367.211.508.141.14.341.25.602.328.26.073.57.11.929.11.37 0 .685-.037.946-.11.26-.078.458-.188.593-.328a.691.691 0 0 0 .211-.508.675.675 0 0 0-.211-.508c-.135-.14-.333-.244-.593-.312a3.174 3.174 0 0 0-.946-.094Zm.883-2.234h-1.734v-1.86h1.734v1.86Zm20.022 8.468h-1.742V17.281h1.742v10.203Zm.398 3.641h-9.742v-1.422h9.742v1.422Zm-7.992-.867h-1.75v-3.805h1.75v3.805Zm-.101-12.055a4.12 4.12 0 0 1 1.937.453 3.397 3.397 0 0 1 1.867 3.07c0 .688-.166 1.303-.5 1.844a3.397 3.397 0 0 1-1.367 1.258 4.119 4.119 0 0 1-1.937.453c-.714 0-1.36-.15-1.938-.453a3.53 3.53 0 0 1-1.367-1.258c-.333-.541-.5-1.156-.5-1.843 0-.672.167-1.276.5-1.813a3.531 3.531 0 0 1 1.367-1.258c.578-.302 1.224-.453 1.938-.453Zm0 1.524a2.267 2.267 0 0 0-1.086.242 1.804 1.804 0 0 0-.75.703 2.021 2.021 0 0 0-.274 1.055c0 .406.091.765.274 1.078.182.307.432.544.75.71.323.162.685.243 1.086.243.395 0 .752-.08 1.07-.242.318-.167.565-.404.742-.711.182-.313.274-.672.274-1.078a2.03 2.03 0 0 0-.274-1.055 1.755 1.755 0 0 0-.742-.703 2.206 2.206 0 0 0-1.07-.242Zm20.428 11.648h-1.719v-14.11h1.719v14.11Zm2.179-7.047h-2.57v-1.43h2.57v1.43Zm-4.992-3.5h-8.32V19.43h8.32v1.398Zm-4.117.914c.682 0 1.292.143 1.828.43.542.281.966.674 1.274 1.18.307.505.461 1.078.461 1.718a3.27 3.27 0 0 1-.461 1.72 3.169 3.169 0 0 1-1.274 1.179c-.536.281-1.146.422-1.828.422-.677 0-1.286-.141-1.828-.422a3.16 3.16 0 0 1-1.273-1.18 3.303 3.303 0 0 1-.454-1.719c0-.64.151-1.213.454-1.718a3.16 3.16 0 0 1 1.273-1.18c.542-.287 1.151-.43 1.828-.43Zm0 1.43c-.359 0-.685.078-.976.234a1.729 1.729 0 0 0-.68.664c-.162.287-.242.62-.242 1 0 .375.08.706.242.992.166.287.393.508.68.665.291.15.617.226.976.226.37 0 .698-.075.984-.226.287-.157.511-.378.672-.665a1.98 1.98 0 0 0 .243-.992c0-.38-.081-.713-.243-1a1.677 1.677 0 0 0-.672-.664 2.02 2.02 0 0 0-.984-.234Zm.859-3.18h-1.726V17.47h1.726v2.523Zm20.257 11.422h-1.727V17.266h1.727v14.148Zm-1.352-7.516h-2.805v-1.43h2.805v1.43Zm-8.82 2.743c1.364 0 2.513-.026 3.445-.078a25.79 25.79 0 0 0 2.836-.336l.133 1.421c-.979.172-1.958.29-2.938.352-.974.057-2.132.088-3.476.094h-1.133V26.64h1.133Zm5.203-2.97h-4.609v3.43h-1.727v-4.828h4.641v-2.367h-4.688v-1.414h6.383v5.18Zm21.052 7.696h-1.735V17.266h1.735v14.101Zm2.093-7.14h-2.539v-1.438h2.539v1.438Zm-5.82-5.485c0 1.438-.216 2.776-.648 4.016-.428 1.234-1.118 2.37-2.071 3.406-.953 1.031-2.187 1.924-3.703 2.68l-.976-1.344c1.276-.646 2.333-1.383 3.171-2.21a8.185 8.185 0 0 0 1.891-2.79c.417-1.037.625-2.188.625-3.453v-.305h1.711Zm-.828 1.43h-5.836v-1.43h5.836v1.43Zm18.717 11.203h-1.758v-14.11h1.758v14.11Zm-4.211-12.61c0 1.475-.213 2.826-.641 4.055-.421 1.224-1.117 2.352-2.086 3.383-.968 1.026-2.252 1.92-3.851 2.68l-.922-1.39c1.359-.647 2.464-1.381 3.313-2.204.849-.823 1.471-1.747 1.867-2.773.396-1.026.593-2.177.593-3.453v-.297h1.727Zm-.945 1.376h-5.836v-1.375h5.836v1.375Z" fill="#fff"/></svg>