<svg width="305" height="48" fill="none" xmlns="http://www.w3.org/2000/svg"><rect width="305" height="48" rx="10" fill="#5C4795"/><path d="M144.505 25.734h-1.735V23.79h1.735v1.945Zm6.031 1.102h-1.742V17.28h1.742v9.555Zm1.906-4.008h-2.547v-1.43h2.547v1.43Zm-13.226 2.313c1.083 0 2.093-.008 3.031-.024.943-.02 1.924-.062 2.945-.125a47.952 47.952 0 0 0 2.875-.258l.133 1.203a34.39 34.39 0 0 1-4.086.454 104.92 104.92 0 0 1-4.711.109l-.187-1.36Zm11.32 6.234h-1.742v-2.578h-7.805v-1.36h9.547v3.938Zm-2.852-11.695h-8.109v-1.274h8.109v1.274Zm-4.062.39c.687 0 1.286.086 1.797.258.515.167.914.409 1.195.727.281.312.422.682.422 1.11 0 .426-.141.799-.422 1.116-.281.318-.68.565-1.195.742-.511.172-1.11.258-1.797.258-.677 0-1.274-.086-1.789-.258-.511-.177-.909-.424-1.196-.742a1.632 1.632 0 0 1-.421-1.117c0-.427.14-.797.421-1.11.287-.317.685-.56 1.196-.726.515-.172 1.112-.258 1.789-.258Zm0 1.18c-.365-.01-.677.02-.938.094-.255.067-.453.172-.593.312a.675.675 0 0 0-.211.508c0 .198.07.367.211.508.14.14.341.25.601.328.261.073.57.11.93.11.37 0 .685-.037.945-.11.261-.078.459-.188.594-.328a.691.691 0 0 0 .211-.508.675.675 0 0 0-.211-.508c-.135-.14-.333-.244-.594-.312a3.163 3.163 0 0 0-.945-.094Zm.883-2.234h-1.735v-1.86h1.735v1.86Zm20.022 8.468h-1.743V17.281h1.743v10.203Zm.398 3.641h-9.742v-1.422h9.742v1.422Zm-7.992-.867h-1.75v-3.805h1.75v3.805Zm-.102-12.055c.714 0 1.36.151 1.938.453a3.397 3.397 0 0 1 1.867 3.07c0 .688-.167 1.303-.5 1.844a3.397 3.397 0 0 1-1.367 1.258c-.578.302-1.224.453-1.938.453a4.119 4.119 0 0 1-1.937-.453 3.53 3.53 0 0 1-1.367-1.258c-.334-.541-.5-1.156-.5-1.843 0-.672.166-1.276.5-1.813a3.531 3.531 0 0 1 1.367-1.258 4.12 4.12 0 0 1 1.937-.453Zm0 1.524a2.267 2.267 0 0 0-1.086.242 1.816 1.816 0 0 0-.75.703 2.03 2.03 0 0 0-.273 1.055c0 .406.091.765.273 1.078.183.307.433.544.75.71.323.162.685.243 1.086.243.396 0 .753-.08 1.071-.242a1.81 1.81 0 0 0 .742-.711c.182-.313.273-.672.273-1.078a2.03 2.03 0 0 0-.273-1.055 1.76 1.76 0 0 0-.742-.703 2.207 2.207 0 0 0-1.071-.242Z" fill="#fff"/></svg>