<svg width="22" height="22" fill="none" xmlns="http://www.w3.org/2000/svg"><path d="M11.086 19.258c-1.042 0-2.02-.2-2.938-.602a7.747 7.747 0 0 1-2.414-1.64 7.86 7.86 0 0 1-1.648-2.414 7.33 7.33 0 0 1-.594-2.938 7.31 7.31 0 0 1 .594-2.93 7.721 7.721 0 0 1 1.64-2.421 7.842 7.842 0 0 1 2.422-1.641 7.31 7.31 0 0 1 2.93-.594 7.31 7.31 0 0 1 2.93.594 7.72 7.72 0 0 1 2.422 1.64 7.721 7.721 0 0 1 1.64 2.422c.401.917.602 1.894.602 2.93a7.33 7.33 0 0 1-.594 2.938 7.747 7.747 0 0 1-1.64 2.414 7.72 7.72 0 0 1-2.422 1.64 7.228 7.228 0 0 1-2.93.602Zm0-1.39a6.04 6.04 0 0 0 2.414-.485 6.172 6.172 0 0 0 3.305-3.305c.317-.75.476-1.555.476-2.414 0-.86-.159-1.664-.476-2.414a6.172 6.172 0 0 0-5.727-3.781c-.86 0-1.664.159-2.414.476A6.195 6.195 0 0 0 5.367 9.25a6.124 6.124 0 0 0-.476 2.414c0 .86.158 1.664.476 2.414a6.172 6.172 0 0 0 3.305 3.305 6.04 6.04 0 0 0 2.414.484Zm-1.297-2.11a.557.557 0 0 1-.398-.156.517.517 0 0 1-.164-.391.5.5 0 0 1 .164-.375.543.543 0 0 1 .398-.164h.89v-3.227h-.765a.573.573 0 0 1-.398-.148.526.526 0 0 1-.164-.399c0-.15.054-.278.164-.382a.557.557 0 0 1 .398-.157h1.39c.199 0 .35.066.454.196.104.125.156.294.156.508v3.609h.867c.156 0 .29.055.399.164a.5.5 0 0 1 .164.375.517.517 0 0 1-.164.39.557.557 0 0 1-.399.157H9.79Zm1.234-6.586a.961.961 0 0 1-.976-.977.97.97 0 0 1 .281-.703.948.948 0 0 1 .695-.289c.277 0 .508.096.696.29a.957.957 0 0 1 .289.702c0 .271-.096.503-.29.696a.945.945 0 0 1-.695.28Z" fill="#A384BC"/></svg>