<svg width="345" height="665" fill="none" xmlns="http://www.w3.org/2000/svg"><rect width="345" height="665" rx="10" fill="#C7C2DE"/><path d="M48.583 89.89c0 .774-.214 1.492-.643 2.153-.428.656-1.03 1.205-1.804 1.647-.775.438-1.655.734-2.639.89l-.602-1.231c.848-.105 1.602-.333 2.263-.684.666-.355 1.18-.775 1.545-1.258.365-.487.547-.993.547-1.517v-.636h1.333v.636Zm.26 0c0 .52.184 1.025.553 1.517.37.488.887.907 1.552 1.258.666.351 1.422.579 2.27.684l-.602 1.23c-.989-.155-1.87-.453-2.645-.895-.77-.442-1.372-.992-1.805-1.648a3.842 3.842 0 0 1-.65-2.146v-.636h1.327v.636Zm-.082 11.313h-1.497v-4.594h1.497v4.594Zm4.908-4.3H42.417v-1.25h11.252v1.25Zm9.733-3.725h-2.516V91.94h2.516v1.238Zm1.107 3.028h-1.517v-7.349h1.517v7.35Zm-4.176.308c.875 0 1.627.093 2.256.28.633.182 1.118.451 1.456.807.337.35.505.772.505 1.264s-.168.914-.505 1.265c-.338.351-.823.617-1.456.8-.63.187-1.381.285-2.256.294-.866-.009-1.616-.107-2.25-.294-.628-.183-1.114-.449-1.456-.8a1.76 1.76 0 0 1-.505-1.265c0-.492.168-.913.505-1.264.342-.356.828-.625 1.457-.807.633-.187 1.383-.28 2.249-.28Zm0 1.162c-.57 0-1.058.045-1.463.136-.406.087-.713.22-.923.397a.828.828 0 0 0-.315.656c0 .246.105.458.315.636.21.178.517.314.923.41.405.091.893.137 1.463.137.578 0 1.068-.046 1.47-.137.405-.096.71-.232.915-.41.21-.178.315-.39.315-.636a.828.828 0 0 0-.315-.656c-.205-.178-.51-.31-.916-.397-.4-.09-.89-.136-1.47-.136Zm-1.935-6.693a5.96 5.96 0 0 1-.41 2.208 5.175 5.175 0 0 1-1.19 1.812c-.52.52-1.146.91-1.88 1.169l-.792-1.21a4.758 4.758 0 0 0 1.654-.95 4.115 4.115 0 0 0 1.374-3.029v-.881h1.244v.881Zm.3-.013c0 .515.11 1.011.329 1.49.223.479.554.91.991 1.292.442.378.97.674 1.586.889l-.759 1.203a4.884 4.884 0 0 1-1.839-1.1 4.999 4.999 0 0 1-1.155-1.71 5.523 5.523 0 0 1-.39-2.064v-.868H58.7v.868Zm2.564-.076h-6.685v-1.237h6.685v1.237Zm15.277 10.309h-1.435V88.857h1.435v12.346Zm-1.08-6.282h-2.194v-1.224h2.194v1.224Zm-1.757 5.674h-1.387V89.09h1.387v11.505Zm-6.569-3.548c.934 0 1.73-.02 2.386-.062a16.609 16.609 0 0 0 2.01-.253l.116 1.245c-.697.132-1.383.223-2.058.273-.67.046-1.488.07-2.454.075h-.84v-1.278h.84Zm3.773-5.496h-3.09v6.111h-1.524V90.32h4.614v1.23Zm18.032 4.436H77.666v-1.203h11.272v1.203Zm-4.901-.718h-1.484v-2.392h1.484v2.392Zm3.602-1.667h-8.585v-1.21h8.585v1.21Zm-.075-2.995h-7.013v2.564h-1.498v-3.753h8.511v1.19Zm-4.286 6.091c.889 0 1.654.087 2.297.26.643.173 1.132.43 1.47.773.341.341.512.751.512 1.23 0 .478-.17.884-.512 1.217-.338.337-.827.592-1.47.765-.638.178-1.404.272-2.297.281-.893-.009-1.663-.103-2.31-.281-.643-.173-1.138-.428-1.484-.765a1.634 1.634 0 0 1-.512-1.217c0-.479.17-.889.512-1.23.347-.342.841-.6 1.484-.773.642-.173 1.412-.26 2.31-.26Zm0 1.17c-.597 0-1.1.04-1.51.122-.41.082-.72.205-.93.37-.21.163-.315.364-.315.6 0 .238.105.438.315.603.21.159.517.28.922.362.41.082.917.123 1.518.123.597 0 1.1-.041 1.51-.123.411-.082.72-.205.93-.37.21-.163.315-.362.315-.594 0-.237-.105-.438-.314-.602-.21-.164-.522-.287-.937-.369a7.883 7.883 0 0 0-1.504-.123Zm16.76 3.335h-1.435V88.857h1.435v12.346Zm-3.52-6.809h-2.194v-1.223h2.194v1.223Zm1.005 6.221H96.1V89.097h1.422v11.518Zm-4.6-8.374c0 .939-.108 1.837-.322 2.694a8.178 8.178 0 0 1-.936 2.303c-.415.684-.93 1.215-1.546 1.593l-.936-1.121a4.698 4.698 0 0 0 1.45-1.395 6.26 6.26 0 0 0 .854-1.914 8.505 8.505 0 0 0 .273-2.16V90.84h1.162v1.401Zm.3 0c0 .72.087 1.413.26 2.078.177.666.456 1.27.834 1.812.378.538.852.97 1.422 1.299l-.896 1.114a4.635 4.635 0 0 1-1.545-1.518 7.355 7.355 0 0 1-.909-2.187 11.09 11.09 0 0 1-.294-2.598V90.84h1.128v1.401Zm2.003-.827h-5.612v-1.23h5.612v1.23Zm19.206 6.385h-1.524V88.87h1.524V97.8Zm.349 3.185h-8.525V99.74h8.525v1.244Zm-6.993-.758h-1.532v-3.33h1.532v3.33Zm-.089-10.548c.624 0 1.189.132 1.695.396a2.966 2.966 0 0 1 1.634 2.687 2.966 2.966 0 0 1-1.634 2.714 3.605 3.605 0 0 1-1.695.396 3.6 3.6 0 0 1-1.695-.396 3.09 3.09 0 0 1-1.197-1.101 3.02 3.02 0 0 1-.437-1.613c0-.588.146-1.117.437-1.586a3.09 3.09 0 0 1 1.197-1.1 3.6 3.6 0 0 1 1.695-.397Zm0 1.333a1.98 1.98 0 0 0-.95.212 1.586 1.586 0 0 0-.657.615 1.779 1.779 0 0 0-.239.923c0 .355.08.67.239.943.16.269.379.476.657.622.282.141.599.212.95.212.346 0 .658-.07.936-.212.278-.146.495-.353.65-.622.159-.273.239-.588.239-.943 0-.347-.08-.654-.239-.923a1.54 1.54 0 0 0-.65-.615 1.928 1.928 0 0 0-.936-.212Zm14.299-.465a4.89 4.89 0 0 1-.663 2.474 5.949 5.949 0 0 1-1.818 1.962c-.77.538-1.643.91-2.618 1.115l-.657-1.265a6.353 6.353 0 0 0 2.263-.889c.679-.433 1.208-.948 1.586-1.545.383-.597.574-1.214.574-1.852v-.902h1.333v.902Zm.274 0c0 .638.191 1.258.574 1.86.387.596.92 1.113 1.6 1.551a6.291 6.291 0 0 0 2.283.875l-.677 1.265a7.13 7.13 0 0 1-2.605-1.108 6.015 6.015 0 0 1-1.818-1.948 4.973 4.973 0 0 1-.656-2.495v-.902h1.299v.902Zm4.922 9.092h-11.293v-1.251h11.293v1.25Zm1.974-2.516a47.85 47.85 0 0 0 3.014-.082c.853-.055 1.725-.15 2.619-.287l.15 1.23c-.884.133-1.759.226-2.625.28-.866.05-1.919.08-3.158.09h-1.019v-1.23h1.019Zm4.812-5.96h-4.293v6.357h-1.538v-7.602h5.831v1.244Zm-.218 3.41h-4.451V93.37h4.451v1.203Zm3.561 6.631h-1.518V88.857h1.518v12.346Zm1.907-6.289h-2.249v-1.271h2.249v1.271Zm9.289-3.623h-7.937v-1.237h7.937v1.237Zm2.133 8.224H139.4v-1.238h11.252v1.238Zm-1.429-8.06c0 .752-.009 1.388-.027 1.907a28.01 28.01 0 0 1-.117 1.812 26.09 26.09 0 0 1-.3 2.235l-1.552-.13c.155-.756.267-1.47.335-2.14.073-.67.116-1.269.13-1.797.013-.533.02-1.162.02-1.887v-1.401h1.511v1.401Zm12.488 4.724h-1.449V88.87h1.449v7.308Zm-1.025-3.097h-2.147v-1.224h2.147v1.224Zm-1.716 2.974h-1.408v-6.96h1.408v6.96Zm2.741 5.004h-8.34v-4.348h8.34v4.348Zm-6.829-1.224h5.325v-1.914h-5.325v1.914Zm-2.379-5.305c.993 0 1.809-.023 2.447-.068.643-.046 1.299-.13 1.969-.253l.15 1.203c-.688.123-1.358.205-2.009.246a47.83 47.83 0 0 1-2.557.055h-.834V94.53h.834Zm3.849-1.333h-3.213v2.229h-1.47v-3.37h3.22v-1.238h-3.247v-1.196h4.71v3.575Zm16.492-2.372h-6.658V89.65h6.658v1.176Zm-7 2.878c1.431 0 2.766-.02 4.006-.061a45.178 45.178 0 0 0 3.472-.24l.069 1.108a32.992 32.992 0 0 1-3.439.328 95.57 95.57 0 0 1-3.944.075l-.164-1.21Zm2.898.711h-1.476v-4.21h1.476v4.21Zm3.008 0h-1.47v-4.21h1.47v4.21Zm3.876.807h-1.517v-6.365h1.517v6.365Zm1.73-2.578h-2.372v-1.257h2.372v1.257Zm-1.73 6.29h-6.569v1.613h-1.497v-2.714h6.549v-.895h-6.57v-1.19h8.087v3.186Zm.39 2.173h-8.456v-1.21h8.456v1.21Zm12.912-1.326h-11.293v-1.25h11.293v1.25Zm-4.929-.718h-1.497V96.09h1.497v2.974Zm3.582-5.393h-7.096v2.242h-1.517v-3.438h7.116v-1.545h-7.137v-1.23h8.634v3.97Zm.294 2.837h-8.907v-1.238h8.907v1.238Zm12.788.56h-11.292v-1.244h11.292v1.244Zm-4.935 4.15h-1.497v-4.621h1.497v4.621Zm-.745-11.915c.875 0 1.647.111 2.317.335.675.223 1.199.544 1.572.964.374.419.561.911.561 1.476 0 .547-.187 1.026-.561 1.436-.373.41-.897.729-1.572.957-.67.223-1.442.335-2.317.335-.871 0-1.643-.112-2.318-.335-.674-.228-1.196-.547-1.565-.957a2.08 2.08 0 0 1-.554-1.436c0-.565.185-1.057.554-1.476.369-.42.891-.741 1.565-.964.675-.224 1.447-.335 2.318-.335Zm0 1.217c-.579 0-1.085.061-1.518.184-.433.123-.765.303-.998.54-.232.233-.348.51-.348.834 0 .315.116.588.348.82.233.228.565.401.998.52.433.118.939.18 1.518.185.588-.005 1.098-.067 1.531-.185.433-.118.766-.292.998-.52.237-.232.356-.505.356-.82 0-.323-.119-.601-.356-.834-.232-.237-.567-.417-1.005-.54-.433-.123-.941-.184-1.524-.184Zm15.824 10.684h-1.504V88.857h1.504v12.346Zm1.907-6.166h-2.249v-1.25h2.249v1.25Zm-4.368-3.062h-7.281V90.75h7.281v1.224Zm-3.603.8c.597 0 1.13.125 1.6.375.474.246.845.59 1.114 1.033.269.442.403.943.403 1.503 0 .556-.134 1.058-.403 1.504-.269.442-.64.787-1.114 1.033-.47.246-1.003.369-1.6.369a3.418 3.418 0 0 1-1.599-.37 2.771 2.771 0 0 1-1.115-1.032 2.9 2.9 0 0 1-.396-1.504c0-.56.132-1.061.396-1.503a2.772 2.772 0 0 1 1.115-1.033 3.367 3.367 0 0 1 1.599-.376Zm0 1.25a1.78 1.78 0 0 0-.854.206c-.251.136-.449.33-.595.58-.141.251-.212.543-.212.875 0 .329.071.618.212.869.146.25.344.444.595.58.255.133.54.199.854.199.324 0 .611-.066.861-.198.251-.137.447-.33.588-.581.142-.251.212-.54.212-.869 0-.332-.07-.624-.212-.875a1.468 1.468 0 0 0-.588-.58 1.766 1.766 0 0 0-.861-.206Zm.752-2.782h-1.511v-2.208h1.511v2.208Zm17.704 9.96h-1.538V88.857h1.538v12.346Zm-3.685-11.033c0 1.29-.187 2.472-.56 3.548-.369 1.07-.978 2.057-1.825 2.96-.848.898-1.972 1.68-3.371 2.344l-.806-1.216c1.189-.565 2.155-1.208 2.898-1.928.743-.72 1.288-1.529 1.634-2.427.346-.898.52-1.905.52-3.021v-.26h1.51Zm-.827 1.203h-5.106V90.17h5.106v1.203Z" fill="#5C4795"/><path d="M51.96 118.783h-9.573v-.908h9.574v.908Zm-4.247-.498h-1.096v-1.617h1.096v1.617Zm0-4.306h-1.096v-1.495h1.096v1.495Zm-.182.251c0 .547-.185 1.03-.556 1.448-.368.414-.873.748-1.518 1.002-.645.25-1.385.416-2.22.498l-.346-.85c.722-.058 1.361-.185 1.916-.381.558-.199.988-.445 1.289-.738.304-.293.457-.619.457-.979v-.187h.978v.187Zm.252 0c0 .356.15.682.451.979.305.293.733.539 1.284.738.554.196 1.195.323 1.922.381l-.34.85c-.832-.082-1.573-.248-2.221-.498-.645-.254-1.152-.588-1.523-1.002a2.13 2.13 0 0 1-.551-1.448v-.187h.978v.187Zm3.223.153h-7.653v-.897h7.653v.897Zm-3.838 5.086c.766 0 1.418.068 1.957.205.54.137.951.336 1.236.597.29.262.434.579.434.95 0 .375-.143.693-.428.955-.285.265-.699.465-1.242.597-.54.137-1.191.206-1.957.206-.762 0-1.416-.069-1.963-.206-.543-.132-.959-.332-1.248-.597a1.241 1.241 0 0 1-.434-.955c0-.371.145-.688.434-.95.29-.261.705-.46 1.248-.597.547-.137 1.201-.205 1.963-.205Zm0 .832c-.535 0-.992.035-1.371.105-.379.067-.664.17-.856.311-.191.137-.287.304-.287.504 0 .199.096.367.287.504.192.132.475.232.85.298.375.071.834.106 1.377.106.535 0 .988-.035 1.36-.106.374-.066.66-.166.855-.298.195-.137.293-.305.293-.504 0-.2-.098-.367-.293-.504-.196-.141-.48-.244-.856-.311a7.476 7.476 0 0 0-1.359-.105Zm11.553-5.848H52.47v-.891h6.252v.891Zm-3.123.475c.504 0 .948.08 1.33.24.383.156.682.379.897.668.215.285.322.619.322 1.002 0 .379-.107.713-.322 1.002a2.111 2.111 0 0 1-.897.668c-.382.156-.826.234-1.33.234-.496 0-.939-.078-1.33-.234-.39-.16-.693-.383-.908-.668a1.655 1.655 0 0 1-.316-1.002c0-.383.105-.717.316-1.002.215-.289.518-.512.908-.668.391-.16.834-.24 1.33-.24Zm0 .849c-.292 0-.552.043-.779.129a1.14 1.14 0 0 0-.521.369.91.91 0 0 0-.182.563c0 .211.06.394.182.551.12.156.295.275.521.357.227.082.486.123.78.123.292 0 .552-.041.779-.123.23-.082.408-.201.533-.357a.857.857 0 0 0 .187-.551.89.89 0 0 0-.187-.563 1.18 1.18 0 0 0-.533-.369 2.186 2.186 0 0 0-.78-.129Zm5.11 3.287H59.6v-6.574h1.108v6.574Zm1.53-2.8h-1.84v-.92h1.84v.92Zm-1.53 6.726H59.6v-2.496h-5.83v-.896h6.938v3.392Zm-4.553-8.935h-1.107v-1.612h1.107v1.612Zm9.391.451c0 .547-.095 1.084-.287 1.611a4.332 4.332 0 0 1-.838 1.424 3.618 3.618 0 0 1-1.33.949l-.603-.861c.457-.199.85-.469 1.178-.809.328-.34.576-.709.744-1.107.172-.402.258-.805.258-1.207v-1.36h.878v1.36Zm.188 0c0 .39.082.769.246 1.137.168.367.41.699.727.996.316.297.693.529 1.13.697l-.585.85a3.7 3.7 0 0 1-1.307-.856 3.772 3.772 0 0 1-.814-1.295 4.391 4.391 0 0 1-.27-1.529v-1.36h.873v1.36Zm5.748 4.459h-1.06v-6.463h1.06v6.463Zm-.732-2.813H68.85v-.914h1.899v.914Zm-1.547 2.485h-1.037v-5.942h1.037v5.942Zm-1.23.533c.726 0 1.357.074 1.892.223.539.148.953.367 1.242.656.29.285.434.627.434 1.025 0 .395-.145.733-.434 1.014-.289.285-.703.504-1.242.656-.535.156-1.166.235-1.893.235-.73 0-1.365-.079-1.904-.235-.535-.152-.945-.371-1.23-.656a1.372 1.372 0 0 1-.428-1.014c0-.398.142-.74.428-1.025.285-.289.695-.508 1.23-.656.539-.149 1.174-.223 1.904-.223Zm0 .844c-.505 0-.942.041-1.313.123-.371.078-.654.199-.85.363-.191.16-.287.352-.287.574 0 .223.096.412.287.569.195.156.477.275.844.357.367.082.806.123 1.318.123.508 0 .946-.041 1.313-.123.367-.082.648-.201.844-.357.199-.157.298-.346.298-.569 0-.222-.1-.414-.299-.574-.195-.164-.478-.285-.85-.363a6.114 6.114 0 0 0-1.306-.123Zm8.676.527h-1.114v-1.729h1.114v1.729Zm4.635 2.449h-1.108v-10.5h1.108v10.5Zm-7.999-2.853a93.866 93.866 0 0 0 3.346-.076 35.131 35.131 0 0 0 2.889-.247l.082.838c-1.031.168-2.102.28-3.211.334a72.222 72.222 0 0 1-3.574.082l-.164-.931h.632Zm6.006-5.496h-6.416v-.891h6.416v.891Zm-3.216.539c.507 0 .955.082 1.341.246.391.16.694.386.909.679.218.293.328.637.328 1.032 0 .383-.11.72-.328 1.013-.215.289-.518.516-.909.68-.386.164-.834.246-1.341.246-.496 0-.94-.08-1.33-.24a2.066 2.066 0 0 1-.903-.68 1.715 1.715 0 0 1-.316-1.019c0-.395.105-.739.316-1.032.215-.293.516-.519.903-.679.39-.164.834-.246 1.33-.246Zm0 .849a2.03 2.03 0 0 0-.774.141c-.23.09-.41.219-.539.387a.91.91 0 0 0-.193.58c0 .215.064.404.193.568.129.16.309.285.54.375.23.086.487.129.773.129.296 0 .56-.041.79-.123.231-.086.409-.211.534-.375a.936.936 0 0 0 .187-.574.929.929 0 0 0-.187-.58 1.178 1.178 0 0 0-.533-.387 2.08 2.08 0 0 0-.791-.141Zm.58-1.793h-1.12v-1.722h1.12v1.722Zm18.243 5.321H85.29v-.891h9.61v.891Zm-4.283 3.433H89.52v-3.914h1.096v3.914Zm-3.03-8.701h4.993v-1.371h1.12v4.564h-7.214v-4.564h1.102v1.371Zm4.993 2.291v-1.4h-4.992v1.4h4.992Zm7.933-2.596a3.9 3.9 0 0 1-.592 2.069 5.323 5.323 0 0 1-1.565 1.629 6.097 6.097 0 0 1-2.138.925l-.498-.931a5.563 5.563 0 0 0 1.88-.75 4.648 4.648 0 0 0 1.407-1.33c.351-.52.527-1.057.527-1.612v-.785h.979v.785Zm.193 0c0 .551.178 1.088.533 1.612.356.523.828.97 1.418 1.342.59.367 1.217.613 1.881.738l-.498.931a6.161 6.161 0 0 1-2.127-.919 5.295 5.295 0 0 1-1.57-1.629 3.903 3.903 0 0 1-.592-2.075v-.785h.955v.785Zm4.277 7.629h-9.61v-.92h9.61v.92Zm4.504-5.642h1.992v-2.496h1.031v6.943h-4.078v-6.943h1.055v2.496Zm1.992 3.539v-2.649h-1.992v2.649h1.992Zm5.631 3.48h-1.072v-10.5h1.072v10.5Zm-.703-5.472h-1.963v-.909h1.963v.909Zm-1.659 4.957h-1.054v-9.786h1.054v9.786Zm12.093.515h-1.113v-10.5h1.113v10.5Zm-4.945-7.119c0 .734-.125 1.443-.375 2.127a5.549 5.549 0 0 1-1.055 1.805 4.636 4.636 0 0 1-1.553 1.183l-.609-.861c.531-.238 1-.58 1.406-1.025.41-.446.727-.95.949-1.512.227-.563.34-1.135.34-1.717v-.826h.897v.826Zm.199 0c0 .559.115 1.108.346 1.647.234.539.558 1.021.972 1.447.418.426.895.754 1.43.984l-.615.856a4.57 4.57 0 0 1-1.565-1.131 5.527 5.527 0 0 1-1.066-1.746 5.68 5.68 0 0 1-.381-2.057v-.826h.879v.826Zm2.361-.691h-5.847v-.897h5.847v.897Zm-2.361-.41h-1.107v-2.069h1.107v2.069Z" fill="#3F3F43"/><path d="M52.978 157.623H51.53v-7.766h1.45v7.766Zm-1.052-3.356h-2.14v-1.245h2.14v1.245Zm-1.6 2.939h-1.422v-7.109h1.422v7.109Zm-1.832-4.812H42.35v-1.197h6.145v1.197Zm-3.056.499c.52 0 .983.088 1.388.266.406.173.722.424.95.752.228.324.342.697.342 1.121 0 .419-.114.789-.342 1.108a2.242 2.242 0 0 1-.95.745 3.439 3.439 0 0 1-1.388.266c-.51 0-.968-.089-1.373-.266a2.241 2.241 0 0 1-.95-.745 1.885 1.885 0 0 1-.336-1.108c0-.424.112-.797.335-1.121.228-.328.543-.579.944-.752a3.404 3.404 0 0 1 1.38-.266Zm0 1.093c-.255 0-.48.044-.676.13-.196.082-.351.203-.465.363a.931.931 0 0 0-.164.553c0 .205.054.388.164.547.114.155.269.276.465.362.196.082.421.123.676.123.256 0 .481-.041.677-.123.2-.086.356-.207.465-.362a.943.943 0 0 0 .164-.547.931.931 0 0 0-.164-.553 1.007 1.007 0 0 0-.465-.363 1.67 1.67 0 0 0-.677-.13Zm.746-1.996h-1.511v-2.023h1.51v2.023Zm2.625 5.79c.884 0 1.643.087 2.276.26.633.169 1.117.419 1.45.752.336.333.505.736.505 1.21 0 .46-.169.854-.506 1.183-.332.332-.818.583-1.456.752-.638.173-1.394.259-2.27.259-.879 0-1.636-.086-2.269-.259-.633-.169-1.119-.42-1.456-.752a1.594 1.594 0 0 1-.506-1.183c0-.474.169-.877.506-1.21.337-.333.823-.583 1.456-.752.633-.173 1.39-.26 2.27-.26Zm0 1.149c-.588-.005-1.085.034-1.49.116-.402.077-.707.198-.917.362-.205.16-.307.358-.307.595 0 .223.102.415.307.574.21.155.518.274.923.356a8.1 8.1 0 0 0 1.484.116 8.03 8.03 0 0 0 1.483-.116c.401-.082.706-.201.916-.356.21-.159.315-.351.315-.574 0-.242-.105-.442-.315-.602-.21-.159-.515-.278-.916-.355-.401-.082-.895-.121-1.483-.116Zm14.593-4.751h-2.516v-1.238h2.516v1.238Zm1.107 3.028h-1.517v-7.349h1.517v7.349Zm-4.176.308c.875 0 1.627.093 2.256.28.633.182 1.118.451 1.456.807.337.35.505.772.505 1.264s-.168.914-.505 1.265c-.338.351-.823.617-1.456.8-.63.187-1.381.285-2.256.294-.866-.009-1.616-.107-2.25-.294-.628-.183-1.114-.449-1.456-.8a1.761 1.761 0 0 1-.505-1.265c0-.492.168-.914.505-1.264.342-.356.828-.625 1.457-.807.633-.187 1.383-.28 2.249-.28Zm0 1.162c-.57 0-1.058.045-1.463.136-.406.087-.713.219-.923.397a.828.828 0 0 0-.315.656c0 .246.105.458.315.636.21.178.517.314.923.41.405.091.893.137 1.463.137.578 0 1.068-.046 1.47-.137.405-.096.71-.232.915-.41.21-.178.315-.39.315-.636a.828.828 0 0 0-.315-.656c-.205-.178-.51-.31-.916-.397-.4-.091-.89-.136-1.47-.136Zm-1.935-6.693c0 .78-.137 1.516-.41 2.208a5.174 5.174 0 0 1-1.19 1.812 4.966 4.966 0 0 1-1.88 1.169l-.792-1.21a4.756 4.756 0 0 0 1.654-.95 4.118 4.118 0 0 0 1.025-1.408 3.964 3.964 0 0 0 .349-1.621v-.881h1.244v.881Zm.3-.013c0 .515.11 1.011.329 1.49.223.478.554.909.991 1.292.442.378.97.674 1.586.889l-.759 1.203a4.879 4.879 0 0 1-1.839-1.101 4.998 4.998 0 0 1-1.155-1.709 5.524 5.524 0 0 1-.39-2.064v-.868H58.7v.868Zm2.564-.075h-6.685v-1.238h6.685v1.238Zm18.92 6.364H68.887v-1.203h11.293v1.203Zm-4.936 3.944h-1.497v-4.573h1.497v4.573Zm-3.5-10.343h5.53v-1.51h1.525v5.407h-8.552v-5.407h1.497v1.51Zm5.53 2.673v-1.463h-5.53v1.463h5.53Zm9.473-2.987c0 .879-.22 1.704-.663 2.475a5.95 5.95 0 0 1-1.818 1.961 7.05 7.05 0 0 1-2.618 1.115l-.656-1.265a6.344 6.344 0 0 0 2.262-.889c.68-.433 1.208-.948 1.586-1.545.383-.597.574-1.214.574-1.852v-.902h1.333v.902Zm.274 0c0 .638.191 1.258.574 1.859.387.597.92 1.115 1.6 1.552a6.292 6.292 0 0 0 2.283.875l-.677 1.265a7.125 7.125 0 0 1-2.604-1.108 6.007 6.007 0 0 1-1.819-1.948 4.968 4.968 0 0 1-.656-2.495v-.902h1.299v.902Zm4.922 9.092H80.652v-1.251h11.293v1.251Zm9.164-3.145c.852-.004 1.588.087 2.208.274.624.182 1.101.448 1.429.799.332.351.499.775.499 1.272s-.167.923-.499 1.278c-.328.356-.802.627-1.422.814-.615.187-1.354.285-2.215.294-.857-.009-1.602-.107-2.235-.294-.63-.187-1.112-.458-1.45-.814a1.79 1.79 0 0 1-.505-1.278c0-.497.168-.921.505-1.272.338-.351.82-.617 1.45-.799.633-.187 1.378-.278 2.235-.274Zm0 1.176c-.57 0-1.053.046-1.45.137-.391.091-.692.223-.902.396a.79.79 0 0 0-.307.636c0 .246.102.458.307.636.21.177.513.314.91.41.401.091.881.137 1.442.137.565 0 1.044-.046 1.436-.137.396-.096.695-.233.895-.41.205-.178.308-.39.308-.636a.8.8 0 0 0-.301-.636c-.201-.173-.497-.305-.889-.396-.392-.091-.875-.137-1.449-.137Zm4.02-1.477h-1.518v-7.335h1.518v7.335Zm1.729-3.103h-2.16v-1.278h2.16v1.278Zm-9.557-1.777h2.885v-1.668h1.518v5.755h-5.9v-5.755h1.497v1.668Zm2.885 2.884v-1.709h-2.885v1.709h2.885Zm18.23 2.065h-11.293v-1.224h11.293v1.224Zm-4.771 2.256h-1.504v-2.721h1.504v2.721Zm3.322-4.628h-8.415v-4.464h8.415v4.464Zm-6.932-1.19h5.428v-2.092h-5.428v2.092Zm7.13 8.285h-8.681v-1.244h8.681v1.244Zm-7.157-.827h-1.524v-2.761h1.524v2.761Zm18.551 1.046h-1.504v-12.346h1.504v12.346Zm1.908-6.166h-2.249v-1.251h2.249v1.251Zm-4.369-3.062h-7.28v-1.224h7.28v1.224Zm-3.602.799c.597 0 1.13.126 1.6.376.473.246.845.591 1.114 1.033.269.442.403.943.403 1.504 0 .556-.134 1.057-.403 1.503a2.777 2.777 0 0 1-1.114 1.033c-.47.246-1.003.369-1.6.369a3.42 3.42 0 0 1-1.6-.369 2.77 2.77 0 0 1-1.114-1.033 2.894 2.894 0 0 1-.396-1.503c0-.561.132-1.062.396-1.504a2.77 2.77 0 0 1 1.114-1.033 3.376 3.376 0 0 1 1.6-.376Zm0 1.251c-.315 0-.599.069-.855.205-.25.137-.448.331-.594.582-.142.25-.212.542-.212.875 0 .328.07.617.212.868.146.25.344.444.594.581.256.132.54.198.855.198.323 0 .611-.066.861-.198.251-.137.447-.331.588-.581.141-.251.212-.54.212-.868 0-.333-.071-.625-.212-.875a1.47 1.47 0 0 0-.588-.582 1.776 1.776 0 0 0-.861-.205Zm.752-2.782h-1.511v-2.208h1.511v2.208Zm17.704 9.96h-1.539v-12.346h1.539v12.346Zm-3.685-11.033c0 1.29-.187 2.472-.561 3.548-.369 1.071-.977 2.057-1.825 2.96-.847.898-1.971 1.679-3.37 2.344l-.807-1.216c1.19-.565 2.156-1.208 2.899-1.928.743-.72 1.287-1.529 1.634-2.427.346-.898.519-1.905.519-3.021v-.26h1.511Zm-.827 1.203h-5.107v-1.203h5.107v1.203Z" fill="#5C4795"/><path d="M51.34 180.117h-1.06v-6.627h1.06v6.627Zm-.762-2.929H48.65v-.915h1.928v.915Zm-1.512 2.566h-1.043v-6.059h1.043v6.059Zm-1.43-4.184h-5.308v-.879h5.309v.879Zm-2.642.498c.441 0 .834.075 1.178.223.348.145.617.355.809.633.19.273.287.592.287.955 0 .351-.096.664-.288.937a1.89 1.89 0 0 1-.808.633 2.936 2.936 0 0 1-1.178.223c-.43 0-.816-.074-1.16-.223a1.896 1.896 0 0 1-.803-.633 1.593 1.593 0 0 1-.287-.937c0-.363.096-.682.287-.955.192-.278.457-.488.797-.633.34-.148.729-.223 1.166-.223Zm0 .809c-.246 0-.465.041-.656.123a1.009 1.009 0 0 0-.445.346.912.912 0 0 0-.159.533.86.86 0 0 0 .159.51c.109.148.257.263.445.345.191.082.41.123.656.123.25 0 .47-.041.662-.123.192-.082.34-.197.446-.345a.861.861 0 0 0 .158-.51.913.913 0 0 0-.604-.879 1.669 1.669 0 0 0-.662-.123Zm.55-1.635h-1.106v-1.664h1.107v1.664Zm2.286 5.028c.746 0 1.385.072 1.916.216.535.145.944.358 1.225.639.285.277.427.615.427 1.014 0 .382-.142.713-.427.99-.281.277-.692.488-1.23.633-.536.144-1.173.217-1.91.217-.74 0-1.376-.073-1.911-.217-.535-.145-.945-.356-1.23-.633a1.343 1.343 0 0 1-.422-.99c0-.399.14-.737.422-1.014.285-.281.695-.494 1.23-.639.535-.144 1.172-.216 1.91-.216Zm0 .861a6.086 6.086 0 0 0-1.336.105c-.363.075-.64.19-.832.346a.693.693 0 0 0-.281.557c0 .211.094.39.281.539.191.144.47.254.838.328.371.078.815.117 1.33.117.523 0 .967-.039 1.33-.117.367-.074.647-.184.838-.328.192-.149.287-.328.287-.539a.685.685 0 0 0-.287-.563c-.191-.152-.47-.265-.838-.34a6.009 6.009 0 0 0-1.33-.105Zm12.585-4.049h-2.268v-.914h2.268v.914Zm.797 2.66h-1.114v-6.252h1.114v6.252Zm-3.522.299c.739 0 1.373.078 1.904.234.536.157.944.383 1.225.68.285.293.428.647.428 1.061 0 .414-.143.767-.428 1.06-.281.297-.69.524-1.225.68-.53.156-1.166.236-1.904.24-.73-.004-1.361-.084-1.892-.24-.532-.156-.94-.383-1.225-.68a1.464 1.464 0 0 1-.428-1.06c0-.414.143-.768.428-1.061.285-.297.693-.523 1.225-.68.53-.156 1.162-.234 1.892-.234Zm0 .855a5.62 5.62 0 0 0-1.312.135c-.367.086-.649.213-.844.381a.777.777 0 0 0-.287.604c0 .226.096.423.287.591.195.168.477.297.844.387a5.87 5.87 0 0 0 1.312.129c.516 0 .955-.043 1.319-.129.367-.09.646-.219.837-.387.196-.168.294-.365.294-.591a.77.77 0 0 0-.294-.604c-.19-.168-.47-.295-.837-.381a5.557 5.557 0 0 0-1.319-.135Zm-1.687-5.531c0 .645-.121 1.254-.364 1.828a4.489 4.489 0 0 1-1.025 1.512c-.445.43-.967.756-1.564.979l-.58-.891a4.09 4.09 0 0 0 1.388-.814c.399-.356.703-.76.914-1.213.211-.457.317-.924.317-1.401v-.814h.914v.814Zm.21-.011c0 .441.102.871.305 1.289.203.414.496.785.88 1.113a4.21 4.21 0 0 0 1.347.756l-.568.884a4.219 4.219 0 0 1-2.52-2.337 4.324 4.324 0 0 1-.346-1.705v-.803h.903v.803Zm2.262-.223h-5.672v-.92h5.672v.92Zm16.281 5.426h-9.61v-.891h9.61v.891Zm-4.283 3.433h-1.096v-3.914h1.096v3.914Zm-3.03-8.701h4.993v-1.371h1.12v4.564h-7.214v-4.564h1.102v1.371Zm4.993 2.291v-1.4h-4.992v1.4h4.992Zm7.932-2.596c0 .735-.197 1.424-.591 2.069a5.322 5.322 0 0 1-1.565 1.629 6.097 6.097 0 0 1-2.139.925l-.498-.931a5.562 5.562 0 0 0 1.881-.75 4.648 4.648 0 0 0 1.406-1.33c.352-.52.528-1.057.528-1.612v-.785h.978v.785Zm.194 0c0 .551.178 1.088.533 1.612.355.523.828.97 1.418 1.342.59.367 1.217.613 1.88.738l-.497.931a6.168 6.168 0 0 1-2.127-.919 5.3 5.3 0 0 1-1.57-1.629 3.906 3.906 0 0 1-.592-2.075v-.785h.955v.785Zm4.277 7.629h-9.61v-.92h9.61v.92Zm4.504-5.642h1.992v-2.496h1.031v6.943h-4.078v-6.943h1.055v2.496Zm1.992 3.539v-2.649h-1.992v2.649h1.992Zm5.63 3.48h-1.072v-10.5h1.073v10.5Zm-.703-5.472H94.3v-.909h1.963v.909Zm-1.658 4.957H93.55v-9.786h1.054v9.786Zm12.093.515h-1.113v-10.5h1.113v10.5Zm-4.945-7.119c0 .734-.125 1.443-.375 2.127a5.566 5.566 0 0 1-1.055 1.805c-.453.519-.97.914-1.553 1.183l-.61-.861c.532-.238 1-.58 1.407-1.025.41-.446.727-.95.949-1.512.227-.563.34-1.135.34-1.717v-.826h.897v.826Zm.199 0c0 .559.115 1.108.345 1.647a4.83 4.83 0 0 0 .973 1.447c.418.426.895.754 1.43.984l-.615.856a4.57 4.57 0 0 1-1.565-1.131 5.527 5.527 0 0 1-1.066-1.746 5.68 5.68 0 0 1-.381-2.057v-.826h.879v.826Zm2.361-.691h-5.847v-.897h5.847v.897Zm-2.361-.41h-1.108v-2.069h1.108v2.069Z" fill="#3F3F43"/><path d="M49.588 216.736h-2.174v-1.223h2.174v1.223Zm3.486 6.467h-1.463v-12.346h1.463v12.346Zm-2.543-.581H49.09v-11.553h1.442v11.553Zm-5.325-10.828a2.1 2.1 0 0 1 1.429.533c.405.356.72.866.943 1.531.223.666.335 1.447.335 2.345 0 .893-.112 1.675-.335 2.345-.223.665-.538 1.178-.943 1.538-.406.36-.882.54-1.429.54-.538 0-1.01-.18-1.415-.54-.401-.36-.713-.873-.936-1.538-.22-.67-.329-1.452-.329-2.345 0-.902.11-1.684.328-2.345.224-.665.538-1.175.944-1.531a2.074 2.074 0 0 1 1.408-.533Zm0 1.435c-.264 0-.492.114-.684.342-.19.228-.337.565-.437 1.012-.096.442-.144.982-.144 1.62 0 .634.048 1.174.144 1.62.1.442.246.777.438 1.005.195.228.423.342.683.342.269 0 .5-.114.69-.342.196-.228.347-.563.452-1.005.105-.446.157-.986.157-1.62 0-.638-.053-1.178-.157-1.62-.105-.447-.256-.784-.451-1.012-.192-.228-.422-.342-.69-.342Zm12.33-1.469c.611 0 1.154.18 1.628.54.478.355.852.863 1.12 1.524.274.656.41 1.422.41 2.297 0 .88-.136 1.65-.41 2.311-.268.656-.642 1.164-1.12 1.524-.474.36-1.017.54-1.627.54a2.682 2.682 0 0 1-1.64-.533c-.48-.36-.855-.871-1.129-1.531-.269-.661-.403-1.431-.403-2.311 0-.875.134-1.641.403-2.297.274-.661.65-1.169 1.128-1.524a2.657 2.657 0 0 1 1.64-.54Zm0 1.367a1.274 1.274 0 0 0-.902.355c-.26.242-.46.588-.601 1.039-.142.447-.212.98-.212 1.6 0 .62.07 1.158.212 1.613.141.452.342.796.601 1.033.265.232.566.348.903.348.337 0 .636-.116.895-.348.264-.237.467-.581.609-1.033.14-.455.212-.993.212-1.613 0-.624-.071-1.16-.212-1.606-.142-.452-.342-.796-.602-1.033a1.244 1.244 0 0 0-.902-.355Zm6.98 10.11h-1.504v-12.38h1.504v12.38Zm-.847-6.603H60.23v-1.231h3.439v1.231Zm8.413-4.744c0 .774-.214 1.492-.642 2.153-.429.656-1.03 1.205-1.805 1.647-.775.438-1.654.734-2.639.889l-.601-1.23c.847-.105 1.602-.333 2.262-.684.666-.355 1.18-.775 1.545-1.258.365-.487.547-.993.547-1.517v-.636h1.333v.636Zm.26 0c0 .519.185 1.025.554 1.517.369.488.886.907 1.552 1.258.665.351 1.421.579 2.269.684l-.602 1.23c-.989-.155-1.87-.453-2.645-.895-.77-.442-1.372-.992-1.805-1.648a3.841 3.841 0 0 1-.65-2.146v-.636h1.327v.636Zm-.082 11.313h-1.497v-4.594h1.497v4.594Zm4.908-4.3H65.916v-1.251h11.252v1.251Zm11.777-.307H77.652v-1.203h11.293v1.203Zm-1.394-4.252h-6.96v1.476h-1.51v-2.57h6.938v-.896h-6.972v-1.189h8.504v3.179Zm.239 2.092h-8.71v-1.163h8.71v1.163Zm-4.512 2.809c1.385 0 2.454.171 3.206.513.752.342 1.128.836 1.128 1.483 0 .415-.17.77-.513 1.067-.341.3-.836.526-1.483.676-.643.151-1.422.231-2.338.24-.925-.009-1.716-.089-2.372-.24-.652-.15-1.146-.376-1.483-.676-.333-.297-.5-.652-.5-1.067 0-.437.167-.802.5-1.094.337-.296.831-.519 1.483-.669.656-.155 1.447-.233 2.372-.233Zm0 1.114c-.629 0-1.15.032-1.565.096-.41.064-.72.162-.93.294-.21.132-.314.296-.314.492 0 .187.102.344.307.472.21.123.522.219.937.287.414.064.936.096 1.565.096a10.3 10.3 0 0 0 1.545-.096c.415-.068.725-.164.93-.287.205-.128.307-.285.307-.472 0-.196-.105-.36-.314-.492-.205-.132-.513-.23-.923-.294a10.3 10.3 0 0 0-1.545-.096Zm-1.114-2.146h-1.497v-2.345h1.497v2.345Zm3.821 0h-1.47v-2.345h1.47v2.345Zm13.705 5.024h-1.538v-12.38h1.538v12.38Zm-6.658-11.477c.62 0 1.173.18 1.66.54.488.355.869.863 1.142 1.524.274.656.41 1.422.41 2.297 0 .88-.136 1.65-.41 2.311-.273.656-.654 1.164-1.141 1.524-.488.36-1.042.54-1.661.54-.625 0-1.18-.18-1.668-.54-.488-.36-.87-.868-1.149-1.524-.273-.661-.41-1.431-.41-2.311 0-.875.137-1.641.41-2.297.278-.661.661-1.169 1.149-1.524a2.736 2.736 0 0 1 1.668-.54Zm0 1.367a1.314 1.314 0 0 0-.923.355c-.264.237-.47.581-.615 1.033-.146.451-.22.986-.22 1.606 0 .62.074 1.158.22 1.613.145.452.35.796.615 1.033.269.232.576.348.923.348.346 0 .651-.116.916-.348.264-.237.47-.581.615-1.033.146-.455.219-.993.219-1.613s-.073-1.155-.22-1.606c-.145-.452-.35-.796-.614-1.033a1.276 1.276 0 0 0-.916-.355Zm12.597 6.897h-1.518v-2.919h1.518v2.919Zm-.779-8.408c.633 0 1.203.128 1.709.383.51.251.911.604 1.203 1.06.296.451.444.966.444 1.545 0 .578-.148 1.093-.444 1.544a3.01 3.01 0 0 1-1.203 1.053 3.745 3.745 0 0 1-1.709.383c-.643 0-1.219-.128-1.73-.383a2.958 2.958 0 0 1-1.196-1.053 2.815 2.815 0 0 1-.431-1.544c0-.579.144-1.094.431-1.545a2.881 2.881 0 0 1 1.196-1.06c.511-.255 1.087-.383 1.73-.383Zm0 1.299c-.36 0-.682.068-.964.205a1.597 1.597 0 0 0-.67.595c-.16.255-.239.551-.239.889 0 .337.079.633.239.888.164.255.387.454.67.595.287.137.608.205.964.205.355 0 .672-.068.95-.205.282-.141.503-.34.663-.595.164-.255.246-.551.246-.888a1.606 1.606 0 0 0-.902-1.477 2.087 2.087 0 0 0-.957-.212Zm6.029 10.288h-1.518v-12.346h1.518v12.346Zm1.791-6.125h-2.242v-1.292h2.242v1.292Zm-11.655 2.345c1.116-.005 2.039-.014 2.768-.027a75.24 75.24 0 0 0 2.413-.089 31.26 31.26 0 0 0 2.461-.233l.103 1.128c-.798.146-1.632.255-2.502.328-.871.069-1.7.11-2.488.123-.789.009-1.637.014-2.543.014l-.212-1.244Zm19.014-5.599a9.9 9.9 0 0 1-.403 2.844 7.632 7.632 0 0 1-1.176 2.386 5.345 5.345 0 0 1-1.852 1.586l-.944-1.231a4.682 4.682 0 0 0 1.682-1.333c.47-.588.83-1.249 1.08-1.982a7.009 7.009 0 0 0 .376-2.27v-1.975h1.237v1.975Zm.274 0c0 .748.118 1.475.355 2.181a6.16 6.16 0 0 0 1.046 1.893c.461.556.996.987 1.607 1.292l-.916 1.21a5.167 5.167 0 0 1-1.798-1.531 7.28 7.28 0 0 1-1.128-2.304 9.79 9.79 0 0 1-.376-2.741v-1.975h1.21v1.975Zm5.27 9.379h-1.517v-12.346h1.517v12.346Zm1.908-6.207h-2.249v-1.292h2.249v1.292Zm4.578-3.623c0 .77-.139 1.495-.417 2.174a5.083 5.083 0 0 1-1.216 1.77 5.177 5.177 0 0 1-1.901 1.135l-.786-1.203a4.78 4.78 0 0 0 1.654-.923 3.99 3.99 0 0 0 1.046-1.36 3.745 3.745 0 0 0 .356-1.593v-1.148h1.264v1.148Zm.274 0c0 .52.116 1.021.348 1.504.233.478.577.907 1.033 1.285a4.744 4.744 0 0 0 1.64.855l-.779 1.196a5.08 5.08 0 0 1-1.88-1.073 4.858 4.858 0 0 1-1.196-1.689 5.238 5.238 0 0 1-.41-2.078v-1.148h1.244v1.148Zm2.604-.355h-6.801v-1.217h6.801v1.217Zm2.994 6.822h-1.524v-8.969h1.524v8.969Zm.349 3.144h-8.524v-1.244h8.524v1.244Zm-6.993-.642h-1.531v-3.329h1.531v3.329Zm21.592.861h-1.518v-3.192h-7.184v-1.21h8.702v4.402Zm0-4.976h-1.518v-7.37h1.518v7.37Zm-7.697-5.059a8.57 8.57 0 0 1-.205 1.894 4.888 4.888 0 0 1-.698 1.64 3.387 3.387 0 0 1-1.278 1.155l-.82-1.08a3.175 3.175 0 0 0 1.1-.95 3.99 3.99 0 0 0 .615-1.271c.133-.456.199-.919.199-1.388v-.868h1.087v.868Zm.314 0c0 .447.053.898.157 1.353.105.452.287.887.547 1.306a3.4 3.4 0 0 0 1.046 1.039l-.684 1.114a3.443 3.443 0 0 1-1.271-1.251 5.5 5.5 0 0 1-.656-1.702 9.627 9.627 0 0 1-.178-1.859v-.868h1.039v.868Zm3.165 0c0 .643-.059 1.269-.178 1.88a5.21 5.21 0 0 1-.649 1.695 3.41 3.41 0 0 1-1.272 1.237l-.676-1.114a3.018 3.018 0 0 0 1.025-1.012c.251-.414.426-.849.527-1.305a6.19 6.19 0 0 0 .157-1.381v-.868h1.066v.868Zm.397 0c0 .474.061.941.184 1.401.123.461.326.884.609 1.272.282.387.644.699 1.087.936l-.793 1.08a3.526 3.526 0 0 1-1.279-1.162 5.158 5.158 0 0 1-.69-1.627 8.474 8.474 0 0 1-.205-1.9v-.868h1.087v.868Zm-2.762-.219h-3.637v-1.23h3.637v1.23Zm4.088 0h-3.562v-1.23h3.562v1.23Zm14.067 10.254h-1.538v-12.346h1.538v12.346Zm-3.685-11.033c0 1.29-.187 2.472-.56 3.548-.369 1.071-.978 2.057-1.826 2.96-.847.898-1.971 1.679-3.37 2.344l-.806-1.216c1.189-.565 2.155-1.208 2.898-1.928.743-.72 1.288-1.529 1.634-2.427.346-.898.519-1.905.519-3.021v-.26h1.511Zm-.827 1.203h-5.106v-1.203h5.106v1.203Z" fill="#5C4795"/><path d="M48.598 239.424h-1.934v-.908h1.934v.908Zm2.824 5.566H50.35v-10.5h1.072v10.5Zm-2.139-.515h-1.055v-9.786h1.055v9.786Zm-4.511-9.147c.456 0 .857.151 1.2.451.344.297.61.725.797 1.283.192.559.288 1.215.288 1.969 0 .746-.096 1.399-.288 1.957-.187.559-.453.991-.796 1.295a1.792 1.792 0 0 1-1.201.457 1.784 1.784 0 0 1-1.196-.457c-.344-.304-.61-.736-.797-1.295-.183-.558-.275-1.211-.275-1.957 0-.754.092-1.41.275-1.969.188-.558.453-.986.797-1.283.344-.3.742-.451 1.196-.451Zm0 1.055a.83.83 0 0 0-.663.31c-.183.211-.324.516-.422.914-.097.395-.146.87-.146 1.424 0 .547.049 1.02.147 1.418.097.399.24.703.427.914.188.207.407.311.657.311a.867.867 0 0 0 .662-.311c.187-.211.332-.515.433-.914a5.79 5.79 0 0 0 .153-1.418c0-.554-.051-1.029-.153-1.424-.101-.398-.246-.703-.433-.914-.188-.211-.409-.314-.662-.31Zm10.534-1.102a2.2 2.2 0 0 1 1.37.457c.403.305.717.735.944 1.289.227.555.34 1.202.34 1.94 0 .742-.114 1.39-.34 1.945-.227.555-.541.984-.943 1.289a2.213 2.213 0 0 1-1.371.451c-.516 0-.977-.15-1.383-.451-.403-.301-.717-.728-.944-1.283-.226-.559-.34-1.209-.34-1.951 0-.738.114-1.385.34-1.94.227-.554.541-.984.944-1.289a2.25 2.25 0 0 1 1.383-.457Zm0 .996c-.313 0-.592.11-.838.328-.247.219-.436.532-.569.938-.129.402-.193.877-.193 1.424 0 .543.064 1.017.193 1.424.133.406.322.718.569.937.246.215.525.322.837.322.313 0 .592-.107.838-.322.246-.219.436-.531.569-.937.132-.407.199-.881.199-1.424 0-.547-.068-1.022-.205-1.424-.133-.406-.32-.719-.563-.938a1.203 1.203 0 0 0-.837-.328Zm5.912 8.743H60.11v-10.53h1.108v10.53Zm-.622-5.678h-2.988v-.908h2.989v.908Zm7.124-3.926c0 .648-.191 1.246-.574 1.793-.383.547-.902 1.002-1.558 1.365a6.558 6.558 0 0 1-2.157.727l-.445-.897a5.683 5.683 0 0 0 1.88-.58c.575-.297 1.03-.656 1.366-1.078.34-.422.51-.865.51-1.33v-.568h.978v.568Zm.176 0c0 .461.17.904.51 1.33.344.422.804.781 1.383 1.078a5.8 5.8 0 0 0 1.88.58l-.439.897a6.477 6.477 0 0 1-2.162-.733c-.652-.363-1.172-.818-1.559-1.365a3.03 3.03 0 0 1-.58-1.787v-.568h.967v.568Zm-.053 9.574h-1.095v-3.955h1.095v3.955Zm4.26-3.726H62.53v-.926h9.574v.926Zm10.095-.282h-9.61v-.89h9.61v.89Zm-1.213-3.609h-6.059v1.342h-1.101v-2.151h6.046v-.908h-6.076v-.885h7.19v2.602Zm.217 1.799h-7.377v-.861h7.377v.861Zm-3.82 2.443c1.171 0 2.075.145 2.712.434.637.289.955.709.955 1.26 0 .355-.144.658-.433.908-.29.254-.707.445-1.254.574-.543.133-1.203.201-1.98.205-.786-.004-1.454-.072-2.005-.205-.55-.129-.968-.32-1.254-.574-.285-.25-.427-.553-.427-.908 0-.368.142-.676.427-.926.286-.254.704-.445 1.254-.574.551-.129 1.22-.194 2.004-.194Zm0 .821c-.555 0-1.022.033-1.401.099-.375.067-.66.166-.856.299-.195.129-.293.287-.293.475 0 .183.096.339.288.468.19.125.476.221.855.287.383.067.852.1 1.406.1.547 0 1.008-.033 1.383-.1.379-.066.666-.162.861-.287.196-.129.293-.285.293-.468 0-.188-.097-.346-.293-.475-.195-.133-.482-.232-.86-.299a8.151 8.151 0 0 0-1.384-.099Zm-1.05-1.735h-1.095v-1.963h1.095v1.963Zm3.258 0h-1.072v-1.963h1.072v1.963Zm11.782 4.319h-1.119v-10.53h1.12v10.53Zm-5.625-9.739c.524 0 .99.153 1.4.457.41.305.731.735.962 1.289.23.555.345 1.202.345 1.94 0 .742-.115 1.39-.345 1.945-.23.555-.551.984-.961 1.289-.41.301-.877.451-1.4.451-.524 0-.993-.15-1.407-.451-.41-.305-.73-.734-.96-1.289-.231-.555-.347-1.203-.347-1.945 0-.738.116-1.385.346-1.94.23-.554.55-.984.961-1.289a2.317 2.317 0 0 1 1.406-.457Zm0 .996c-.32 0-.605.11-.855.328-.25.219-.444.532-.58.938-.133.402-.2.877-.2 1.424 0 .543.067 1.017.2 1.424.136.406.33.718.58.937.25.215.535.322.855.322.32 0 .604-.107.85-.322.25-.219.443-.531.58-.937.137-.407.205-.881.205-1.424 0-.547-.068-1.022-.205-1.424-.137-.406-.328-.719-.574-.938a1.252 1.252 0 0 0-.856-.328Zm17.605.522h-3.187v-.903h3.187v.903Zm0 2.39h-3.187v-.925h3.187v.925Zm.774 1.184h-1.113v-5.883h1.113v5.883Zm-5.848-5.285c.52-.008.986.094 1.4.305.415.211.741.503.979.878.238.372.357.797.357 1.278 0 .472-.119.894-.357 1.265a2.415 2.415 0 0 1-.978.868c-.415.203-.881.306-1.4.31a3.276 3.276 0 0 1-1.425-.31 2.42 2.42 0 0 1-.978-.868 2.319 2.319 0 0 1-.352-1.265c0-.481.117-.908.352-1.283.238-.379.564-.672.978-.879a3.06 3.06 0 0 1 1.424-.299Zm0 .926a1.835 1.835 0 0 0-.879.181 1.47 1.47 0 0 0-.597.545 1.51 1.51 0 0 0-.217.809c0 .293.072.556.217.791.144.23.343.41.597.539.258.129.551.193.88.193.32 0 .605-.064.855-.193.254-.129.453-.309.597-.539.145-.235.217-.498.217-.791 0-.305-.072-.574-.217-.809a1.47 1.47 0 0 0-.597-.545 1.741 1.741 0 0 0-.856-.181Zm5.93 5.736h-7.16v-.896h7.16v.896Zm.129 3.082h-7.4v-.902h7.4v.902Zm-4.735-.41h-1.09v-3.234h1.09v3.234Zm3.159 0h-1.102v-3.234h1.102v3.234Zm6.724-6.451h1.992v-2.496h1.031v6.943h-4.078v-6.943h1.055v2.496Zm1.992 3.539v-2.649h-1.992v2.649h1.992Zm5.631 3.48h-1.072v-10.5h1.072v10.5Zm-.703-5.472h-1.963v-.909h1.963v.909Zm-1.659 4.957h-1.054v-9.786h1.054v9.786Zm12.093.515h-1.113v-10.5h1.113v10.5Zm-4.945-7.119c0 .734-.125 1.443-.375 2.127a5.549 5.549 0 0 1-1.055 1.805 4.636 4.636 0 0 1-1.553 1.183l-.609-.861c.531-.238 1-.58 1.406-1.025.41-.446.727-.95.949-1.512.227-.563.34-1.135.34-1.717v-.826h.897v.826Zm.199 0c0 .559.115 1.108.346 1.647.234.539.558 1.021.972 1.447.418.426.895.754 1.43.984l-.615.856a4.57 4.57 0 0 1-1.565-1.131 5.527 5.527 0 0 1-1.066-1.746 5.68 5.68 0 0 1-.381-2.057v-.826h.879v.826Zm2.361-.691h-5.847v-.897h5.847v.897Zm-2.361-.41h-1.107v-2.069h1.107v2.069Z" fill="#3F3F43"/><path d="M47.975 279.589c.902 0 1.679.091 2.33.273.657.178 1.163.442 1.518.793.36.347.54.761.54 1.244 0 .474-.18.882-.54 1.224-.355.346-.863.611-1.524.793-.656.187-1.431.28-2.324.28-.88 0-1.65-.093-2.31-.28-.657-.182-1.165-.447-1.525-.793a1.64 1.64 0 0 1-.534-1.224c0-.478.178-.893.534-1.244.36-.351.868-.615 1.524-.793.656-.182 1.426-.273 2.31-.273Zm0 1.135c-.593 0-1.103.045-1.532.136-.428.091-.756.226-.984.404-.223.177-.335.389-.335.635 0 .242.112.447.335.616.228.168.556.298.984.389a7.8 7.8 0 0 0 1.532.13c.606 0 1.12-.043 1.544-.13.429-.091.757-.221.985-.389.232-.174.349-.379.349-.616 0-.246-.117-.458-.35-.635-.227-.178-.555-.313-.983-.404-.424-.091-.94-.136-1.545-.136Zm3.67-7.076h-7.922v-1.203h7.922v1.203Zm2.01 5.039H42.431v-1.231h11.224v1.231Zm-5.373-.882h-1.504v-2.584h1.504v2.584Zm4.013-4.341c0 .665-.02 1.239-.062 1.723a8.056 8.056 0 0 1-.293 1.572l-1.498-.151a8.89 8.89 0 0 0 .267-1.524c.036-.442.057-.982.061-1.62v-1.019h1.525v1.019Zm7.43 6.125c.902 0 1.679.091 2.33.273.657.178 1.162.442 1.518.793.36.347.54.761.54 1.244 0 .474-.18.882-.54 1.224-.356.346-.864.611-1.525.793-.656.187-1.43.28-2.324.28-.88 0-1.65-.093-2.31-.28-.657-.182-1.165-.447-1.525-.793a1.64 1.64 0 0 1-.533-1.224c0-.478.178-.893.533-1.244.36-.351.868-.615 1.525-.793.656-.182 1.426-.273 2.31-.273Zm0 1.135c-.593 0-1.104.045-1.532.136-.428.091-.756.226-.984.404-.224.177-.335.389-.335.635 0 .242.111.447.335.616.227.168.556.298.984.389.428.087.939.13 1.531.13.606 0 1.121-.043 1.545-.13.428-.091.757-.221.985-.389.232-.174.348-.379.348-.616 0-.246-.116-.458-.348-.635-.228-.178-.556-.313-.985-.404-.424-.091-.939-.136-1.545-.136Zm3.67-7.076h-7.923v-1.203h7.923v1.203Zm2.01 5.039H54.18v-1.231h11.225v1.231Zm-5.373-.882h-1.504v-2.584h1.504v2.584Zm4.013-4.341c0 .665-.021 1.239-.062 1.723a8.056 8.056 0 0 1-.294 1.572l-1.497-.151a8.89 8.89 0 0 0 .267-1.524c.036-.442.057-.982.061-1.62v-1.019h1.524v1.019Zm8.153 7.69H66.34v-8.1h5.858v8.1Zm-4.368-1.21h2.858v-5.694H67.83v5.694Zm7.76 4.259H74.07v-12.346h1.518v12.346Zm1.906-6.316h-2.249v-1.279h2.25v1.279Zm7.177-1.313h-2.625v-1.23h2.625v1.23Zm3.609 3.589h-1.45v-8.292h1.45v8.292Zm-2.516-1.101h-1.442v-6.986h1.442v6.986Zm-1.189.711c0 .725-.203 1.393-.608 2.003-.401.611-.967 1.121-1.696 1.532-.724.414-1.56.695-2.508.84l-.609-1.169c.82-.113 1.54-.332 2.16-.656.625-.323 1.105-.706 1.443-1.148.341-.442.512-.909.512-1.402v-.314h1.306v.314Zm.198 0c0 .488.169.955.506 1.402.342.442.825.825 1.45 1.148.624.324 1.341.543 2.153.656l-.595 1.169c-.948-.145-1.787-.426-2.516-.84-.724-.411-1.287-.921-1.688-1.532a3.573 3.573 0 0 1-.602-2.003v-.314h1.292v.314Zm-1.64-6.945c0 1.085-.158 2.065-.472 2.94a6.214 6.214 0 0 1-1.531 2.351c-.702.688-1.623 1.281-2.762 1.777l-.725-1.086c.976-.415 1.76-.894 2.352-1.436.592-.547 1.02-1.155 1.285-1.825.264-.67.397-1.422.397-2.256v-.465h1.456Zm-.985 1.231h-3.869v-1.231h3.87v1.231Zm-4.21 2.563-.206-1.237 3.945-.198v1.039l-3.74.396Zm25.713 1.559H92.401v-1.224h11.252v1.224Zm-1.394 3.862h-7.028v1.258h-1.503v-2.345h7.027v-.827h-7.034v-1.121h8.538v3.035Zm.335 2.064h-8.866v-1.162h8.866v1.162Zm-4.143-10.978c0 .601-.21 1.144-.629 1.627-.414.483-1.002.879-1.763 1.189-.757.31-1.636.508-2.64.595l-.484-1.183c.843-.059 1.583-.198 2.221-.417.638-.218 1.126-.487 1.463-.806.337-.319.506-.654.506-1.005v-.356h1.326v.356Zm.465 0c0 .355.169.693.506 1.012.342.314.832.581 1.47.799.642.219 1.385.358 2.228.417l-.478 1.183c-1.008-.087-1.894-.283-2.66-.588-.76-.31-1.35-.706-1.77-1.189-.415-.483-.622-1.028-.622-1.634v-.356h1.326v.356Zm3.726.362H93.42v-1.203h9.222v1.203Zm11.824 10.712h-1.538v-12.346h1.538v12.346Zm-3.684-11.033c0 1.29-.187 2.472-.561 3.548-.369 1.071-.977 2.057-1.825 2.96-.848.898-1.971 1.679-3.37 2.344l-.807-1.216c1.19-.565 2.156-1.208 2.899-1.928.743-.72 1.287-1.529 1.634-2.427.346-.898.519-1.905.519-3.021v-.26h1.511Zm-.827 1.203h-5.107v-1.203h5.107v1.203Zm16.261 9.83h-1.538v-12.346h1.538v12.346Zm-3.685-11.033c0 1.29-.186 2.472-.56 3.548-.369 1.071-.978 2.057-1.825 2.96-.848.898-1.971 1.679-3.37 2.344l-.807-1.216c1.189-.565 2.156-1.208 2.898-1.928.743-.72 1.288-1.529 1.634-2.427.347-.898.52-1.905.52-3.021v-.26h1.51Zm-.827 1.203h-5.106v-1.203h5.106v1.203Z" fill="#5C4795"/><path d="M47.127 302.1c.762 0 1.42.076 1.975.228.554.149.982.369 1.283.662.3.293.45.645.45 1.055 0 .398-.15.742-.45 1.031-.301.289-.73.512-1.29.668-.558.156-1.214.235-1.968.235-.75 0-1.402-.079-1.957-.235-.555-.156-.983-.379-1.283-.668a1.382 1.382 0 0 1-.452-1.031c0-.406.15-.756.452-1.049.3-.297.728-.519 1.283-.668.555-.152 1.207-.228 1.957-.228Zm0 .838c-.527 0-.986.044-1.377.134-.39.086-.691.213-.902.381-.207.164-.31.361-.31.592 0 .219.103.41.31.574.21.16.511.283.902.369.39.082.85.123 1.377.123.535 0 .996-.041 1.383-.123.39-.086.691-.211.902-.375.211-.164.316-.353.316-.568 0-.231-.105-.428-.316-.592-.21-.168-.512-.295-.902-.381a6.178 6.178 0 0 0-1.383-.134Zm3.164-6.036h-6.773v-.89h6.773v.89Zm1.658 4.325h-9.545v-.903h9.545v.903Zm-4.623-.639H46.23v-2.233h1.096v2.233Zm3.44-3.703c0 .57-.018 1.058-.053 1.465a7.31 7.31 0 0 1-.246 1.336l-1.09-.124c.125-.484.201-.916.228-1.294.032-.379.05-.84.053-1.383v-.873h1.108v.873Zm6.432 5.215c.762 0 1.42.076 1.975.228.554.149.982.369 1.283.662.3.293.451.645.451 1.055 0 .398-.15.742-.451 1.031-.3.289-.73.512-1.29.668-.558.156-1.214.235-1.968.235-.75 0-1.402-.079-1.957-.235-.555-.156-.982-.379-1.283-.668a1.382 1.382 0 0 1-.451-1.031c0-.406.15-.756.45-1.049.302-.297.73-.519 1.284-.668.555-.152 1.207-.228 1.957-.228Zm0 .838c-.527 0-.986.044-1.377.134-.39.086-.691.213-.902.381-.207.164-.31.361-.31.592 0 .219.103.41.31.574.21.16.512.283.902.369.39.082.85.123 1.377.123.535 0 .996-.041 1.383-.123.39-.086.691-.211.902-.375.211-.164.317-.353.317-.568 0-.231-.106-.428-.317-.592-.21-.168-.511-.295-.902-.381a6.178 6.178 0 0 0-1.383-.134Zm3.164-6.036H53.59v-.89h6.773v.89Zm1.658 4.325h-9.545v-.903h9.545v.903Zm-4.623-.639h-1.095v-2.233h1.095v2.233Zm3.44-3.703c0 .57-.018 1.058-.053 1.465a7.31 7.31 0 0 1-.246 1.336l-1.09-.124a7.39 7.39 0 0 0 .229-1.294c.03-.379.048-.84.052-1.383v-.873h1.108v.873Zm7.006 6.474h-4.91v-6.826h4.91v6.826Zm-3.826-.896h2.719v-5.051h-2.719v5.051Zm6.692 3.527H69.6v-10.5h1.108v10.5Zm1.693-5.437h-1.945v-.949h1.945v.949Zm6.286-1.131h-2.285v-.908h2.285v.908Zm2.9 3.17h-1.06v-7.09h1.06v7.09Zm-2.103-.938h-1.06v-5.97h1.06v5.97Zm-1.067.639a2.84 2.84 0 0 1-.539 1.676c-.355.508-.844.931-1.465 1.271a6.311 6.311 0 0 1-2.068.703l-.44-.861a5.623 5.623 0 0 0 1.8-.557c.542-.277.972-.609 1.288-.996.317-.39.475-.802.475-1.236v-.311h.95v.311Zm.153 0c0 .43.156.84.469 1.23.316.391.745.725 1.288 1.002a5.752 5.752 0 0 0 1.805.557l-.44.861a6.375 6.375 0 0 1-2.073-.703c-.618-.34-1.106-.763-1.465-1.271a2.86 2.86 0 0 1-.534-1.676v-.311h.95v.311Zm-1.301-5.947c0 .898-.137 1.718-.41 2.461a5.329 5.329 0 0 1-1.319 1.998c-.605.59-1.392 1.093-2.36 1.511l-.534-.802c.847-.36 1.533-.78 2.056-1.26.524-.481.905-1.016 1.143-1.606a5.253 5.253 0 0 0 .358-1.974v-.328h1.066Zm-.703.908h-3.41v-.908h3.41v.908Zm-3.733 2.203-.164-.914 3.48-.199v.761l-3.316.352Zm13.879-.486h1.992v-2.496h1.031v6.943h-4.078v-6.943h1.055v2.496Zm1.992 3.539v-2.649h-1.992v2.649h1.992Zm5.63 3.48h-1.071v-10.5h1.072v10.5Zm-.702-5.472H91.67v-.909h1.963v.909Zm-1.658 4.957H90.92v-9.786h1.055v9.786Zm12.092.515h-1.113v-10.5h1.113v10.5Zm-4.945-7.119c0 .734-.125 1.443-.375 2.127a5.55 5.55 0 0 1-1.055 1.805c-.453.519-.97.914-1.552 1.183l-.61-.861c.531-.238 1-.58 1.406-1.025.41-.446.727-.95.95-1.512a4.56 4.56 0 0 0 .34-1.717v-.826h.896v.826Zm.2 0c0 .559.114 1.108.345 1.647.234.539.558 1.021.972 1.447.418.426.895.754 1.43.984l-.615.856a4.564 4.564 0 0 1-1.564-1.131 5.527 5.527 0 0 1-1.067-1.746 5.682 5.682 0 0 1-.38-2.057v-.826h.878v.826Zm2.36-.691h-5.847v-.897h5.847v.897Zm-2.36-.41h-1.108v-2.069h1.107v2.069Z" fill="#3F3F43"/><path d="M47.975 340.589c.902 0 1.679.091 2.33.273.657.178 1.163.442 1.518.793.36.347.54.761.54 1.244 0 .474-.18.882-.54 1.224-.355.346-.863.611-1.524.793-.656.187-1.431.28-2.324.28-.88 0-1.65-.093-2.31-.28-.657-.182-1.165-.447-1.525-.793a1.64 1.64 0 0 1-.534-1.224c0-.478.178-.893.534-1.244.36-.351.868-.615 1.524-.793.656-.182 1.426-.273 2.31-.273Zm0 1.135c-.593 0-1.103.045-1.532.136-.428.091-.756.226-.984.404-.223.177-.335.389-.335.635 0 .242.112.447.335.616.228.168.556.298.984.389a7.8 7.8 0 0 0 1.532.13c.606 0 1.12-.043 1.544-.13.429-.091.757-.221.985-.389.232-.174.349-.379.349-.616 0-.246-.117-.458-.35-.635-.227-.178-.555-.313-.983-.404-.424-.091-.94-.136-1.545-.136Zm3.67-7.076h-7.922v-1.203h7.922v1.203Zm2.01 5.039H42.431v-1.231h11.224v1.231Zm-5.373-.882h-1.504v-2.584h1.504v2.584Zm4.013-4.341c0 .665-.02 1.239-.062 1.723a8.056 8.056 0 0 1-.293 1.572l-1.498-.151a8.89 8.89 0 0 0 .267-1.524c.036-.442.057-.982.061-1.62v-1.019h1.525v1.019Zm6.178.157a5.91 5.91 0 0 1-.417 2.222 5.212 5.212 0 0 1-1.21 1.811 5.072 5.072 0 0 1-1.907 1.149l-.766-1.197a4.665 4.665 0 0 0 1.655-.943 4.01 4.01 0 0 0 1.374-3.042v-1.183h1.271v1.183Zm.301 0c0 .556.112 1.082.335 1.579.223.497.558.937 1.005 1.32.451.382.996.676 1.634.881l-.76 1.197a5.104 5.104 0 0 1-1.893-1.101 4.796 4.796 0 0 1-1.19-1.723 5.653 5.653 0 0 1-.403-2.153v-1.183h1.272v1.183Zm5.674 10.582h-1.525v-3.165h-6.897v-1.23h8.422v4.395Zm0-4.949h-1.525v-7.397h1.525v7.397Zm14.346 4.806h-8.566v-3.589h8.566v3.589Zm-7.069-1.149h5.585v-1.299h-5.585v1.299Zm7.82-8.962H69.45v-1.148h10.097v1.148Zm-5.017.376c1.33.005 2.345.155 3.042.451.702.292 1.053.727 1.053 1.306 0 .579-.351 1.019-1.053 1.319-.697.297-1.711.445-3.042.445-1.326 0-2.345-.148-3.056-.445-.706-.3-1.06-.74-1.06-1.319s.354-1.014 1.06-1.306c.711-.296 1.73-.446 3.056-.451Zm0 1.032c-.574 0-1.041.028-1.401.082-.36.051-.631.128-.814.233-.182.105-.273.241-.273.41 0 .155.091.287.273.397.187.109.463.191.827.246.365.054.828.084 1.388.088.56-.004 1.021-.034 1.381-.088.365-.055.638-.137.82-.246.183-.11.274-.242.274-.397 0-.169-.091-.305-.274-.41-.182-.105-.453-.182-.813-.233a9.567 9.567 0 0 0-1.388-.082Zm.752-1.756h-1.517v-1.873h1.517v1.873Zm4.874 6.138H68.902v-1.196h11.252v1.196Zm-4.874-.533h-1.517v-1.75h1.517v1.75Zm16.104 4.997h-1.456v-12.346h1.456v12.346Zm-3.466-6.419H86.1v-1.367h1.818v1.367Zm.998 5.818h-1.442v-11.485h1.442v11.485Zm-2.508-9.051h-5.654v-1.231h5.654v1.231Zm-5.893 5.496c1.094 0 2.178-.018 3.254-.055a29.77 29.77 0 0 0 2.871-.232l.103 1.1c-.857.174-1.814.292-2.871.356a56.92 56.92 0 0 1-3.186.089l-.171-1.258Zm2.481.355h-1.373V335.1h1.373v6.302Zm2.55 0h-1.394V335.1h1.394v6.302Zm17.13 3.835h-1.538v-12.38h1.538v12.38Zm-6.658-11.477c.62 0 1.173.18 1.66.54.488.355.869.863 1.142 1.524.274.656.41 1.422.41 2.297 0 .88-.136 1.65-.41 2.311-.273.656-.654 1.164-1.141 1.524-.488.36-1.042.54-1.661.54-.625 0-1.18-.18-1.668-.54-.488-.36-.87-.868-1.149-1.524-.273-.661-.41-1.431-.41-2.311 0-.875.137-1.641.41-2.297.278-.661.661-1.169 1.149-1.524a2.736 2.736 0 0 1 1.668-.54Zm0 1.367a1.314 1.314 0 0 0-.923.355c-.265.237-.47.581-.615 1.033-.146.451-.22.986-.22 1.606 0 .62.074 1.158.22 1.613.145.452.35.796.615 1.033.269.232.576.348.923.348.346 0 .651-.116.916-.348.264-.237.469-.581.615-1.033.146-.455.219-.993.219-1.613s-.073-1.155-.22-1.606c-.145-.452-.35-.796-.614-1.033a1.276 1.276 0 0 0-.916-.355Zm12.481 1.23c0 .93-.146 1.828-.438 2.694a7.504 7.504 0 0 1-1.23 2.303c-.534.67-1.156 1.174-1.867 1.511l-.881-1.196a4.95 4.95 0 0 0 1.674-1.292 6.25 6.25 0 0 0 1.504-4.02v-1.627h1.238v1.627Zm.307 0c0 .689.128 1.363.383 2.024.26.661.629 1.255 1.107 1.784a4.867 4.867 0 0 0 1.689 1.196l-.827 1.197a5.325 5.325 0 0 1-1.901-1.429 6.658 6.658 0 0 1-1.23-2.174 7.95 7.95 0 0 1-.424-2.598v-1.627h1.203v1.627Zm2.707-1.032h-6.966v-1.244h6.966v1.244Zm2.912 9.878h-1.538v-12.346h1.538v12.346Zm13.683-8.251h-2.536v-1.251h2.536v1.251Zm1.114 2.646h-1.51v-6.741h1.51v6.741Zm-6.624 1.811h5.114v-1.285h1.51v4.936h-8.134v-4.936h1.51v1.285Zm5.114 2.427v-1.244h-5.114v1.244h5.114Zm-4.594-9.133c0 .77-.137 1.497-.41 2.181a5.141 5.141 0 0 1-1.19 1.791 4.89 4.89 0 0 1-1.88 1.141l-.786-1.196a4.902 4.902 0 0 0 1.641-.936c.456-.406.8-.864 1.032-1.374a3.857 3.857 0 0 0 .349-1.607v-.889h1.244v.889Zm.301.014c0 .501.111.993.335 1.476.223.479.553.912.991 1.299.437.383.964.679 1.579.889l-.759 1.169a5.012 5.012 0 0 1-1.839-1.101 4.885 4.885 0 0 1-1.155-1.688 5.4 5.4 0 0 1-.39-2.044v-.903h1.238v.903Zm2.563.007h-6.685v-1.238h6.685v1.238Zm15.92 5.434h-11.266v-1.23h11.266v1.23Zm-4.908-.69h-1.498v-2.256h1.498v2.256Zm-.233-5.941c0 .743-.21 1.42-.629 2.031-.419.606-1.005 1.114-1.757 1.524-.752.41-1.611.69-2.577.841l-.553-1.196c.834-.105 1.572-.317 2.214-.636.643-.324 1.137-.709 1.484-1.155.351-.447.526-.916.526-1.409v-.465h1.292v.465Zm.253 0c0 .506.173.982.52 1.429.351.442.85.823 1.497 1.142.647.314 1.39.524 2.228.629l-.595 1.196c-.966-.151-1.822-.429-2.57-.834-.747-.41-1.331-.921-1.75-1.531a3.535 3.535 0 0 1-.622-2.031v-.465h1.292v.465Zm3.5 11.676h-1.524v-2.871h-7.11v-1.189h8.634v4.06Zm11.545 0h-1.504v-12.346h1.504v12.346Zm1.907-6.166h-2.249v-1.251h2.249v1.251Zm-4.368-3.062h-7.281v-1.224h7.281v1.224Zm-3.603.799c.597 0 1.13.126 1.6.376a2.77 2.77 0 0 1 1.114 1.033c.269.442.403.943.403 1.504 0 .556-.134 1.057-.403 1.503a2.77 2.77 0 0 1-1.114 1.033c-.47.246-1.003.369-1.6.369a3.416 3.416 0 0 1-1.599-.369 2.773 2.773 0 0 1-1.115-1.033 2.894 2.894 0 0 1-.396-1.503c0-.561.132-1.062.396-1.504a2.773 2.773 0 0 1 1.115-1.033 3.372 3.372 0 0 1 1.599-.376Zm0 1.251c-.314 0-.599.069-.854.205a1.52 1.52 0 0 0-.595.582c-.141.25-.212.542-.212.875 0 .328.071.617.212.868.146.25.344.444.595.581.255.132.54.198.854.198.324 0 .611-.066.861-.198.251-.137.447-.331.588-.581a1.73 1.73 0 0 0 .212-.868c0-.333-.07-.625-.212-.875a1.47 1.47 0 0 0-.588-.582 1.773 1.773 0 0 0-.861-.205Zm.752-2.782h-1.511v-2.208h1.511v2.208Zm17.704 9.96h-1.538v-12.346h1.538v12.346Zm-3.685-11.033c0 1.29-.187 2.472-.56 3.548-.369 1.071-.978 2.057-1.826 2.96-.847.898-1.971 1.679-3.37 2.344l-.806-1.216c1.189-.565 2.155-1.208 2.898-1.928.743-.72 1.288-1.529 1.634-2.427.346-.898.519-1.905.519-3.021v-.26h1.511Zm-.827 1.203h-5.106v-1.203h5.106v1.203Z" fill="#5C4795"/><path d="M47.525 357.984c0 .735-.197 1.424-.591 2.069a5.32 5.32 0 0 1-1.565 1.629 6.098 6.098 0 0 1-2.139.925l-.498-.931a5.564 5.564 0 0 0 1.881-.75 4.648 4.648 0 0 0 1.407-1.33c.351-.52.527-1.057.527-1.612v-.785h.978v.785Zm.194 0c0 .551.178 1.088.533 1.612.355.523.828.97 1.418 1.342.59.367 1.217.613 1.88.738l-.497.931a6.166 6.166 0 0 1-2.127-.919 5.297 5.297 0 0 1-1.57-1.629 3.905 3.905 0 0 1-.592-2.075v-.785h.955v.785Zm4.277 7.629h-9.61v-.92h9.61v.92Zm1.575-4.324c.879 0 1.592-.018 2.139-.053.55-.035 1.101-.105 1.652-.211l.111.891c-.582.109-1.152.184-1.71.223-.555.035-1.286.05-2.192.047h-.674v-.897h.674Zm3.422-3.228h-3.035v3.796h-1.06v-4.699h4.095v.903Zm-.111 2.003H53.63v-.878h3.252v.878Zm4.529 2.631h-1.06v-6.193h1.06v6.193Zm-.709-2.648H58.78v-.926h1.922v.926Zm-1.635 2.525h-1.031v-5.877h1.031v5.877Zm2.344 4.289h-7.014v-3.685h7.014v3.685Zm-5.918-.902h4.822v-1.898h-4.822v1.898Zm16.645-.27h-9.61v-.937h9.61v.937Zm-.879-7.277h-7.916v-.908h7.916v.908Zm-.029 4.4h-7.852v-.89h7.852v.89Zm-5.186-.791h-1.107v-3.691h1.108v3.691Zm3.616 0h-1.096v-3.691h1.096v3.691Zm15.167 1.706h-9.609v-.915h9.61v.915Zm-4.271 3.263H79.46v-3.896h1.096v3.896Zm3.21-5.156h-7.288v-.896h7.289v.896Zm-.116-3.979h-6.07v3.323h-1.102v-4.213h7.172v.89Zm-.24 1.952h-6.147v-.873h6.146v.873Zm4.738-2.526a2.2 2.2 0 0 1 1.371.457c.403.305.717.735.944 1.289.227.555.34 1.202.34 1.94 0 .742-.114 1.39-.34 1.945-.227.555-.541.984-.944 1.289a2.213 2.213 0 0 1-1.37.451c-.516 0-.977-.15-1.383-.451-.403-.301-.717-.728-.944-1.283-.226-.559-.34-1.209-.34-1.951 0-.738.114-1.385.34-1.94.227-.554.541-.984.944-1.289a2.25 2.25 0 0 1 1.382-.457Zm0 .996c-.312 0-.591.11-.837.328-.247.219-.436.532-.569.938-.129.402-.193.877-.193 1.424 0 .543.064 1.017.193 1.424.133.406.322.718.569.937.246.215.525.322.837.322.313 0 .592-.107.838-.322.246-.219.436-.531.569-.937.132-.407.199-.881.199-1.424 0-.547-.069-1.022-.205-1.424-.133-.406-.32-.719-.563-.938a1.202 1.202 0 0 0-.838-.328Zm5.913 8.743h-1.108v-10.53h1.108v10.53Zm-.622-5.678h-2.988v-.908h2.989v.908Zm13.645 5.648h-1.067v-10.5h1.067v10.5Zm-2.789-5.566h-1.659v-.996h1.659v.996Zm.714 5.033h-1.054v-9.727h1.054v9.727Zm-2.086-7.764h-4.822v-.908h4.822v.908Zm-5.039 4.834c.922 0 1.85-.015 2.784-.047a25.444 25.444 0 0 0 2.472-.199l.071.809c-.731.144-1.551.242-2.461.293-.91.051-1.82.076-2.73.076l-.136-.932Zm2.04.27h-1.008v-5.438h1.007v5.438Zm2.185 0h-1.025v-5.438h1.025v5.438Zm14.665 3.223h-1.119v-10.53h1.119v10.53Zm-5.625-9.739c.523 0 .99.153 1.4.457.41.305.731.735.961 1.289.231.555.346 1.202.346 1.94 0 .742-.115 1.39-.346 1.945-.23.555-.551.984-.961 1.289-.41.301-.877.451-1.4.451a2.33 2.33 0 0 1-1.406-.451c-.411-.305-.731-.734-.961-1.289-.231-.555-.346-1.203-.346-1.945 0-.738.115-1.385.346-1.94.23-.554.55-.984.961-1.289a2.315 2.315 0 0 1 1.406-.457Zm0 .996c-.32 0-.606.11-.856.328-.25.219-.443.532-.58.938-.133.402-.199.877-.199 1.424 0 .543.066 1.017.199 1.424.137.406.33.718.58.937.25.215.536.322.856.322.32 0 .603-.107.849-.322.25-.219.444-.531.581-.937.136-.407.205-.881.205-1.424 0-.547-.069-1.022-.205-1.424-.137-.406-.329-.719-.575-.938a1.251 1.251 0 0 0-.855-.328Zm10.645 1.313c0 .754-.131 1.492-.392 2.215a6.63 6.63 0 0 1-1.079 1.922c-.457.558-.974.978-1.552 1.259l-.657-.873c.52-.25.991-.615 1.413-1.095a5.655 5.655 0 0 0 .99-1.623 4.81 4.81 0 0 0 .363-1.805v-1.559h.914v1.559Zm.211 0c0 .578.117 1.152.352 1.722a4.98 4.98 0 0 0 .99 1.524c.426.445.904.783 1.435 1.014l-.615.873a4.67 4.67 0 0 1-1.588-1.184 5.82 5.82 0 0 1-1.078-1.81 6.095 6.095 0 0 1-.381-2.139v-1.559h.885v1.559Zm2.402-1.119h-5.923v-.914h5.923v.914Zm2.438 8.519h-1.119v-10.5h1.119v10.5Zm11.939-7.09h-2.268v-.925h2.268v.925Zm.803 2.309h-1.102v-5.719h1.102v5.719Zm-5.725 1.682h4.623v-1.207h1.102v4.177h-6.838v-4.177h1.113v1.207Zm4.623 2.068v-1.195h-4.623v1.195h4.623Zm-4.096-7.828a4.558 4.558 0 0 1-1.388 3.299 4.397 4.397 0 0 1-1.565.961l-.58-.879a4.183 4.183 0 0 0 1.383-.803c.398-.348.703-.744.914-1.189.215-.446.322-.909.322-1.389v-.82h.914v.82Zm.211.006c0 .433.102.859.305 1.277.207.414.5.787.879 1.119.383.332.832.586 1.348.762l-.569.861a4.415 4.415 0 0 1-1.529-.926 4.166 4.166 0 0 1-.99-1.4 4.228 4.228 0 0 1-.346-1.693v-.826h.902v.826Zm2.262-.147h-5.672v-.914h5.672v.914Zm13.651 4.629h-9.597v-.908h9.597v.908Zm-4.271-.51h-1.096v-1.933h1.096v1.933Zm-.164-5.004c0 .614-.188 1.174-.563 1.682-.371.508-.877.932-1.517 1.272a6.88 6.88 0 0 1-2.121.703l-.411-.885a5.98 5.98 0 0 0 1.846-.545c.563-.273 1.006-.605 1.33-.996.324-.391.487-.801.487-1.231v-.445h.949v.445Zm.176 0c0 .434.164.846.492 1.237.328.39.773.722 1.336.996a6.15 6.15 0 0 0 1.851.539l-.445.885a6.936 6.936 0 0 1-2.109-.698c-.633-.339-1.137-.765-1.512-1.277a2.804 2.804 0 0 1-.557-1.682v-.445h.944v.445Zm3.058 9.885h-1.113v-2.56h-6.223v-.879h7.336v3.439Zm7.961-7.828c0 .828-.127 1.621-.381 2.379a6.575 6.575 0 0 1-1.067 1.998 4.633 4.633 0 0 1-1.599 1.307l-.697-.932a4.234 4.234 0 0 0 1.459-1.102 5.457 5.457 0 0 0 1.001-1.693c.243-.64.364-1.293.364-1.957v-1.799h.92v1.799Zm.199 0c0 .637.117 1.26.351 1.869.239.61.569 1.153.991 1.629a4.24 4.24 0 0 0 1.435 1.072l-.668.885a4.698 4.698 0 0 1-1.582-1.254 6.139 6.139 0 0 1-1.072-1.922 6.852 6.852 0 0 1-.381-2.279v-1.799h.926v1.799Zm4.846 7.858h-1.12v-10.53h1.12v10.53Zm7.439-7.43c0 .742-.129 1.476-.387 2.203a6.465 6.465 0 0 1-1.061 1.928c-.453.562-.961.984-1.523 1.265l-.668-.873a4.41 4.41 0 0 0 1.412-1.107 5.763 5.763 0 0 0 .984-1.629 4.745 4.745 0 0 0 .364-1.787v-1.559h.879v1.559Zm.222 0c0 .555.112 1.113.334 1.676a5.35 5.35 0 0 0 .949 1.529c.411.461.875.812 1.395 1.055l-.627.873a4.462 4.462 0 0 1-1.523-1.207 6.187 6.187 0 0 1-1.043-1.834 6.171 6.171 0 0 1-.369-2.092v-1.559h.884v1.559Zm2.28-1.119h-5.748v-.914h5.748v.914Zm2.238 8.519h-1.108v-10.5h1.108v10.5Zm1.693-5.39h-1.945v-.938h1.945v.938Zm9.784.896h-9.586v-.891h9.586v.891Zm-4.254-.521h-1.084v-2.022h1.084v2.022Zm3.141-1.483h-7.272v-.89h7.272v.89Zm-.065-2.637h-6.111v2.303h-1.096v-3.181h7.207v.878Zm-3.626 5.321c.753 0 1.402.074 1.945.222.547.149.963.366 1.248.651.289.285.433.631.433 1.037 0 .402-.144.746-.433 1.031-.285.285-.699.502-1.242.651-.543.148-1.194.224-1.951.228-.758-.004-1.411-.08-1.958-.228-.546-.149-.964-.366-1.253-.651a1.396 1.396 0 0 1-.434-1.031c0-.406.145-.752.434-1.037.289-.285.707-.502 1.253-.651.547-.148 1.2-.222 1.958-.222Zm0 .867c-.536 0-.991.041-1.366.123-.375.078-.66.195-.855.352-.195.156-.293.345-.293.568 0 .223.098.412.293.568.195.157.48.274.855.352.375.078.83.117 1.366.117.535 0 .988-.039 1.359-.117.375-.078.66-.195.855-.352.196-.16.293-.349.293-.568 0-.223-.097-.412-.293-.568-.195-.157-.482-.274-.861-.352a6.425 6.425 0 0 0-1.353-.123Zm17.517-.486h-9.61v-.891h9.61v.891Zm-4.283 3.433h-1.096v-3.914h1.096v3.914Zm-3.03-8.701h4.992v-1.371h1.12v4.564h-7.213v-4.564h1.101v1.371Zm4.992 2.291v-1.4h-4.992v1.4h4.992Zm10.681-.885h-3.129v-.92h3.129v.92Zm0 3.293h-3.129v-.908h3.129v.908Zm-5.039-5.707c.515 0 .972.153 1.371.457.402.305.717.735.943 1.289.227.555.34 1.202.34 1.94 0 .742-.113 1.39-.34 1.945-.226.555-.541.984-.943 1.289a2.215 2.215 0 0 1-1.371.451c-.516 0-.977-.15-1.383-.451-.402-.301-.717-.728-.943-1.283-.227-.559-.34-1.209-.34-1.951 0-.738.113-1.385.34-1.94.226-.554.541-.984.943-1.289a2.249 2.249 0 0 1 1.383-.457Zm0 .996c-.313 0-.592.11-.838.328-.246.219-.436.532-.568.938-.129.402-.194.877-.194 1.424 0 .543.065 1.017.194 1.424.132.406.322.718.568.937.246.215.525.322.838.322.312 0 .592-.107.838-.322.246-.219.435-.531.568-.937.133-.407.199-.881.199-1.424 0-.547-.068-1.022-.205-1.424-.133-.406-.32-.719-.562-.938a1.204 1.204 0 0 0-.838-.328Zm5.912 8.743h-1.108v-10.53h1.108v10.53Z" fill="#3F3F43"/><path d="M53.696 401.179H42.403v-1.217h11.293v1.217Zm-4.785 2.276h-1.538v-2.7h1.538v2.7Zm3.534 2.529h-8.668v-1.257h8.668v1.257Zm-7.13-.916h-1.538v-2.761h1.538v2.761Zm2.728-10.944c.884 0 1.659.105 2.324.314.666.21 1.18.504 1.545.882.37.379.554.825.554 1.34 0 .511-.185.955-.554 1.333-.364.378-.88.67-1.545.875-.665.205-1.44.308-2.324.308-.884 0-1.661-.103-2.331-.308-.67-.205-1.19-.497-1.559-.875a1.846 1.846 0 0 1-.553-1.333c0-.515.184-.961.553-1.34.37-.378.889-.672 1.559-.882.67-.209 1.447-.314 2.331-.314Zm0 1.21c-.565 0-1.06.052-1.483.157-.424.1-.75.251-.978.451-.228.201-.342.44-.342.718 0 .269.114.501.342.697.228.192.554.34.978.445.423.1.918.15 1.483.15.57 0 1.064-.05 1.483-.15.42-.105.74-.253.964-.445.228-.196.342-.428.342-.697 0-.278-.114-.517-.342-.718-.223-.2-.544-.351-.964-.451a6.162 6.162 0 0 0-1.483-.157Zm15.359 2.844h-2.516v-1.238h2.516v1.238Zm1.107 3.028h-1.517v-7.349h1.517v7.349Zm-4.176.308c.875 0 1.627.093 2.256.28.633.182 1.118.451 1.456.807.337.35.505.772.505 1.264s-.168.914-.505 1.265c-.338.351-.823.617-1.456.8-.63.187-1.381.285-2.256.294-.866-.009-1.616-.107-2.25-.294-.628-.183-1.114-.449-1.456-.8a1.761 1.761 0 0 1-.505-1.265c0-.492.168-.914.505-1.264.342-.356.828-.625 1.457-.807.633-.187 1.383-.28 2.249-.28Zm0 1.162c-.57 0-1.058.045-1.463.136-.406.087-.713.219-.923.397a.828.828 0 0 0-.315.656c0 .246.105.458.315.636.21.178.517.314.923.41.405.091.893.137 1.463.137.578 0 1.068-.046 1.47-.137.405-.096.71-.232.915-.41.21-.178.315-.39.315-.636a.828.828 0 0 0-.315-.656c-.205-.178-.51-.31-.916-.397-.4-.091-.89-.136-1.47-.136Zm-1.935-6.693c0 .78-.137 1.516-.41 2.208a5.174 5.174 0 0 1-1.19 1.812 4.966 4.966 0 0 1-1.88 1.169l-.792-1.21a4.756 4.756 0 0 0 1.654-.95 4.118 4.118 0 0 0 1.025-1.408 3.964 3.964 0 0 0 .349-1.621v-.881h1.244v.881Zm.3-.013c0 .515.11 1.011.329 1.49.223.478.554.909.991 1.292.442.378.97.674 1.586.889l-.759 1.203a4.879 4.879 0 0 1-1.839-1.101 4.998 4.998 0 0 1-1.155-1.709 5.524 5.524 0 0 1-.39-2.064v-.868H58.7v.868Zm2.564-.075h-6.685v-1.238h6.685v1.238Zm14.922 2.208h-4.286v-1.183h4.286v1.183Zm-.075-2.612h-2.687v1.819h-1.524v-3.022h4.21v1.203Zm-4.915 0h-2.707v1.819h-1.532v-3.022h4.239v1.203Zm-3.487 1.429c.743 0 1.393-.023 1.949-.068a12.696 12.696 0 0 0 1.695-.26l.164 1.182c-.615.123-1.217.21-1.805.26-.588.046-1.255.069-2.003.069h-.752v-1.183h.752Zm9.461 3.199H65.916v-1.217h11.252v1.217Zm-1.394 3.903h-7.028v1.258h-1.504v-2.331h7.028v-.813h-7.034v-1.128h8.538v3.014Zm.335 2.079h-8.867v-1.169h8.867v1.169Zm15.836-1.32H80.652v-1.271h11.293v1.271Zm-4.943-.697h-1.504v-3.534h1.504v3.534Zm3.952-7.902h-9.386v-1.224h9.386v1.224Zm-.048 4.894h-9.29v-1.196h9.29v1.196Zm-6.03-1.025h-1.524v-4.122h1.524v4.122Zm4.273 0h-1.497v-4.122h1.497v4.122Zm13.288 1.244h-8.668v-1.21h8.668v1.21Zm1.257 3.479H92.401v-1.223h11.293v1.223Zm-4.908-.683H97.27v-3.398h1.517v3.398Zm3.541-8.094h-7.013v4.566h-1.545v-5.796h8.558v1.23Zm-.28 2.611h-7.191v-1.203h7.191v1.203Zm8.038-3.165c0 .666-.196 1.279-.588 1.839-.392.556-.953 1.021-1.682 1.395-.729.373-1.579.624-2.55.752l-.553-1.217c.815-.091 1.528-.276 2.139-.554.611-.278 1.078-.61 1.402-.998.323-.387.485-.793.485-1.217v-.328h1.347v.328Zm.711 0c0 .424.164.83.492 1.217.328.388.8.72 1.415.998s1.328.463 2.139.554l-.567 1.217c-.966-.128-1.816-.379-2.55-.752-.729-.374-1.294-.839-1.695-1.395a3.094 3.094 0 0 1-.595-1.839v-.328h1.361v.328Zm3.595.192h-9.221v-1.224h9.221v1.224Zm-.26 10.349h-8.592v-1.244h8.592v1.244Zm-7.068-.765h-1.524v-2.782h1.524v2.782Zm8.354-3.616h-11.266v-1.231h11.266v1.231Zm-4.909-.711h-1.497v-2.352h1.497v2.352Zm19.63-.711h-11.251v-1.224h11.251v1.224Zm-1.394 3.862h-7.027v1.258h-1.504v-2.345h7.027v-.827h-7.034v-1.121h8.538v3.035Zm.335 2.064h-8.866v-1.162h8.866v1.162Zm-4.143-10.978c0 .601-.209 1.144-.629 1.627-.414.483-1.002.879-1.763 1.189-.757.31-1.636.508-2.639.595l-.485-1.183c.843-.059 1.583-.198 2.221-.417.638-.218 1.126-.487 1.463-.806.338-.319.506-.654.506-1.005v-.356h1.326v.356Zm.465 0c0 .355.169.693.506 1.012.342.314.832.581 1.47.799.642.219 1.385.358 2.228.417l-.478 1.183c-1.007-.087-1.894-.283-2.659-.588-.761-.31-1.352-.706-1.771-1.189-.415-.483-.622-1.028-.622-1.634v-.356h1.326v.356Zm3.726.362h-9.222v-1.203h9.222v1.203Zm11.825 10.712h-1.539v-12.346h1.539v12.346Zm-3.685-11.033c0 1.29-.187 2.472-.561 3.548-.369 1.071-.977 2.057-1.825 2.96-.847.898-1.971 1.679-3.37 2.344l-.807-1.216c1.19-.565 2.156-1.208 2.899-1.928.743-.72 1.287-1.529 1.634-2.427.346-.898.519-1.905.519-3.021v-.26h1.511Zm-.827 1.203h-5.107v-1.203h5.107v1.203Zm16.261 9.83h-1.538v-12.346h1.538v12.346Zm-3.684-11.033c0 1.29-.187 2.472-.561 3.548-.369 1.071-.977 2.057-1.825 2.96-.848.898-1.971 1.679-3.37 2.344l-.807-1.216c1.19-.565 2.156-1.208 2.899-1.928.742-.72 1.287-1.529 1.633-2.427.347-.898.52-1.905.52-3.021v-.26h1.511Zm-.828 1.203h-5.106v-1.203h5.106v1.203Z" fill="#5C4795"/><path d="M51.984 423.66h-9.609v-.902h9.61v.902Zm-4.16 2.039H46.7v-2.361h1.125v2.361Zm3.094 2.086h-7.336v-.931h7.336v.931Zm-6.217-.668h-1.119v-2.431h1.12v2.431Zm2.473-9.381c.75 0 1.404.088 1.963.264.562.176.996.424 1.3.744.31.32.463.697.463 1.131 0 .43-.154.805-.462 1.125-.305.316-.739.561-1.301.732-.559.172-1.213.258-1.963.258-.746 0-1.402-.086-1.969-.258-.562-.171-1-.416-1.312-.732a1.569 1.569 0 0 1-.463-1.125c0-.434.154-.811.463-1.131.312-.32.75-.568 1.312-.744.567-.176 1.223-.264 1.969-.264Zm0 .897c-.508 0-.955.051-1.342.152-.387.098-.685.24-.897.428a.854.854 0 0 0-.31.662c0 .25.103.467.31.65.212.18.51.321.897.422.387.098.834.147 1.342.147.511 0 .959-.049 1.342-.147.382-.101.677-.242.884-.422.211-.183.317-.4.317-.65a.847.847 0 0 0-.317-.662c-.207-.188-.502-.33-.884-.428a5.291 5.291 0 0 0-1.342-.152Zm13.24 2.449h-2.267v-.914h2.268v.914Zm.798 2.66h-1.114v-6.252h1.114v6.252Zm-3.522.299c.739 0 1.373.078 1.904.234.536.157.944.383 1.225.68.285.293.428.647.428 1.061 0 .414-.143.767-.428 1.06-.281.297-.69.524-1.225.68-.53.156-1.166.236-1.904.24-.73-.004-1.361-.084-1.892-.24-.532-.156-.94-.383-1.225-.68a1.464 1.464 0 0 1-.428-1.06c0-.414.143-.768.428-1.061.285-.297.693-.523 1.225-.68.53-.156 1.162-.234 1.892-.234Zm0 .855a5.62 5.62 0 0 0-1.312.135c-.367.086-.649.213-.844.381a.777.777 0 0 0-.287.604c0 .226.096.423.287.591.195.168.477.297.844.387a5.87 5.87 0 0 0 1.312.129c.516 0 .955-.043 1.319-.129.367-.09.646-.219.837-.387.196-.168.294-.365.294-.591a.77.77 0 0 0-.294-.604c-.19-.168-.47-.295-.837-.381a5.557 5.557 0 0 0-1.319-.135Zm-1.687-5.531c0 .645-.121 1.254-.364 1.828a4.489 4.489 0 0 1-1.025 1.512c-.445.43-.967.756-1.564.979l-.58-.891a4.09 4.09 0 0 0 1.388-.814c.399-.356.703-.76.914-1.213.211-.457.317-.924.317-1.401v-.814h.914v.814Zm.21-.011c0 .441.102.871.305 1.289.203.414.496.785.88 1.113a4.21 4.21 0 0 0 1.347.756l-.568.884a4.219 4.219 0 0 1-2.52-2.337 4.324 4.324 0 0 1-.346-1.705v-.803h.903v.803Zm2.262-.223h-5.672v-.92h5.672v.92Zm12.796 1.974h-3.65v-.878h3.65v.878Zm-.082-2.332h-2.45v1.741h-1.118v-2.637h3.568v.896Zm-4.178 0h-2.466v1.741h-1.12v-2.637h3.586v.896Zm-2.97 1.454c.613 0 1.162-.02 1.646-.059.484-.043.977-.123 1.477-.24l.129.873c-.54.113-1.063.193-1.57.24a20.06 20.06 0 0 1-1.682.064h-.616v-.878h.616Zm8.062 2.554H62.53v-.896h9.574v.896Zm-1.213 3.323h-6.105v1.177h-1.096v-1.98H69.8v-.815h-6.128v-.838h7.218v2.456Zm.305 1.781h-7.506v-.867h7.506v.867Zm5.447-6.914h1.992v-2.496h1.031v6.943h-4.078v-6.943h1.055v2.496Zm1.992 3.539v-2.649h-1.992v2.649h1.992Zm5.63 3.48h-1.071v-10.5h1.072v10.5Zm-.702-5.472h-1.963v-.909h1.963v.909Zm-1.659 4.957H80.85v-9.786h1.054v9.786Zm12.093.515h-1.113v-10.5h1.113v10.5Zm-4.945-7.119c0 .734-.125 1.443-.375 2.127a5.55 5.55 0 0 1-1.055 1.805c-.453.519-.97.914-1.553 1.183l-.609-.861c.531-.238 1-.58 1.406-1.025.41-.446.727-.95.95-1.512.226-.563.34-1.135.34-1.717v-.826h.896v.826Zm.199 0c0 .559.115 1.108.346 1.647.234.539.558 1.021.972 1.447.418.426.895.754 1.43.984l-.615.856a4.57 4.57 0 0 1-1.565-1.131 5.525 5.525 0 0 1-1.066-1.746 5.68 5.68 0 0 1-.38-2.057v-.826h.878v.826Zm2.361-.691h-5.847v-.897h5.847v.897Zm-2.361-.41h-1.107v-2.069h1.107v2.069Z" fill="#3F3F43"/><path d="M49.752 457.25h-7.335v-1.203h7.335v1.203Zm-3.664.472c.597 0 1.121.095 1.572.287.456.187.811.451 1.067.793.255.342.382.736.382 1.182 0 .452-.127.848-.382 1.19-.256.337-.611.601-1.067.793-.451.187-.975.28-1.572.28-.588 0-1.112-.093-1.572-.28-.46-.192-.818-.458-1.074-.8a1.924 1.924 0 0 1-.382-1.183c0-.446.127-.84.382-1.182.256-.342.613-.606 1.074-.793.46-.192.984-.287 1.572-.287Zm0 1.148c-.305 0-.579.046-.82.137-.237.086-.42.214-.547.383a.938.938 0 0 0-.192.594c0 .228.064.424.192.588.127.16.31.283.547.369.237.087.51.13.82.13.314 0 .59-.043.827-.13.237-.086.422-.209.554-.369a.908.908 0 0 0 .198-.588.917.917 0 0 0-.198-.594 1.204 1.204 0 0 0-.554-.383 2.3 2.3 0 0 0-.827-.137Zm6.07 3.733h-1.517v-7.746h1.517v7.746Zm1.73-3.213h-2.16v-1.251h2.16v1.251Zm-1.73 7.813h-1.517v-2.816h-6.72v-1.217h8.237v4.033Zm-5.305-10.486H45.33v-1.914h1.524v1.914Zm10.896.43c0 .679-.108 1.338-.322 1.976a5.118 5.118 0 0 1-.97 1.716 4.16 4.16 0 0 1-1.58 1.148l-.827-1.175a4.114 4.114 0 0 0 1.381-.951c.374-.396.654-.829.841-1.299.187-.469.28-.941.28-1.415v-1.524h1.197v1.524Zm.273 0c0 .456.089.898.267 1.327.182.428.453.813.813 1.155.36.342.8.615 1.32.82l-.807 1.155a4.12 4.12 0 0 1-1.545-1.025 4.391 4.391 0 0 1-.937-1.558 5.69 5.69 0 0 1-.307-1.874v-1.524h1.196v1.524Zm6.706 5.305h-1.45v-7.581h1.45v7.581Zm-1.025-3.226H61.59v-1.238h2.113v1.238Zm-1.655 2.836h-1.415v-6.965h1.415v6.965Zm-1.49.588c.861 0 1.611.092 2.25.274.637.178 1.127.437 1.469.779.342.342.513.75.513 1.224 0 .465-.171.868-.513 1.21-.342.342-.832.604-1.47.786-.638.182-1.388.273-2.249.273-.861 0-1.613-.091-2.256-.273-.638-.182-1.128-.444-1.47-.786a1.666 1.666 0 0 1-.505-1.21c0-.474.168-.882.506-1.224.341-.342.831-.601 1.47-.779.637-.182 1.39-.274 2.255-.274Zm0 1.142c-.57 0-1.06.043-1.47.13-.405.086-.715.214-.93.383a.77.77 0 0 0-.314.622c0 .237.105.44.315.608.214.169.524.296.93.383.405.087.895.13 1.47.13a6.98 6.98 0 0 0 1.455-.13c.406-.087.716-.214.93-.383.219-.168.328-.371.328-.608 0-.246-.11-.454-.328-.622-.214-.169-.526-.297-.937-.383a7.001 7.001 0 0 0-1.449-.13Zm19.623-.533H68.888v-1.203h11.293v1.203Zm-4.935 3.944h-1.497v-4.573h1.497v4.573Zm-3.5-10.343h5.53v-1.51h1.525v5.407h-8.552v-5.407h1.497v1.51Zm5.53 2.673v-1.463h-5.53v1.463h5.53Zm9.473-2.987c0 .879-.22 1.704-.663 2.475a5.95 5.95 0 0 1-1.818 1.961 7.05 7.05 0 0 1-2.618 1.115l-.656-1.265a6.344 6.344 0 0 0 2.262-.889c.68-.433 1.208-.948 1.586-1.545.383-.597.574-1.214.574-1.852v-.902h1.333v.902Zm.274 0c0 .638.191 1.258.574 1.859.387.597.92 1.115 1.6 1.552a6.292 6.292 0 0 0 2.283.875l-.677 1.265a7.125 7.125 0 0 1-2.604-1.108 6.007 6.007 0 0 1-1.819-1.948 4.968 4.968 0 0 1-.656-2.495v-.902h1.299v.902Zm4.922 9.092H80.652v-1.251h11.293v1.251Zm12.582-8.805h-7.814v-1.224h7.814v1.224Zm2.112 5.284H95.387v-1.237h11.252v1.237Zm-4.908 5.113H100.2v-5.496h1.531v5.496Zm3.534-10.52c0 .606-.009 1.126-.027 1.559-.014.432-.057.934-.13 1.503-.068.57-.178 1.188-.328 1.853l-1.504-.171a16.54 16.54 0 0 0 .451-3.247c.014-.424.021-.923.021-1.497v-1.101h1.517v1.101Zm10.95 1.456h-3.103v-1.203h3.103v1.203Zm-.096 2.563h-3.096v-1.23h3.096v1.23Zm1.361 1.361h-1.518v-7.219h1.518v7.219Zm-3.897-6.358c0 1.085-.221 2.056-.663 2.913-.437.856-1.082 1.585-1.934 2.187-.848.597-1.889 1.071-3.124 1.422l-.602-1.196c1.039-.287 1.907-.659 2.604-1.115.702-.455 1.226-.977 1.573-1.565a3.734 3.734 0 0 0 .519-1.928v-.718h1.627Zm-.574 1.238h-5.106v-1.238h5.106v1.238Zm.376 5.257c.834 0 1.565.1 2.194.3.634.201 1.121.486 1.463.855.347.364.52.797.52 1.299 0 .501-.173.938-.52 1.312-.342.374-.829.659-1.463.855-.629.2-1.36.3-2.194.3-.834 0-1.568-.1-2.201-.3-.629-.196-1.117-.481-1.463-.855a1.87 1.87 0 0 1-.52-1.312c0-.502.174-.935.52-1.299.346-.369.834-.654 1.463-.855.633-.2 1.367-.3 2.201-.3Zm0 1.196c-.547-.009-1.023.036-1.429.137-.401.095-.708.239-.923.43a.896.896 0 0 0 0 1.374c.215.187.52.331.916.431.401.096.88.143 1.436.143.551 0 1.025-.047 1.422-.143.396-.1.702-.244.916-.431a.896.896 0 0 0 0-1.374c-.214-.191-.52-.335-.916-.43-.397-.101-.871-.146-1.422-.137Zm15.174 3.78h-1.504v-12.346h1.504v12.346Zm1.908-6.166h-2.249v-1.251h2.249v1.251Zm-4.369-3.062h-7.28v-1.224h7.28v1.224Zm-3.602.799c.597 0 1.13.126 1.6.376.473.246.845.591 1.114 1.033.269.442.403.943.403 1.504 0 .556-.134 1.057-.403 1.503a2.777 2.777 0 0 1-1.114 1.033c-.47.246-1.003.369-1.6.369a3.42 3.42 0 0 1-1.6-.369 2.77 2.77 0 0 1-1.114-1.033 2.894 2.894 0 0 1-.396-1.503c0-.561.132-1.062.396-1.504a2.77 2.77 0 0 1 1.114-1.033 3.376 3.376 0 0 1 1.6-.376Zm0 1.251c-.315 0-.599.069-.855.205-.25.137-.448.331-.594.582-.142.25-.212.542-.212.875 0 .328.07.617.212.868.146.25.344.444.594.581.256.132.54.198.855.198.323 0 .611-.066.861-.198.251-.137.447-.331.588-.581.141-.251.212-.54.212-.868 0-.333-.071-.625-.212-.875a1.47 1.47 0 0 0-.588-.582 1.776 1.776 0 0 0-.861-.205Zm.752-2.782h-1.511v-2.208h1.511v2.208Zm17.704 9.96h-1.539v-12.346h1.539v12.346Zm-3.685-11.033c0 1.29-.187 2.472-.561 3.548-.369 1.071-.977 2.057-1.825 2.96-.847.898-1.971 1.679-3.37 2.344l-.807-1.216c1.19-.565 2.156-1.208 2.899-1.928.743-.72 1.287-1.529 1.634-2.427.346-.898.519-1.905.519-3.021v-.26h1.511Zm-.827 1.203h-5.107v-1.203h5.107v1.203Z" fill="#5C4795"/><path d="M48.65 480.453h-6.252v-.891h6.252v.891Zm-3.123.475c.504 0 .948.08 1.33.24.383.156.682.379.897.668.215.285.322.619.322 1.002 0 .379-.107.713-.322 1.002a2.111 2.111 0 0 1-.897.668c-.382.156-.826.234-1.33.234-.496 0-.94-.078-1.33-.234-.39-.16-.693-.383-.908-.668a1.654 1.654 0 0 1-.316-1.002c0-.383.105-.717.316-1.002.215-.289.518-.512.908-.668.39-.16.834-.24 1.33-.24Zm0 .849c-.293 0-.552.043-.779.129-.226.086-.4.209-.521.369a.91.91 0 0 0-.182.563c0 .211.06.394.182.551.12.156.295.275.521.357.227.082.486.123.78.123.292 0 .552-.041.779-.123.23-.082.408-.201.533-.357a.857.857 0 0 0 .187-.551.89.89 0 0 0-.187-.563 1.18 1.18 0 0 0-.533-.369 2.186 2.186 0 0 0-.78-.129Zm5.11 3.287h-1.108v-6.574h1.108v6.574Zm1.529-2.8h-1.84v-.92h1.84v.92Zm-1.53 6.726H49.53v-2.496H43.7v-.896h6.938v3.392Zm-4.552-8.935h-1.107v-1.612h1.107v1.612Zm9.391.451c0 .547-.095 1.084-.287 1.611a4.332 4.332 0 0 1-.838 1.424 3.618 3.618 0 0 1-1.33.949l-.603-.861c.457-.199.85-.469 1.177-.809.329-.34.577-.709.745-1.107.172-.402.258-.805.258-1.207v-1.36h.878v1.36Zm.188 0c0 .39.082.769.246 1.137.168.367.41.699.727.996.316.297.693.529 1.13.697l-.585.85a3.701 3.701 0 0 1-1.307-.856 3.774 3.774 0 0 1-.815-1.295 4.391 4.391 0 0 1-.27-1.529v-1.36h.874v1.36Zm5.748 4.459h-1.06v-6.463h1.06v6.463Zm-.733-2.813H58.78v-.914h1.898v.914Zm-1.546 2.485h-1.038v-5.942h1.038v5.942Zm-1.23.533c.726 0 1.357.074 1.892.223.539.148.953.367 1.242.656.289.285.433.627.433 1.025 0 .395-.144.733-.433 1.014-.29.285-.703.504-1.242.656-.535.156-1.166.235-1.893.235-.73 0-1.365-.079-1.904-.235-.535-.152-.945-.371-1.23-.656a1.372 1.372 0 0 1-.428-1.014c0-.398.142-.74.427-1.025.286-.289.696-.508 1.23-.656.54-.149 1.175-.223 1.905-.223Zm0 .844c-.505 0-.942.041-1.313.123-.371.078-.655.199-.85.363-.191.16-.287.352-.287.574 0 .223.096.412.287.569.195.156.477.275.844.357.367.082.806.123 1.318.123.508 0 .945-.041 1.313-.123.367-.082.648-.201.843-.357.2-.157.3-.346.3-.569 0-.222-.1-.414-.3-.574-.195-.164-.478-.285-.85-.363a6.114 6.114 0 0 0-1.306-.123Zm16.854-.457h-9.61v-.891h9.61v.891Zm-4.283 3.433h-1.096v-3.914h1.096v3.914Zm-3.03-8.701h4.993v-1.371h1.12v4.564h-7.214v-4.564h1.102v1.371Zm4.993 2.291v-1.4h-4.992v1.4h4.992Zm7.932-2.596c0 .735-.197 1.424-.591 2.069a5.322 5.322 0 0 1-1.565 1.629 6.097 6.097 0 0 1-2.139.925l-.498-.931a5.562 5.562 0 0 0 1.881-.75 4.648 4.648 0 0 0 1.406-1.33c.352-.52.528-1.057.528-1.612v-.785h.978v.785Zm.194 0c0 .551.178 1.088.533 1.612.355.523.828.97 1.418 1.342.59.367 1.217.613 1.88.738l-.497.931a6.168 6.168 0 0 1-2.127-.919 5.3 5.3 0 0 1-1.57-1.629 3.906 3.906 0 0 1-.592-2.075v-.785h.955v.785Zm4.277 7.629h-9.61v-.92h9.61v.92Zm11.037-7.599h-6.744v-.903h6.744v.903Zm1.664 4.166h-9.61v-.92h9.61v.92Zm-1.219-4.225c0 .668-.02 1.277-.058 1.828-.04.547-.133 1.164-.282 1.852l-1.096-.094c.102-.48.176-.93.223-1.348.047-.418.076-.785.088-1.101.012-.317.018-.696.018-1.137v-.844h1.107v.844Zm.31 8.813h-7.44v-.914h7.44v.914Zm-6.34-.791h-1.1v-2.707h1.1v2.707Zm16.47 1.043h-1.113v-10.53h1.113v10.53Zm-.814-5.456h-2.467v-.908h2.467v.908Zm-4.43-1.693c0 .731-.121 1.438-.363 2.121a5.837 5.837 0 0 1-1.02 1.805c-.437.523-.943.92-1.517 1.189l-.615-.861a4.297 4.297 0 0 0 1.382-1.037 4.83 4.83 0 0 0 .92-1.512 4.664 4.664 0 0 0 .328-1.705v-.826h.885v.826Zm.217 0c0 .551.111 1.096.334 1.635a4.76 4.76 0 0 0 .943 1.447c.407.426.871.758 1.395.996l-.615.856a4.61 4.61 0 0 1-1.547-1.143 5.422 5.422 0 0 1-1.031-1.746 5.962 5.962 0 0 1-.358-2.045v-.826h.879v.826Zm2.297-.691h-5.725v-.897h5.725v.897Zm-2.285-.41h-1.108v-2.069h1.108v2.069Zm10.368 1.201h1.993v-2.496h1.031v6.943h-4.078v-6.943h1.054v2.496Zm1.993 3.539v-2.649h-1.993v2.649h1.993Zm5.631 3.48h-1.073v-10.5h1.073v10.5Zm-.704-5.472h-1.963v-.909h1.963v.909Zm-1.658 4.957h-1.055v-9.786h1.055v9.786Zm12.093.515h-1.114v-10.5h1.114v10.5Zm-4.946-7.119c0 .734-.125 1.443-.375 2.127a5.546 5.546 0 0 1-1.054 1.805 4.636 4.636 0 0 1-1.553 1.183l-.609-.861c.531-.238 1-.58 1.406-1.025.41-.446.726-.95.949-1.512.227-.563.34-1.135.34-1.717v-.826h.896v.826Zm.2 0c0 .559.115 1.108.345 1.647a4.83 4.83 0 0 0 .973 1.447c.418.426.895.754 1.43.984l-.616.856a4.577 4.577 0 0 1-1.564-1.131 5.527 5.527 0 0 1-1.066-1.746 5.68 5.68 0 0 1-.381-2.057v-.826h.879v.826Zm2.361-.691h-5.848v-.897h5.848v.897Zm-2.361-.41h-1.108v-2.069h1.108v2.069Z" fill="#3F3F43"/><path d="M46.655 528.203h-1.558v-4.607h1.558v4.607Zm4.28 0h-1.538v-4.607h1.538v4.607Zm2.761-4.183H42.403v-1.231h11.293v1.231Zm-5.68-7.718c.875 0 1.647.111 2.317.335.675.223 1.199.544 1.572.964.374.414.56.9.56 1.456 0 .542-.186 1.018-.56 1.428-.373.406-.898.72-1.572.944-.67.218-1.442.33-2.317.335-.875-.005-1.648-.117-2.318-.335-.665-.224-1.185-.538-1.558-.944a2.055 2.055 0 0 1-.56-1.428c0-.556.184-1.042.553-1.456.369-.42.89-.741 1.565-.964.675-.224 1.447-.335 2.318-.335Zm0 1.217c-.58 0-1.085.061-1.518.184-.433.123-.766.301-.998.533a1.11 1.11 0 0 0-.349.821c0 .31.117.578.349.806.232.224.565.394.998.513.433.118.939.178 1.518.178.583 0 1.091-.06 1.524-.178.438-.119.773-.289 1.005-.513.237-.228.355-.496.355-.806a1.1 1.1 0 0 0-.355-.821c-.233-.232-.568-.41-1.005-.533-.433-.123-.941-.184-1.524-.184Zm15.557 2.365H61.18v-1.224h2.393v1.224Zm-.034 2.447h-2.386v-1.224h2.386v1.224Zm-2.461-4.04H54.18v-1.21h6.898v1.21Zm-3.384.492c.551 0 1.048.098 1.49.294.442.192.784.463 1.026.814a2 2 0 0 1 .369 1.189c0 .456-.123.859-.37 1.21-.241.346-.583.615-1.025.807a3.722 3.722 0 0 1-1.49.287 3.69 3.69 0 0 1-1.49-.287c-.438-.192-.775-.461-1.012-.807a2.11 2.11 0 0 1-.355-1.21c0-.451.118-.85.355-1.196.237-.351.574-.622 1.012-.814a3.69 3.69 0 0 1 1.49-.287Zm0 1.135c-.287 0-.54.048-.759.144-.219.091-.39.223-.513.396a1.075 1.075 0 0 0-.177.622c0 .242.059.449.178.622.122.173.291.308.505.403.22.092.474.137.766.137.292 0 .547-.045.766-.137.223-.095.396-.23.52-.403.127-.173.19-.38.19-.622a1.02 1.02 0 0 0-.19-.622 1.151 1.151 0 0 0-.52-.396 1.892 1.892 0 0 0-.766-.144Zm.772-2.003H56.95v-2.153h1.517v2.153Zm6.043 5.852h-1.517v-7.91h1.517v7.91Zm-4.149.136c.866 0 1.615.085 2.249.253.633.169 1.119.417 1.456.745.342.324.513.709.513 1.156 0 .442-.171.822-.513 1.141-.337.324-.825.57-1.463.739-.633.173-1.38.259-2.242.259-.87 0-1.622-.086-2.256-.259-.633-.169-1.121-.415-1.463-.739-.342-.319-.512-.699-.512-1.141 0-.447.17-.832.512-1.156.342-.328.83-.576 1.463-.745.634-.168 1.386-.253 2.256-.253Zm0 1.162c-.565 0-1.044.037-1.436.11-.387.073-.685.184-.895.335-.205.146-.308.328-.308.547 0 .209.103.387.308.533.21.146.51.26.902.342a7.54 7.54 0 0 0 1.429.116 7.3 7.3 0 0 0 1.401-.116c.388-.082.682-.196.882-.342.205-.146.308-.324.308-.533 0-.219-.103-.401-.308-.547-.2-.151-.492-.262-.875-.335a7.665 7.665 0 0 0-1.408-.11Zm12.918-3.411h-2.255v-1.223h2.255v1.223Zm-6.145 2.53c.98-.01 1.782-.035 2.406-.076.625-.045 1.265-.12 1.921-.225l.123 1.223c-.647.119-1.283.196-1.907.233a49.36 49.36 0 0 1-2.543.061h-.813v-1.216h.813Zm3.8-5.702H67.77v6.132h-1.45v-7.335h4.615v1.203Zm-.512 3.289h-3.076v-1.176h3.076v1.176Zm6.146 6.432h-1.463v-12.346h1.463v12.346Zm-2.584-.581h-1.43v-11.518h1.43v11.518Zm9.78-10.076c0 .879-.22 1.704-.663 2.475a5.95 5.95 0 0 1-1.818 1.961c-.77.538-1.643.91-2.618 1.115l-.656-1.265a6.344 6.344 0 0 0 2.262-.889c.68-.433 1.208-.948 1.586-1.545.383-.597.575-1.214.575-1.852v-.902h1.332v.902Zm.274 0c0 .638.191 1.258.574 1.859.388.597.92 1.115 1.6 1.552a6.293 6.293 0 0 0 2.283.875l-.677 1.265a7.124 7.124 0 0 1-2.604-1.108 6.008 6.008 0 0 1-1.819-1.948 4.968 4.968 0 0 1-.656-2.495v-.902h1.299v.902Zm4.922 9.092H77.666v-1.251h11.293v1.251Zm10.492-3.09h-8.668v-1.203h8.668v1.203Zm1.257 3.165H89.415v-1.237h11.293v1.237Zm-1.367-8.648h-7.013v4.608h-1.545v-5.852h8.558v1.244Zm-.28 2.673h-7.192v-1.196h7.192v1.196Zm9.233-2.338c0 .716-.135 1.381-.404 1.996a4.427 4.427 0 0 1-1.189 1.6c-.524.447-1.155.777-1.894.991l-.731-1.182c.638-.178 1.182-.44 1.634-.786.451-.351.79-.75 1.018-1.197.233-.451.349-.925.349-1.422v-.471h1.217v.471Zm.287 0c0 .456.111.894.335 1.313.227.415.562.786 1.005 1.114.446.328.982.581 1.606.759l-.697 1.183c-.743-.206-1.377-.525-1.901-.957a4.34 4.34 0 0 1-1.182-1.525 4.482 4.482 0 0 1-.404-1.887v-.471h1.238v.471Zm2.59-.02h-6.685v-1.203h6.685v1.203Zm-2.57-.691h-1.524v-1.886h1.524v1.886Zm5.291 5.435h-1.517v-7.267h1.517v7.267Zm1.73-3.035h-2.16v-1.251h2.16v1.251Zm-1.73 7.971h-7.977v-4.403h7.977v4.403Zm-6.473-1.224h4.969v-1.982h-4.969v1.982Zm18.154 1.36h-1.517v-12.339h1.517v12.339Zm1.832-6.248h-2.221v-1.258h2.221v1.258Zm-5.092-4.799c0 1.258-.189 2.429-.568 3.514-.373 1.08-.977 2.074-1.811 2.981-.834.902-1.914 1.683-3.24 2.344l-.855-1.176c1.117-.565 2.042-1.209 2.775-1.934a7.161 7.161 0 0 0 1.655-2.44c.364-.907.547-1.915.547-3.022v-.267h1.497Zm-.725 1.251h-5.106v-1.251h5.106v1.251Zm15.735 9.803h-1.504v-12.346h1.504v12.346Zm1.907-6.166h-2.249v-1.251h2.249v1.251Zm-4.368-3.062h-7.28v-1.224h7.28v1.224Zm-3.602.799c.597 0 1.13.126 1.599.376.474.246.846.591 1.114 1.033.269.442.404.943.404 1.504 0 .556-.135 1.057-.404 1.503-.268.442-.64.787-1.114 1.033-.469.246-1.002.369-1.599.369a3.42 3.42 0 0 1-1.6-.369 2.77 2.77 0 0 1-1.114-1.033 2.886 2.886 0 0 1-.397-1.503c0-.561.132-1.062.397-1.504a2.77 2.77 0 0 1 1.114-1.033 3.376 3.376 0 0 1 1.6-.376Zm0 1.251c-.315 0-.6.069-.855.205a1.52 1.52 0 0 0-.595.582c-.141.25-.212.542-.212.875 0 .328.071.617.212.868.146.25.344.444.595.581.255.132.54.198.855.198.323 0 .61-.066.861-.198.251-.137.447-.331.588-.581.141-.251.212-.54.212-.868 0-.333-.071-.625-.212-.875a1.47 1.47 0 0 0-.588-.582 1.779 1.779 0 0 0-.861-.205Zm.752-2.782h-1.511v-2.208h1.511v2.208Zm17.703 9.96h-1.538v-12.346h1.538v12.346Zm-3.684-11.033c0 1.29-.187 2.472-.561 3.548-.369 1.071-.977 2.057-1.825 2.96-.848.898-1.971 1.679-3.37 2.344l-.807-1.216c1.19-.565 2.156-1.208 2.899-1.928.742-.72 1.287-1.529 1.633-2.427.347-.898.52-1.905.52-3.021v-.26h1.511Zm-.827 1.203h-5.107v-1.203h5.107v1.203Z" fill="#5C4795"/><path d="M45.914 549.99h-1.148v-3.967h1.148v3.967Zm3.633 0h-1.125v-3.967h1.125v3.967Zm2.437-3.65h-9.609v-.908h9.61v.908Zm-4.828-6.451c.739 0 1.39.095 1.957.287.567.187 1.004.457 1.313.808.312.348.468.756.468 1.225 0 .457-.156.859-.468 1.207-.309.344-.746.609-1.313.797-.566.187-1.218.281-1.957.281-.738 0-1.388-.094-1.95-.281-.563-.188-1.003-.453-1.32-.797a1.752 1.752 0 0 1-.468-1.207c0-.469.156-.877.469-1.225.312-.351.75-.621 1.312-.808.567-.192 1.219-.287 1.957-.287Zm0 .902c-.52 0-.974.057-1.365.17-.39.113-.693.277-.908.492-.211.215-.317.467-.317.756 0 .285.106.533.317.744.215.207.517.369.908.486.39.114.846.17 1.365.17.52 0 .977-.056 1.371-.17.395-.117.698-.279.908-.486a1.035 1.035 0 0 0 0-1.5c-.21-.215-.513-.379-.908-.492a4.995 4.995 0 0 0-1.37-.17Zm13.364 2.063h-2.103v-.909h2.103v.909Zm-.017 2.056h-2.098v-.902h2.098v.902Zm-2.127-3.416h-5.9v-.89h5.9v.89Zm-2.912.481c.468 0 .888.082 1.26.246.37.16.658.388.86.685.208.293.311.631.311 1.014 0 .387-.103.728-.31 1.025-.203.293-.49.522-.862.686a3.086 3.086 0 0 1-1.26.246c-.468 0-.886-.082-1.253-.246a2.013 2.013 0 0 1-.85-.686 1.795 1.795 0 0 1-.299-1.025c0-.387.1-.727.3-1.02a1.96 1.96 0 0 1 .849-.685 3.11 3.11 0 0 1 1.254-.24Zm0 .832c-.27 0-.508.047-.715.14a1.121 1.121 0 0 0-.48.393.994.994 0 0 0-.17.58c0 .226.056.424.17.592.113.164.27.291.474.381.207.089.447.134.72.134.274 0 .516-.045.727-.134.211-.09.375-.217.492-.381a1.01 1.01 0 0 0 .176-.592.97.97 0 0 0-.176-.58 1.157 1.157 0 0 0-.492-.393 1.785 1.785 0 0 0-.726-.14Zm.568-1.588h-1.107v-1.811h1.107v1.811Zm5.18 5.033h-1.114v-6.762h1.114v6.762Zm-3.498.111c.738 0 1.373.071 1.904.211.535.141.943.348 1.225.621.285.274.427.6.427.979 0 .375-.142.697-.427.967-.282.269-.692.476-1.23.621-.536.144-1.169.217-1.9.217-.734 0-1.369-.073-1.904-.217-.53-.145-.941-.352-1.23-.621a1.285 1.285 0 0 1-.428-.967c0-.379.143-.705.428-.979.289-.273.7-.48 1.23-.621.535-.14 1.17-.211 1.905-.211Zm0 .856c-.5 0-.93.037-1.29.111-.359.07-.634.178-.826.322-.191.141-.287.315-.287.522 0 .199.096.369.287.51.192.14.467.248.827.322.359.078.789.117 1.289.117.496 0 .92-.039 1.271-.117.356-.074.627-.182.815-.322.191-.141.287-.311.287-.51 0-.207-.094-.381-.282-.522-.187-.144-.457-.252-.808-.322a6.338 6.338 0 0 0-1.283-.111Zm11.149-2.883h-1.957v-.908h1.957v.908Zm-5.28 2.303c.856-.008 1.551-.03 2.087-.065.539-.039 1.09-.107 1.652-.205l.094.897c-.555.105-1.1.175-1.635.211-.531.035-1.264.054-2.197.058h-.674v-.896h.674Zm3.24-5.016H63.97v5.326h-1.06v-6.211h3.914v.885Zm-.456 2.813h-2.719v-.874h2.719v.874Zm5.185 5.554h-1.066v-10.5h1.066v10.5Zm-2.174-.515H68.33v-9.75h1.049v9.75Zm8.36-8.491c0 .735-.197 1.424-.591 2.069a5.32 5.32 0 0 1-1.565 1.629 6.098 6.098 0 0 1-2.138.925l-.498-.931a5.564 5.564 0 0 0 1.88-.75 4.648 4.648 0 0 0 1.407-1.33c.351-.52.527-1.057.527-1.612v-.785h.979v.785Zm.194 0c0 .551.178 1.088.533 1.612.356.523.828.97 1.418 1.342.59.367 1.217.613 1.881.738l-.498.931a6.166 6.166 0 0 1-2.127-.919 5.297 5.297 0 0 1-1.57-1.629 3.905 3.905 0 0 1-.592-2.075v-.785h.955v.785Zm4.277 7.629H72.6v-.92h9.61v.92Zm8.987-2.631h-7.324v-.896h7.325v.896Zm1.085 2.69h-9.61v-.914h9.61v.914Zm-1.19-7.395h-6.082v4.067h-1.137v-4.992h7.219v.925Zm-.234 2.285h-6.194v-.878h6.194v.878Zm9.829 3.797h-4.91v-6.826h4.91v6.826Zm-3.826-.896h2.719v-5.051H96.86v5.051Zm6.692 3.527h-1.108v-10.5h1.108v10.5Zm1.693-5.437H103.3v-.949h1.945v.949Zm3.848-1.963c0 .754-.13 1.492-.392 2.215a6.628 6.628 0 0 1-1.078 1.922c-.457.558-.975.978-1.553 1.259l-.656-.873c.519-.25.99-.615 1.412-1.095a5.633 5.633 0 0 0 .99-1.623 4.81 4.81 0 0 0 .363-1.805v-1.559h.914v1.559Zm.211 0c0 .578.117 1.152.352 1.722a4.98 4.98 0 0 0 .99 1.524c.426.445.904.783 1.436 1.014l-.616.873a4.667 4.667 0 0 1-1.587-1.184 5.822 5.822 0 0 1-1.079-1.81 6.094 6.094 0 0 1-.38-2.139v-1.559h.884v1.559Zm2.403-1.119h-5.924v-.914h5.924v.914Zm2.437 8.519h-1.119v-10.5h1.119v10.5Zm6.69-4.998h-4.916v-4.722h4.916v4.722Zm-3.82-.89h2.736v-2.948h-2.736v2.948Zm6.75 1.617h-1.107v-6.229h1.107v6.229Zm1.529-2.643h-1.839v-.92h1.839v.92Zm-1.529 6.938h-1.107v-2.877h-5.83v-.885h6.937v3.762Zm13.533-.024h-1.067v-10.5h1.067v10.5Zm-2.789-5.566h-1.658v-.996h1.658v.996Zm.715 5.033h-1.055v-9.727h1.055v9.727Zm-2.086-7.764h-4.823v-.908h4.823v.908Zm-5.039 4.834c.922 0 1.849-.015 2.783-.047a25.467 25.467 0 0 0 2.473-.199l.07.809c-.731.144-1.551.242-2.461.293-.91.051-1.82.076-2.731.076l-.134-.932Zm2.039.27h-1.008v-5.438h1.008v5.438Zm2.185 0h-1.025v-5.438h1.025v5.438Zm14.665 3.223h-1.119v-10.53h1.119v10.53Zm-5.625-9.739c.524 0 .99.153 1.4.457.411.305.731.735.961 1.289.231.555.346 1.202.346 1.94 0 .742-.115 1.39-.346 1.945-.23.555-.55.984-.961 1.289-.41.301-.876.451-1.4.451-.523 0-.992-.15-1.406-.451-.41-.305-.731-.734-.961-1.289-.231-.555-.346-1.203-.346-1.945 0-.738.115-1.385.346-1.94.23-.554.551-.984.961-1.289a2.317 2.317 0 0 1 1.406-.457Zm0 .996c-.32 0-.605.11-.855.328-.25.219-.444.532-.58.938-.133.402-.2.877-.2 1.424 0 .543.067 1.017.2 1.424.136.406.33.718.58.937.25.215.535.322.855.322.32 0 .604-.107.85-.322.25-.219.443-.531.58-.937.137-.407.205-.881.205-1.424 0-.547-.068-1.022-.205-1.424-.137-.406-.328-.719-.574-.938a1.255 1.255 0 0 0-.856-.328Zm10.645 1.313c0 .754-.13 1.492-.392 2.215a6.628 6.628 0 0 1-1.078 1.922c-.457.558-.975.978-1.553 1.259l-.656-.873c.519-.25.99-.615 1.412-1.095a5.633 5.633 0 0 0 .99-1.623 4.81 4.81 0 0 0 .363-1.805v-1.559h.914v1.559Zm.211 0c0 .578.118 1.152.352 1.722a4.98 4.98 0 0 0 .99 1.524c.426.445.904.783 1.436 1.014l-.616.873a4.667 4.667 0 0 1-1.587-1.184 5.822 5.822 0 0 1-1.079-1.81 6.117 6.117 0 0 1-.38-2.139v-1.559h.884v1.559Zm2.403-1.119h-5.924v-.914h5.924v.914Zm2.437 8.519h-1.119v-10.5h1.119v10.5Zm11.939-7.09h-2.267v-.925h2.267v.925Zm.803 2.309h-1.102v-5.719h1.102v5.719Zm-5.725 1.682h4.623v-1.207h1.102v4.177h-6.838v-4.177h1.113v1.207Zm4.623 2.068v-1.195h-4.623v1.195h4.623Zm-4.095-7.828c0 .64-.121 1.244-.364 1.81a4.396 4.396 0 0 1-2.589 2.45l-.58-.879a4.188 4.188 0 0 0 1.382-.803 3.64 3.64 0 0 0 .914-1.189c.215-.446.323-.909.323-1.389v-.82h.914v.82Zm.211.006c0 .433.101.859.304 1.277.207.414.5.787.879 1.119.383.332.832.586 1.348.762l-.568.861a4.42 4.42 0 0 1-1.53-.926 4.194 4.194 0 0 1-1.336-3.093v-.826h.903v.826Zm2.261-.147h-5.671v-.914h5.671v.914Zm13.652 4.629h-9.598v-.908h9.598v.908Zm-4.272-.51h-1.096v-1.933h1.096v1.933Zm-.164-5.004c0 .614-.187 1.174-.562 1.682-.372.508-.877.932-1.518 1.272a6.88 6.88 0 0 1-2.121.703l-.41-.885a5.973 5.973 0 0 0 1.845-.545c.563-.273 1.006-.605 1.33-.996.325-.391.487-.801.487-1.231v-.445h.949v.445Zm.176 0c0 .434.164.846.492 1.237.328.39.773.722 1.336.996.562.269 1.18.449 1.851.539l-.445.885a6.954 6.954 0 0 1-2.109-.698c-.633-.339-1.137-.765-1.512-1.277a2.804 2.804 0 0 1-.557-1.682v-.445h.944v.445Zm3.058 9.885h-1.113v-2.56h-6.223v-.879h7.336v3.439Zm7.961-7.828c0 .828-.127 1.621-.381 2.379a6.572 6.572 0 0 1-1.066 1.998 4.636 4.636 0 0 1-1.6 1.307l-.697-.932a4.225 4.225 0 0 0 1.459-1.102 5.479 5.479 0 0 0 1.002-1.693c.242-.64.363-1.293.363-1.957v-1.799h.92v1.799Zm.199 0c0 .637.117 1.26.352 1.869.238.61.568 1.153.99 1.629a4.25 4.25 0 0 0 1.435 1.072l-.667.885a4.701 4.701 0 0 1-1.583-1.254 6.159 6.159 0 0 1-1.072-1.922 6.852 6.852 0 0 1-.381-2.279v-1.799h.926v1.799Zm4.846 7.858h-1.119v-10.53h1.119v10.53Zm7.439-7.43c0 .742-.129 1.476-.387 2.203a6.462 6.462 0 0 1-1.06 1.928c-.453.562-.961.984-1.524 1.265l-.668-.873a4.399 4.399 0 0 0 1.412-1.107 5.789 5.789 0 0 0 .985-1.629 4.762 4.762 0 0 0 .363-1.787v-1.559h.879v1.559Zm.223 0c0 .555.111 1.113.334 1.676.226.558.543 1.068.949 1.529.41.461.875.812 1.394 1.055l-.627.873a4.462 4.462 0 0 1-1.523-1.207 6.21 6.21 0 0 1-1.412-3.926v-1.559h.885v1.559Zm2.279-1.119h-5.748v-.914h5.748v.914Zm2.238 8.519h-1.107v-10.5h1.107v10.5Zm1.694-5.39h-1.946v-.938h1.946v.938Zm9.784.896h-9.586v-.891h9.586v.891Zm-4.254-.521h-1.084v-2.022h1.084v2.022Zm3.14-1.483h-7.271v-.89h7.271v.89Zm-.064-2.637h-6.112v2.303h-1.095v-3.181h7.207v.878Zm-3.627 5.321c.754 0 1.402.074 1.945.222.547.149.963.366 1.248.651.289.285.434.631.434 1.037 0 .402-.145.746-.434 1.031-.285.285-.699.502-1.242.651-.543.148-1.193.224-1.951.228-.758-.004-1.41-.08-1.957-.228-.547-.149-.965-.366-1.254-.651a1.396 1.396 0 0 1-.434-1.031c0-.406.145-.752.434-1.037.289-.285.707-.502 1.254-.651.547-.148 1.199-.222 1.957-.222Zm0 .867c-.535 0-.99.041-1.365.123-.375.078-.661.195-.856.352-.195.156-.293.345-.293.568 0 .223.098.412.293.568.195.157.481.274.856.352.375.078.83.117 1.365.117s.988-.039 1.359-.117c.375-.078.66-.195.856-.352.195-.16.293-.349.293-.568 0-.223-.098-.412-.293-.568-.196-.157-.483-.274-.862-.352a6.425 6.425 0 0 0-1.353-.123Zm17.517-.486h-9.609v-.891h9.609v.891Zm-4.283 3.433h-1.096v-3.914h1.096v3.914Zm-3.03-8.701h4.993v-1.371h1.119v4.564h-7.213v-4.564h1.101v1.371Zm4.993 2.291v-1.4h-4.993v1.4h4.993Zm10.68-.885h-3.129v-.92h3.129v.92Zm0 3.293h-3.129v-.908h3.129v.908Zm-5.039-5.707c.516 0 .973.153 1.371.457.403.305.717.735.944 1.289.226.555.339 1.202.339 1.94 0 .742-.113 1.39-.339 1.945-.227.555-.541.984-.944 1.289a2.211 2.211 0 0 1-1.371.451c-.516 0-.976-.15-1.383-.451-.402-.301-.717-.728-.943-1.283-.227-.559-.34-1.209-.34-1.951 0-.738.113-1.385.34-1.94.226-.554.541-.984.943-1.289a2.25 2.25 0 0 1 1.383-.457Zm0 .996c-.312 0-.592.11-.838.328-.246.219-.435.532-.568.938-.129.402-.194.877-.194 1.424 0 .543.065 1.017.194 1.424.133.406.322.718.568.937.246.215.526.322.838.322.313 0 .592-.107.838-.322.246-.219.436-.531.568-.937.133-.407.2-.881.2-1.424 0-.547-.069-1.022-.206-1.424-.132-.406-.32-.719-.562-.938a1.203 1.203 0 0 0-.838-.328Zm5.912 8.743h-1.107v-10.53h1.107v10.53Z" fill="#3F3F43"/><path d="m49.121 46.588 1.169 1.503 1.099 1.283 2.127 2.68h-2.479l-1.468-1.81-.73-1.037-1.977-2.62h2.26Zm4.597-1.951c0 1.347-.258 2.516-.774 3.507-.51.984-1.216 1.737-2.118 2.258-.896.516-1.913.774-3.05.774-1.136 0-2.156-.258-3.058-.774-.897-.521-1.603-1.277-2.118-2.267-.51-.99-.765-2.157-.765-3.498 0-1.36.255-2.532.765-3.516.515-.984 1.221-1.734 2.118-2.25.902-.516 1.922-.773 3.058-.773 1.137 0 2.154.258 3.05.773.902.516 1.609 1.266 2.118 2.25.516.984.774 2.156.774 3.516Zm-2.672 0c0-.897-.135-1.659-.404-2.285-.264-.627-.642-1.102-1.134-1.424-.486-.328-1.064-.492-1.732-.492-.662 0-1.239.164-1.731.492-.486.322-.864.797-1.134 1.424-.27.627-.404 1.388-.404 2.285 0 .896.135 1.658.404 2.285.27.627.648 1.104 1.134 1.433.492.322 1.07.483 1.731.483.668 0 1.245-.161 1.732-.483.492-.329.87-.806 1.134-1.433.27-.627.404-1.389.404-2.285Zm4.155-6.364h4.975c.96 0 1.781.17 2.46.51.686.334 1.208.815 1.565 1.442.358.627.537 1.359.537 2.197 0 .832-.182 1.556-.545 2.17-.358.61-.885 1.079-1.582 1.407-.698.322-1.53.483-2.496.483h-3.367V44.33h2.953c.528 0 .961-.07 1.301-.21.34-.147.595-.361.765-.642.17-.282.255-.633.255-1.055 0-.434-.085-.797-.255-1.09a1.567 1.567 0 0 0-.774-.66c-.345-.151-.779-.228-1.3-.228h-1.855V51h-2.637V38.273ZM65.195 51h-2.936l-3.085-5.783h2.857L65.195 51ZM77.33 39.759H67.188v-1.802H77.33v1.802Zm2.786 11.013h-14.59v-1.829h14.59v1.829Zm-1.46-11.4c-.011 1.02-.026 1.837-.043 2.452a26.42 26.42 0 0 1-.185 2.259 29.87 29.87 0 0 1-.51 2.936l-2.188-.211c.223-1.008.387-1.952.492-2.83.106-.885.167-1.659.185-2.32.023-.669.035-1.43.035-2.286v-1.415h2.215v1.415Zm-11.68 4.685-.317-1.916 10.213-.343v1.696l-9.896.563Zm5.994 5.545h-2.224v-4.517h2.224v4.517Zm20.688-3.779H82.356V44.03H93.66v1.793Zm1.6 4.852H80.632v-1.846h14.625v1.846Zm-1.715-10.907h-8.973v5.01h-2.215v-6.821h11.189v1.81Zm11.124-2.488c.803-.006 1.526.135 2.171.422.644.287 1.145.689 1.503 1.204.363.516.545 1.108.545 1.776a2.98 2.98 0 0 1-.545 1.758c-.358.515-.859.92-1.503 1.212-.645.288-1.368.431-2.171.431-.809 0-1.532-.143-2.171-.43-.633-.294-1.131-.698-1.494-1.213a2.98 2.98 0 0 1-.545-1.758c0-.668.182-1.26.545-1.776.363-.515.861-.917 1.494-1.204.639-.287 1.362-.428 2.171-.422Zm0 1.802a2.619 2.619 0 0 0-1.064.185 1.623 1.623 0 0 0-.72.544c-.17.24-.255.53-.255.87 0 .329.085.61.255.844.176.235.416.416.72.545.311.123.666.185 1.064.185a2.95 2.95 0 0 0 1.09-.185c.316-.129.562-.31.738-.545.176-.234.264-.515.264-.843 0-.34-.088-.63-.264-.87a1.617 1.617 0 0 0-.729-.545c-.311-.13-.677-.19-1.099-.185Zm1.222 13.07h-2.25v-6.46h2.25v6.46Zm7.04.456h-2.233v-15.97h2.233v15.97ZM99.482 45.05c1.887 0 3.689-.038 5.406-.114a46.489 46.489 0 0 0 4.86-.458l.141 1.644a34.093 34.093 0 0 1-4.377.571c-1.494.094-3.164.153-5.01.176a12.83 12.83 0 0 1-.738.018l-.282-1.837Zm28.44 7.567h-2.25V36.603h2.25v16.014Zm-7.567-10.977c0 1.148-.173 2.255-.519 3.322a8.405 8.405 0 0 1-1.547 2.83 6.436 6.436 0 0 1-2.461 1.846l-1.186-1.732a6.105 6.105 0 0 0 2.153-1.555 7.142 7.142 0 0 0 1.784-4.711v-.914h1.776v.914Zm.448 0c0 .802.149 1.596.448 2.382.305.785.756 1.5 1.354 2.144a6.262 6.262 0 0 0 2.188 1.503l-1.213 1.705a6.478 6.478 0 0 1-2.461-1.775 8.334 8.334 0 0 1-1.547-2.743 9.967 9.967 0 0 1-.527-3.216v-.914h1.758v.914Zm3.331-.624h-8.965V39.23h8.965v1.785Zm-3.34-.853h-2.232v-3.19h2.232v3.19Z" fill="#5C4795"/></svg>