<svg width="102" height="102" fill="none" xmlns="http://www.w3.org/2000/svg"><g clip-path="url(#a)"><path opacity=".6" d="M50.917 96.347c23.257 0 42.11-18.853 42.11-42.11 0-23.256-18.853-42.11-42.11-42.11-23.256 0-42.11 18.854-42.11 42.11 0 23.257 18.854 42.11 42.11 42.11Z" fill="#DFD7EB"/><path d="M26.574 22.504a39.857 39.857 0 0 1 22.174-8.185 40.958 40.958 0 0 1 4.432 0M11.21 59.474a39.81 39.81 0 0 1-.273-3 39.902 39.902 0 0 1 8.695-27.161M17.209 75.929a39.815 39.815 0 0 1-3.962-8.016M88.695 67.618C83.47 82.424 69.745 93.38 53.092 94.287a39.85 39.85 0 0 1-22.785-5.65" stroke="#7F72B3" stroke-width="1.982" stroke-miterlimit="10"/><path d="M89.81 65.79c-.064.215-.709 2.148-.776 2.364" stroke="#7F72B3" stroke-width=".976" stroke-miterlimit="10"/><path d="M64.05 16.463c14.9 5.176 25.946 18.944 26.855 35.667a40.012 40.012 0 0 1-1.586 13.566M19.654 29.333c-9.353 11.712-11.716 28.221-4.7 42.585a40.621 40.621 0 0 0 2.25 4.015M56.863 14.694c1.366.204 2.71.477 4.032.816" stroke="#7F72B3" stroke-width="1.982" stroke-miterlimit="10"/><path d="M14.741 57.525a36.458 36.458 0 0 1-.088-1.24c-.612-11.265 3.978-21.606 11.674-28.693M41.791 89.471a36.107 36.107 0 0 1-4.404-1.449M78.43 77.994c-6.224 7.233-15.274 12.018-25.555 12.576-.473.026-.944.042-1.414.049M85.548 65.223a36.315 36.315 0 0 1-4.859 9.864" stroke="#7F72B3" stroke-width="1.11" stroke-miterlimit="10"/><path d="M14.606 54.74c.014 1.702.146 3.396.395 5.072M57.072 18.526c16.332 2.798 29.154 16.577 30.09 33.82.086 1.558.07 3.1-.04 4.615M29.424 25.037a36.136 36.136 0 0 1 19.514-6.977 36.645 36.645 0 0 1 4.194.011" stroke="#7F72B3" stroke-width="1.11" stroke-miterlimit="10"/><path d="M39.996 72.801c-4.226-1.908-8.696-6.73-7.952-18.721 0 0-7.647-19.877 12.934-28.164 20.58-8.29 29.308 11.123 29.308 11.123s14.946 13.197 3.804 25.5l-1.919 1.187" stroke="#5C4996" stroke-width="1.943" stroke-linecap="round" stroke-linejoin="round"/><path d="M47.314 73.905s-.295.062-1.273.2" stroke="#5C4996" stroke-width="1.943" stroke-miterlimit="10" stroke-linecap="round"/><path d="M46.11 73.773s-.601.01-1.092-.028M41.851 72.964s-1.178-.318-1.653-.455" stroke="#5C4996" stroke-width="1.261" stroke-miterlimit="10" stroke-linecap="round"/><path d="M62.372 70.504a51.818 51.818 0 0 1-9.14 2.506M33.406 34.944l-4.199-4.393-3.68 3.795c-.128.13-.277.238-.444.31-.57.246-1.887.642-2.302-.69-.143-.464-.007-.974.316-1.338l3.94-4.428-2.909-2.768-3.169 3.12a2.228 2.228 0 0 1-.607.503c-.811.46-2.23.531-2.353-.922-.032-.371.114-.737.348-1.027l3.674-3.992-3.447-3.392c-.49-.482-.767-1.175-.633-1.85.144-.723.684-1.434 2.34-1.17.44.07.845.294 1.16.61L36.236 32.28M56.936 24.474l-.025-6.076 5.283.179c.183.007.364-.019.535-.084.58-.22 1.806-.848 1.178-2.095-.218-.434-.67-.707-1.154-.744l-5.91-.452.174-4.013 4.449.049a2.3 2.3 0 0 0 .786-.058c.902-.232 1.973-1.166 1.055-2.298-.235-.29-.594-.452-.962-.498l-5.416-.325.13-4.835c.019-.689-.262-1.377-.827-1.771-.605-.422-1.486-.56-2.497.778-.269.357-.406.8-.413 1.245l-.266 21.045" stroke="#5C4996" stroke-width="1.943" stroke-miterlimit="10"/><path d="m46.963 35.3-1.41-3.287-.006-.01-7.692-5.454c-.021-.014-.047.01-.033.03l5.11 8.508s.011.012.018.012l3.992.234c.016 0 .03-.017.023-.033h-.002ZM47.735 31.26l1.479 3.261c.007.014.025.019.037.007l2.689-2.615s.01-.014.007-.02l-2.237-9.749c-.005-.023-.04-.023-.044 0l-1.934 9.102v.013h.003ZM38.813 45.222l-2.742-5.014s-.005-.005-.01-.005l-14.2-1.882s-.017.014-.01.018l11.443 8.721s.007.003.01 0l5.5-1.824s.01-.01.007-.016l.002.002ZM60.59 36.438l-1.505-5.512v-.01l8.918-11.208s.02-.002.019.01l-2.189 14.22s-.002.006-.007.008L60.6 36.45s-.014 0-.016-.007l.007-.005ZM39.933 57.494l-2.886-3.444s-.007-.005-.01-.005l-10.16 1.07s-.014.017-.002.022l9.395 4.133h.01l3.653-1.76s.01-.011.005-.016h-.005ZM40.747 60.072l-2.57 1.037s-.01.004-.012.009l-2.875 4.79c-.011.02.01.043.03.032l5.198-2.738s.011-.011.011-.018l.249-3.09c0-.017-.017-.03-.033-.024l.002.002ZM69.69 45.459l-.311-4.484s0-.007.004-.009l8.06-6.28s.022.002.017.014l-3.897 9.495-.007.007-3.85 1.268s-.014-.002-.014-.01l-.002-.001ZM70.92 47.99l2.571-1.036h.014l5.395 1.455a.023.023 0 0 1 0 .044l-5.643 1.635s-.016 0-.02-.005l-2.323-2.051c-.014-.012-.01-.033.007-.04v-.002Z" fill="#5C4996" stroke="#5C4996" stroke-width="1.943" stroke-linejoin="round"/><path d="M40.491 48.996s6.22-.92 8.675.9c0 0-3.505.85-6.42 4.69M63.32 39.69s-5.115 3.654-5.62 6.668c0 0 3.115-1.82 7.874-1.078" stroke="#5C4996" stroke-width="1.943" stroke-miterlimit="10" stroke-linecap="round"/><path d="M52.57 58.832s4.158-1.942 3.389-5.682c0 0 3.05 3.35 6.736 1.598" stroke="#5C4996" stroke-width="1.943" stroke-linecap="round" stroke-linejoin="round"/><path d="M18.825 72.201c-.167-.684-.851-1.973-3.385-3.772-3.906-2.772-2.981-6.375-2.981-6.375s.987-3.28 3.695-2.909c1.95.267 3.663 2.147 4.47 3.18.294.378.528.798.697 1.248.397 1.052 1.32 3.3 2.35 4.488" stroke="#5C4996" stroke-width="1.664" stroke-miterlimit="10"/><path d="M38.376 82.876a9.256 9.256 0 0 1-1.801 2.606c-4.22 4.37-11.109 4.015-15.713-.431-4.604-4.447-4.968-10.975-.749-15.344 4.22-4.37 10.115-3.464 14.716.983 1.12 1.082 2.05 2.253 2.752 3.472" stroke="#5C4996" stroke-width="1.943" stroke-miterlimit="10"/><path d="m27.558 78.437 8.185-8.487" stroke="#5C4996" stroke-width="1.943" stroke-miterlimit="10" stroke-linecap="round"/><path d="m41.79 89.472-.586-1.607 4.745-1.456 1.333 3.651 10.907-3.982.673 1.838L43.297 93.6l-1.509-4.13m7.956-6.974c-2.747 1.53-9.89 4.639-13.589 5.99l-.67-1.838c1.372-.5 3.192-1.222 5.07-2.017l-.617-1.692c-2.59.362-4.539-.566-5.352-2.796-1.03-2.819.651-5.211 4.304-6.544 3.652-1.333 6.48-.589 7.509 2.23.814 2.23-.079 4.196-2.293 5.587l.52 1.42c1.785-.817 3.363-1.59 4.355-2.146l.77 1.804-.007.002ZM38.99 78.534c.654 1.79 1.47 2.353 2.425 2.003.955-.35 1.217-1.305.563-3.095-.644-1.764-1.47-2.352-2.425-2.002-.955.35-1.207 1.33-.563 3.094Zm14.459-3.917 3.285-1.199.67 1.838-3.285 1.199 2.819 7.72-4.901 1.79-6.489-17.77 4.991-1.544 2.91 7.966ZM78.383 69.178l.663 1.813-14.878 5.431-2.228-6.103 9.658-3.526-.867-2.379-9.658 3.526-.663-1.813L74.723 60.9l2.193 6.004-9.658 3.526.904 2.476 10.221-3.733v.005Zm.042 6.734 5.686-2.077.672 1.839-22.548 8.234-.67-1.838 5.71-2.084-1.137-3.114 4.289-1.567 1.136 3.113 2.573-.939L73 74.367 77.29 72.8l1.136 3.113ZM81.603 57.835l5.294-1.933 2.448 11.496-2.207.806-5.535-10.366v-.003Zm6.085 14.918c-.482-1.324.055-2.437 1.328-2.903 1.25-.456 2.378.049 2.86 1.373.485 1.323-.053 2.436-1.304 2.893-1.275.466-2.404-.04-2.886-1.363h.002Z" stroke="#5C4895" stroke-width="1.303" stroke-miterlimit="10"/><path d="m36.661 100.001-1.736-2.58a.64.64 0 0 0-.71-.26l-2.99.853c-.598.171-1.064-.524-.682-1.013l1.917-2.448a.64.64 0 0 0 .028-.754l-1.736-2.58c-.348-.517.17-1.175.753-.96l2.921 1.07a.643.643 0 0 0 .726-.207l1.917-2.448c.383-.49 1.168-.202 1.148.42l-.114 3.108c-.01.278.16.531.422.626l2.92 1.069c.585.213.555 1.05-.043 1.22l-2.99.852a.645.645 0 0 0-.467.594l-.113 3.108c-.023.622-.828.851-1.173.334l.002-.004ZM52.337 101.957l-2.42-1.952a.64.64 0 0 0-.754-.037l-2.605 1.699c-.522.339-1.171-.185-.95-.767l1.107-2.905c.1-.26.021-.554-.197-.728l-2.42-1.952c-.484-.39-.185-1.17.436-1.14l3.106.157a.644.644 0 0 0 .633-.412l1.108-2.905c.223-.582 1.057-.538 1.22.063l.81 3.002a.64.64 0 0 0 .587.473l3.107.157c.621.033.839.84.317 1.178l-2.605 1.7a.644.644 0 0 0-.27.704l.812 3.002c.162.6-.538 1.057-1.022.667v-.004ZM60.87 100.476l.245-3.1a.64.64 0 0 0-.394-.644L57.85 95.54c-.575-.239-.508-1.07.097-1.217l3.026-.723a.644.644 0 0 0 .491-.573l.246-3.1c.048-.618.862-.813 1.187-.282l1.623 2.652a.644.644 0 0 0 .697.29l3.026-.724c.605-.143 1.04.568.637 1.041l-2.022 2.362a.642.642 0 0 0-.06.752l1.623 2.652c.325.53-.22 1.166-.793.927l-2.872-1.192a.64.64 0 0 0-.733.177l-2.021 2.362c-.403.473-1.178.15-1.127-.468h-.004ZM75.322 95.66l-.853-2.99a.645.645 0 0 0-.594-.466l-3.108-.113c-.622-.023-.851-.828-.334-1.173l2.58-1.737a.64.64 0 0 0 .26-.709l-.853-2.99c-.172-.598.523-1.064 1.013-.682l2.448 1.917a.64.64 0 0 0 .753.028l2.58-1.736c.517-.348 1.175.169.96.753l-1.069 2.921a.644.644 0 0 0 .206.726l2.448 1.917c.49.382.202 1.168-.42 1.147l-3.108-.113a.642.642 0 0 0-.626.422l-1.068 2.92c-.214.585-1.05.555-1.22-.043l.005.002ZM87.463 85.665l-1.917-2.448a.644.644 0 0 0-.725-.207L81.9 84.077c-.584.213-1.099-.445-.754-.962l1.737-2.58a.64.64 0 0 0-.028-.754l-1.917-2.448c-.383-.489.083-1.182.681-1.013l2.99.853a.642.642 0 0 0 .71-.26l1.736-2.58c.348-.514 1.153-.285 1.173.337l.112 3.108c.009.278.197.517.466.594l2.99.853c.598.171.628 1.006.044 1.22l-2.92 1.066a.642.642 0 0 0-.423.626l.112 3.108c.023.621-.763.909-1.148.42h.002Z" fill="#5C4996"/></g><defs><clipPath id="a"><path fill="#fff" d="M0 0h102v102H0z"/></clipPath></defs></svg>