<svg width="17" height="17" viewBox="0 0 17 17" fill="none" xmlns="http://www.w3.org/2000/svg">
<g clip-path="url(#clip0_1743_3034)">
<path d="M8.49599 16.6271C12.9865 16.6271 16.6267 12.9868 16.6267 8.49635C16.6267 4.00586 12.9865 0.365601 8.49599 0.365601C4.0055 0.365601 0.365234 4.00586 0.365234 8.49635C0.365234 12.9868 4.0055 16.6271 8.49599 16.6271Z" fill="#F5D6E6" stroke="#E2AFCB" stroke-width="0.731183" stroke-miterlimit="10"/>
<path d="M8.49798 16.6052C8.6797 16.6052 8.82701 12.9748 8.82701 8.49639C8.82701 4.01801 8.6797 0.387573 8.49798 0.387573C8.31626 0.387573 8.16895 4.01801 8.16895 8.49639C8.16895 12.9748 8.31626 16.6052 8.49798 16.6052Z" fill="white"/>
<path d="M8.17036 8.64452C11.0496 8.64452 13.3837 8.4743 13.3837 8.26431C13.3837 8.05432 11.0496 7.88409 8.17036 7.88409C5.29112 7.88409 2.95703 8.05432 2.95703 8.26431C2.95703 8.4743 5.29112 8.64452 8.17036 8.64452Z" fill="white"/>
<path d="M12.1865 12.1828C12.335 12.0343 10.8049 10.2635 8.76901 8.22754C6.73308 6.1916 4.96226 4.66152 4.81377 4.81001C4.66529 4.95849 6.19537 6.72931 8.23131 8.76524C10.2672 10.8012 12.0381 12.3313 12.1865 12.1828Z" fill="white"/>
<path d="M8.76901 8.76526C10.8049 6.72933 12.335 4.95851 12.1865 4.81003C12.0381 4.66154 10.2672 6.19162 8.23131 8.22756C6.19537 10.2635 4.66529 12.0343 4.81377 12.1828C4.96226 12.3313 6.73308 10.8012 8.76901 8.76526Z" fill="white"/>
</g>
<defs>
<clipPath id="clip0_1743_3034">
<rect width="17" height="17" fill="white"/>
</clipPath>
</defs>
</svg>
